<?xml version="1.0" encoding="UTF-8"?>
<svg xmlns="http://www.w3.org/2000/svg" xmlns:xlink="http://www.w3.org/1999/xlink" width="300px" height="300px" viewBox="0 0 300 300" version="1.1">
<g id="surface1">
<path style=" stroke:none;fill-rule:nonzero;fill:rgb(87.45098%,27.45098%,0.392157%);fill-opacity:1;" d="M 293.464844 37.511719 C 290.855469 30.515625 284.21875 24.265625 273.550781 22.265625 C 271.894531 22.015625 269.996094 22.015625 268.101562 22.015625 C 251.269531 22.015625 225.90625 28.515625 200.777344 34.015625 C 190.824219 36.015625 169.726562 39.011719 169.726562 39.011719 C 153.375 18.765625 134.648438 13.515625 122.796875 11.765625 C 115.921875 10.769531 112.839844 11.515625 109.996094 10.519531 C 107.863281 9.019531 101.9375 3.769531 91.507812 3.769531 C 89.847656 3.769531 87.949219 4.019531 85.578125 5.269531 C 85.578125 5.269531 72.78125 7.015625 62.585938 18.015625 C 60.453125 20.015625 56.898438 25.015625 55.238281 30.265625 C 52.632812 32.511719 50.5 33.261719 44.808594 39.011719 C 8.777344 71.257812 23.476562 113.253906 29.402344 127.253906 C -3.070312 154 4.039062 184.996094 4.039062 184.996094 L 13.992188 183.246094 C 13.753906 259.738281 71.597656 296.730469 127.300781 296.730469 C 172.101562 296.730469 215.242188 272.734375 225.433594 225.742188 C 233.730469 187.496094 240.605469 170.246094 273.078125 161.25 C 279.71875 159.25 282.324219 154.75 282.085938 151.253906 C 280.902344 139.253906 259.09375 126.253906 224.957031 126.253906 C 220.457031 126.253906 215.714844 126.503906 210.738281 127.003906 C 208.367188 118.253906 208.132812 114.753906 208.132812 114.753906 C 229.230469 109.503906 258.621094 99.507812 278.769531 82.507812 C 294.886719 68.757812 300.8125 56.011719 293.464844 37.511719 Z M 272.367188 65.011719 C 269.761719 67.761719 259.804688 75.507812 245.34375 82.507812 C 224.957031 92.253906 201.253906 98.003906 195.566406 99.753906 C 186.324219 102.503906 186.5625 105.003906 188.457031 109.253906 C 192.484375 118.753906 193.671875 125 195.332031 147.25 C 208.609375 143 232.785156 143.5 254.117188 148.996094 C 240.84375 154.746094 227.09375 164.246094 215.242188 180.746094 C 180.160156 229.988281 124.21875 225.488281 99.09375 200.242188 C 93.640625 204.992188 100.75 221.738281 100.75 221.738281 C 99.566406 222.988281 96.960938 221.738281 96.960938 221.738281 C 77.996094 188.742188 98.144531 180.246094 113.792969 179.246094 C 120.425781 177.996094 119.714844 181.992188 113.554688 183.242188 C 87.476562 189.492188 123.507812 220.988281 168.074219 208.742188 C 207.421875 197.742188 205.050781 171.246094 240.132812 150.746094 C 211.925781 145.246094 192.253906 152.746094 183.71875 156.746094 C 178.03125 159.746094 168.785156 159.996094 164.757812 158.496094 C 159.777344 174.992188 142.710938 179.742188 110.234375 171.496094 C 87.007812 165.746094 68.753906 189.492188 78.945312 220.238281 C 89.375 251.734375 141.050781 283.230469 197.46875 246.238281 C 192.964844 252.488281 187.039062 257.984375 180.398438 262.488281 C 165.699219 272.234375 146.738281 277.734375 127.066406 277.734375 C 99.09375 277.734375 72.78125 266.988281 55.476562 248.488281 C 39.59375 231.488281 31.773438 208.992188 32.007812 181.742188 C 32.007812 176.996094 33.433594 166.246094 35.089844 162.996094 L 23.714844 163.746094 C 23.714844 163.746094 27.25 146.378906 51.648438 131.417969 L 48.363281 124.25 L 48.53125 124.226562 C 27.160156 77.15625 49.804688 58.078125 59.980469 49.257812 C 68.511719 41.757812 70.648438 42.257812 72.308594 35.757812 C 73.019531 32.007812 76.8125 28.007812 81.316406 25.507812 C 87.242188 22.011719 94.351562 21.511719 98.382812 24.757812 C 102.175781 28.761719 109.761719 29.761719 114.503906 29.761719 C 150.769531 31.007812 161.671875 59.007812 161.671875 59.007812 C 169.96875 56.257812 183.242188 56.007812 206.46875 51.007812 C 250.800781 40.757812 254.117188 40.507812 261.226562 39.757812 C 269.527344 39.007812 276.398438 39.507812 279.242188 46.757812 C 282.085938 54.003906 274.503906 63 272.367188 65.003906 Z M 272.367188 65.011719 "/>
<path style=" stroke:none;fill-rule:nonzero;fill:rgb(100%,100%,100%);fill-opacity:1;" d="M 296.546875 36.015625 C 292.992188 27.011719 284.695312 20.515625 273.789062 18.515625 L 273.316406 18.515625 C 271.421875 18.265625 269.523438 18.265625 267.390625 18.265625 C 252.929688 18.265625 233.253906 22.765625 212.394531 27.515625 C 208.128906 28.515625 203.625 29.515625 199.359375 30.515625 C 191.300781 32.265625 175.890625 34.515625 170.675781 35.265625 C 158.351562 19.515625 142.234375 10.515625 123.269531 7.765625 C 119.949219 7.265625 117.339844 7.265625 115.207031 7.265625 C 113.550781 7.265625 112.363281 7.265625 111.414062 7.015625 C 111.414062 7.015625 111.179688 7.015625 111.179688 6.765625 C 108.570312 4.769531 102.171875 0.0195312 91.503906 0.0195312 C 89.609375 0.0195312 87.476562 0.269531 85.578125 0.519531 C 84.390625 0.769531 71.117188 2.769531 60.453125 14.519531 C 58.554688 16.515625 54.761719 21.519531 52.628906 27.265625 C 52.152344 27.761719 51.441406 28.261719 50.730469 28.761719 C 48.835938 30.011719 46.703125 31.761719 42.910156 35.511719 C 26.554688 50.011719 18.257812 68.007812 18.257812 89.257812 C 18.257812 100.753906 20.628906 113.003906 25.367188 125.503906 C 9.25 139.503906 3.328125 154.25 1.191406 164.746094 C -1.175781 176.496094 0.71875 184.996094 0.71875 185.246094 L 1.433594 188.746094 L 4.746094 188.246094 L 10.675781 187.246094 C 11.386719 217.742188 21.582031 244.238281 40.542969 264.238281 C 62.113281 286.984375 93.878906 299.980469 127.535156 299.980469 C 151.003906 299.980469 173.761719 293.480469 191.539062 281.484375 C 211.210938 268.238281 224.25 248.988281 229.226562 225.992188 C 237.527344 187.996094 243.449219 172.746094 274.03125 164.496094 C 282.566406 162 286.117188 155.75 285.644531 150.5 C 284.933594 143 278.058594 135.753906 267.15625 130.503906 C 259.335938 126.753906 245.347656 122.253906 224.726562 122.253906 C 220.933594 122.253906 217.140625 122.503906 213.109375 122.753906 C 212.636719 120.503906 212.164062 119.003906 211.925781 117.503906 C 229.941406 113.007812 259.574219 103.257812 280.671875 85.507812 C 299.394531 69.761719 304.136719 55.011719 296.550781 36.015625 Z M 208.128906 114.757812 C 208.128906 114.757812 208.367188 118.253906 210.734375 127.003906 C 215.714844 126.503906 220.453125 126.25 224.957031 126.25 C 259.09375 126.25 280.898438 139.25 282.085938 151.25 C 282.320312 154.753906 279.714844 159.253906 273.078125 161.253906 C 240.601562 170.253906 233.726562 187.5 225.429688 225.746094 C 215.238281 272.742188 172.09375 296.738281 127.296875 296.738281 C 71.589844 296.738281 13.753906 259.738281 13.988281 183.25 L 4.03125 184.996094 C 4.03125 184.996094 -3.078125 154 29.398438 127.253906 C 23.472656 113.253906 8.777344 71.257812 44.804688 39.011719 C 50.496094 33.261719 52.628906 32.511719 55.234375 30.265625 C 56.894531 25.015625 60.453125 20.015625 62.585938 18.015625 C 72.777344 7.015625 85.578125 5.269531 85.578125 5.269531 C 87.945312 4.019531 89.84375 3.769531 91.503906 3.769531 C 101.933594 3.769531 107.859375 9.019531 109.992188 10.519531 C 112.835938 11.515625 115.917969 10.769531 122.789062 11.765625 C 134.640625 13.515625 153.367188 18.765625 169.722656 39.015625 C 169.722656 39.015625 190.820312 36.015625 200.777344 34.015625 C 225.902344 28.515625 251.265625 22.015625 268.097656 22.015625 C 269.992188 22.015625 271.886719 22.015625 273.550781 22.265625 C 284.214844 24.265625 290.851562 30.515625 293.460938 37.511719 C 300.808594 56.011719 294.878906 68.757812 278.761719 82.507812 C 258.613281 99.503906 229.222656 109.503906 208.125 114.753906 Z M 208.128906 114.757812 "/>
<path style=" stroke:none;fill-rule:nonzero;fill:rgb(0%,0%,0%);fill-opacity:1;" d="M 261.226562 39.761719 C 254.113281 40.511719 250.796875 40.761719 206.46875 51.011719 C 183.238281 56.011719 169.964844 56.261719 161.667969 59.011719 C 161.667969 59.011719 150.761719 31.011719 114.496094 29.765625 C 109.757812 29.765625 102.171875 28.765625 98.378906 24.765625 C 94.351562 21.515625 87.238281 22.015625 81.3125 25.515625 C 76.808594 28.011719 73.015625 32.015625 72.304688 35.761719 C 70.644531 42.265625 68.511719 41.761719 59.976562 49.261719 C 49.804688 58.082031 27.160156 77.160156 48.527344 124.230469 C 50.355469 123.988281 67.878906 121.492188 86.050781 112.503906 L 51.679688 131.503906 L 51.644531 131.425781 C 27.246094 146.386719 23.707031 163.753906 23.707031 163.753906 L 35.085938 163 C 33.429688 166.25 32.003906 177 32.003906 181.75 C 31.769531 208.996094 39.59375 231.496094 55.472656 248.496094 C 72.777344 266.992188 99.089844 277.742188 127.058594 277.742188 C 146.734375 277.742188 165.699219 272.242188 180.394531 262.492188 C 187.03125 257.992188 192.957031 252.496094 197.464844 246.242188 C 141.046875 283.242188 89.371094 251.742188 78.941406 220.246094 C 68.75 189.5 87 165.753906 110.230469 171.503906 C 142.703125 179.753906 159.769531 175 164.75 158.503906 C 168.777344 160.003906 178.023438 159.753906 183.710938 156.757812 C 192.242188 152.753906 211.921875 145.257812 240.128906 150.753906 C 205.042969 171.25 207.414062 197.75 168.066406 208.746094 C 123.503906 220.996094 87.472656 189.5 113.546875 183.25 C 119.710938 182 120.417969 178 113.78125 179.25 C 98.136719 180.246094 77.988281 188.75 96.953125 221.742188 C 96.953125 221.742188 99.558594 222.992188 100.746094 221.742188 C 100.746094 221.742188 93.632812 204.996094 99.085938 200.246094 C 124.210938 225.496094 180.15625 229.992188 215.238281 180.75 C 227.085938 164.25 240.835938 154.75 254.109375 149.003906 C 232.777344 143.503906 208.601562 143.003906 195.324219 147.253906 C 193.667969 125.007812 192.480469 118.757812 188.449219 109.257812 C 186.554688 105.007812 186.316406 102.507812 195.5625 99.757812 C 201.25 98.011719 224.953125 92.261719 245.339844 82.507812 C 259.800781 75.511719 269.757812 67.761719 272.363281 65.011719 C 274.496094 63.015625 282.082031 54.015625 279.238281 46.765625 C 276.394531 39.515625 269.523438 39.015625 261.226562 39.765625 Z M 78.703125 40.761719 C 83.207031 23.015625 96.484375 33.761719 96.484375 33.761719 Z M 141.996094 58.511719 C 141.996094 57.261719 142.230469 55.761719 142.46875 55.011719 L 144.363281 53.511719 L 144.601562 53.511719 L 144.601562 53.761719 C 144.601562 54.265625 144.839844 54.765625 145.3125 55.015625 L 145.785156 55.515625 L 147.445312 57.015625 C 148.15625 57.765625 148.394531 58.265625 148.628906 59.015625 L 148.871094 59.765625 L 148.871094 60.015625 C 149.34375 61.761719 148.394531 63.515625 146.972656 64.261719 C 146.261719 64.761719 145.554688 64.761719 145.078125 64.511719 C 144.84375 64.265625 144.367188 63.761719 144.132812 63.265625 C 143.65625 62.515625 144.132812 60.765625 146.5 59.765625 L 146.738281 59.765625 L 146.5 59.515625 C 145.789062 59.019531 144.367188 57.769531 143.894531 57.015625 L 143.660156 56.769531 L 143.660156 57.019531 C 143.660156 57.519531 143.421875 58.019531 143.421875 58.519531 L 143.183594 60.519531 L 143.183594 61.019531 L 142.949219 63.015625 L 142.710938 65.265625 C 141.996094 67.765625 141.050781 69.265625 139.628906 70.011719 L 139.390625 70.011719 L 139.867188 67.765625 C 141.050781 67.011719 141.523438 65.011719 141.761719 62.511719 L 142 58.515625 Z M 139.386719 52.011719 C 139.625 51.511719 139.859375 51.011719 140.097656 51.011719 L 140.335938 51.011719 C 140.097656 51.761719 140.097656 52.011719 140.097656 52.511719 C 140.570312 52.511719 140.808594 52.511719 141.046875 52.761719 C 141.28125 53.261719 141.28125 54.261719 140.808594 54.761719 C 140.792969 55.027344 140.589844 55.242188 140.335938 55.261719 C 139.621094 55.511719 139.148438 55.511719 139.148438 55.261719 C 138.679688 54.507812 138.917969 53.011719 139.390625 52.011719 Z M 117.34375 42.011719 C 118.527344 40.011719 120.660156 39.011719 123.03125 38.761719 C 127.058594 38.511719 131.089844 42.761719 133.9375 51.011719 C 134.648438 50.261719 135.121094 49.261719 135.59375 48.261719 L 137.253906 48.761719 C 136.78125 50.261719 135.59375 52.011719 134.648438 52.761719 C 136.542969 58.511719 137.015625 67.007812 134.410156 72.757812 C 133.226562 75.507812 131.566406 77.257812 129.195312 78.007812 C 127.539062 78.507812 125.167969 78.507812 123.269531 77.257812 C 119.949219 75.507812 117.578125 71.757812 115.921875 66.507812 C 114.5 61.511719 114.261719 55.011719 116.394531 49.511719 C 115.449219 47.011719 115.921875 44.007812 117.34375 42.011719 Z M 145.550781 167 C 140.164062 168.953125 133.714844 165.09375 128.976562 157.957031 C 131.785156 160.167969 134.886719 160.90625 137.253906 159.5 C 141.046875 157.253906 141.757812 150.253906 138.4375 144.253906 C 135.121094 138.003906 129.429688 135.003906 125.640625 137.253906 C 124.269531 138.066406 123.3125 139.496094 122.789062 141.269531 C 121.269531 130.507812 124.28125 121.09375 130.613281 119.007812 C 138.4375 116.257812 147.917969 125.007812 151.949219 138.253906 C 155.976562 151.503906 153.132812 164.5 145.546875 167.003906 Z M 175.890625 154 C 170.644531 155.511719 164.875 151.832031 160.566406 145.1875 C 162.785156 146.742188 165.195312 147.199219 167.121094 146.25 C 170.910156 144.253906 171.621094 138 169.015625 132.25 C 166.410156 126.5 161.191406 123.253906 157.636719 125.003906 C 156.222656 125.75 155.238281 127.089844 154.695312 128.769531 C 153.332031 117.144531 156.902344 106.992188 163.800781 105.007812 C 171.625 102.757812 180.632812 112.007812 183.949219 125.507812 C 187.265625 139.003906 183.710938 151.753906 175.890625 154 Z M 138.675781 101.507812 C 120.660156 99.007812 108.808594 99.007812 120.421875 91.007812 C 120.421875 91.007812 147.683594 68.761719 178.261719 65.011719 C 206.707031 61.261719 251.980469 50.765625 251.980469 50.765625 C 251.980469 50.765625 229.9375 64.761719 207.894531 81.007812 C 183.953125 96.007812 166.410156 102.253906 138.679688 101.503906 L 138.675781 101.503906 Z M 224.246094 80.257812 C 224.246094 80.257812 268.8125 47.515625 270.234375 50.015625 C 274.261719 55.765625 251.980469 70.511719 224.246094 80.257812 Z M 224.246094 80.257812 "/>
<path style=" stroke:none;fill-rule:nonzero;fill:rgb(0%,0%,0%);fill-opacity:1;" d="M 124.691406 53.511719 C 126.347656 54.261719 128.007812 54.261719 130.144531 53.261719 C 128.722656 48.261719 126.117188 42.511719 123.269531 42.511719 C 122.082031 42.511719 120.898438 43.011719 120.421875 43.761719 C 119.472656 45.257812 119.472656 47.257812 120.183594 49.007812 C 121.132812 51.007812 122.789062 52.757812 124.6875 53.507812 Z M 128.011719 74.257812 C 129.195312 74.007812 129.90625 73.503906 130.617188 72.257812 C 131.800781 70.257812 132.039062 67.007812 132.039062 64.507812 C 132.039062 61.511719 131.324219 57.761719 130.617188 55.011719 C 126.589844 57.261719 123.269531 57.261719 119.710938 55.011719 C 119 58.007812 119 61.511719 119.710938 64.507812 C 120.898438 69.007812 124.21875 75.007812 128.007812 74.257812 Z M 144.839844 61.511719 C 144.601562 62.011719 144.601562 62.511719 145.078125 62.761719 C 145.3125 63.003906 145.789062 63.257812 146.261719 63.003906 C 146.734375 62.757812 146.972656 62.507812 147.210938 62.007812 C 147.445312 61.757812 147.445312 61.007812 147.445312 60.261719 C 147.210938 60.261719 147.210938 60.007812 147.210938 60.007812 L 146.972656 60.007812 C 145.789062 60.507812 145.078125 61.007812 144.839844 61.511719 Z M 144.839844 61.511719 "/>
<path style=" stroke:none;fill-rule:nonzero;fill:rgb(87.45098%,27.45098%,0.392157%);fill-opacity:1;" d="M 78.703125 40.761719 L 96.484375 33.761719 C 96.484375 33.761719 83.207031 23.015625 78.703125 40.761719 Z M 178.261719 65.011719 C 147.683594 68.757812 120.421875 91.007812 120.421875 91.007812 C 108.808594 99.007812 120.660156 99.007812 138.675781 101.507812 C 166.410156 102.253906 183.953125 96.003906 207.890625 81.007812 C 229.933594 64.757812 251.980469 50.761719 251.980469 50.761719 C 251.980469 50.761719 206.710938 61.257812 178.261719 65.007812 Z M 224.246094 80.257812 C 251.980469 70.507812 274.261719 55.761719 270.234375 50.011719 C 268.8125 47.511719 224.246094 80.257812 224.246094 80.257812 Z M 224.246094 80.257812 "/>
<path style=" stroke:none;fill-rule:nonzero;fill:rgb(100%,100%,100%);fill-opacity:1;" d="M 86.050781 112.503906 C 67.882812 121.492188 50.355469 123.988281 48.53125 124.230469 L 48.367188 124.253906 L 51.648438 131.421875 L 51.683594 131.5 L 86.054688 112.503906 Z M 130.617188 119.003906 C 124.285156 121.089844 121.269531 130.503906 122.792969 141.265625 C 123.3125 139.492188 124.273438 138.0625 125.636719 137.25 C 129.429688 135.003906 135.117188 138 138.4375 144.25 C 141.757812 150.25 141.046875 157.25 137.253906 159.5 C 134.890625 160.90625 131.785156 160.167969 128.980469 157.957031 C 133.714844 165.09375 140.167969 168.953125 145.550781 167.003906 C 153.136719 164.503906 155.980469 151.503906 151.953125 138.253906 C 147.925781 125.007812 138.441406 116.257812 130.617188 119.007812 Z M 163.804688 105.003906 C 156.90625 106.992188 153.332031 117.140625 154.695312 128.769531 C 155.238281 127.089844 156.222656 125.75 157.640625 125.003906 C 161.195312 123.253906 166.410156 126.503906 169.015625 132.253906 C 171.625 138.003906 170.914062 144.253906 167.121094 146.253906 C 165.195312 147.203125 162.785156 146.742188 160.5625 145.1875 C 164.875 151.832031 170.644531 155.511719 175.890625 154 C 183.710938 151.753906 187.265625 139.003906 183.945312 125.503906 C 180.628906 112.003906 171.621094 102.757812 163.800781 105.007812 L 163.800781 105.003906 Z M 163.804688 105.003906 "/>
<path style=" stroke:none;fill-rule:nonzero;fill:rgb(87.45098%,27.45098%,0.392157%);fill-opacity:1;" d="M 115.921875 66.511719 C 117.578125 71.761719 119.949219 75.511719 123.269531 77.257812 C 125.164062 78.507812 127.53125 78.507812 129.191406 78.011719 C 131.5625 77.257812 133.222656 75.511719 134.410156 72.757812 C 137.015625 67.007812 136.542969 58.511719 134.648438 52.761719 C 135.59375 52.011719 136.78125 50.261719 137.253906 48.761719 L 135.597656 48.261719 C 135.121094 49.261719 134.648438 50.261719 133.9375 51.011719 C 131.089844 42.761719 127.0625 38.515625 123.03125 38.761719 C 120.660156 39.007812 118.527344 40.011719 117.34375 42.007812 C 115.921875 44.007812 115.445312 47.007812 116.394531 49.507812 C 114.257812 55.007812 114.5 61.507812 115.921875 66.507812 Z M 120.421875 43.761719 C 120.898438 43.011719 122.082031 42.507812 123.269531 42.507812 C 126.113281 42.507812 128.71875 48.257812 130.140625 53.257812 C 128.007812 54.257812 126.351562 54.257812 124.691406 53.507812 C 122.792969 52.757812 121.136719 51.007812 120.1875 49.007812 C 119.472656 47.261719 119.472656 45.261719 120.417969 43.757812 L 120.421875 43.757812 Z M 119.710938 55.007812 C 123.269531 57.257812 126.589844 57.257812 130.617188 55.007812 C 131.328125 57.757812 132.039062 61.507812 132.039062 64.507812 C 132.039062 67.007812 131.800781 70.257812 130.617188 72.253906 C 129.902344 73.503906 129.195312 74.003906 128.007812 74.253906 C 124.214844 75.003906 120.894531 69.003906 119.710938 64.503906 C 118.996094 61.503906 118.996094 58.003906 119.710938 55.003906 Z M 140.335938 55.261719 C 140.570312 55.261719 140.808594 55.011719 140.808594 54.761719 C 141.28125 54.261719 141.28125 53.261719 141.046875 52.761719 C 140.808594 52.507812 140.570312 52.507812 140.097656 52.507812 C 140.097656 52.007812 140.097656 51.757812 140.335938 51.007812 L 140.097656 51.007812 C 139.859375 51.007812 139.625 51.507812 139.386719 52.007812 C 138.914062 53.003906 138.675781 54.507812 139.148438 55.257812 C 139.148438 55.503906 139.625 55.503906 140.335938 55.257812 Z M 139.859375 67.757812 L 139.386719 70.007812 L 139.625 70.007812 C 141.046875 69.257812 141.996094 67.757812 142.707031 65.257812 L 142.941406 63.011719 L 143.175781 61.011719 L 143.175781 60.507812 L 143.414062 58.507812 C 143.414062 58.007812 143.652344 57.507812 143.652344 57.007812 L 143.652344 56.757812 L 143.886719 57.007812 C 144.363281 57.757812 145.785156 59.007812 146.496094 59.507812 L 146.734375 59.757812 L 146.496094 59.757812 C 144.125 60.757812 143.652344 62.503906 144.125 63.253906 C 144.363281 63.753906 144.839844 64.253906 145.074219 64.503906 C 145.546875 64.757812 146.257812 64.757812 146.96875 64.257812 C 148.390625 63.503906 149.339844 61.757812 148.867188 60.007812 L 148.867188 59.757812 L 148.628906 59.007812 C 148.394531 58.257812 148.15625 57.757812 147.445312 57.007812 L 145.789062 55.511719 L 145.3125 55.011719 C 144.867188 54.773438 144.59375 54.289062 144.601562 53.761719 L 144.601562 53.511719 L 144.363281 53.511719 L 142.46875 55.011719 C 142.230469 55.761719 141.996094 57.261719 141.996094 58.507812 L 141.757812 62.503906 C 141.519531 65.003906 141.042969 67.003906 139.859375 67.753906 Z M 147.210938 60.007812 C 147.210938 60.007812 147.210938 60.257812 147.445312 60.257812 C 147.445312 61.007812 147.445312 61.757812 147.210938 62.007812 C 146.972656 62.503906 146.734375 62.757812 146.261719 63.003906 C 145.789062 63.253906 145.3125 63.003906 145.078125 62.753906 C 144.601562 62.503906 144.601562 62.003906 144.839844 61.503906 C 145.078125 61.003906 145.789062 60.503906 146.972656 60.003906 L 147.210938 60.003906 Z M 147.210938 60.007812 "/>
</g>
</svg>
