<?xml version="1.0" encoding="UTF-8"?>
<svg xmlns="http://www.w3.org/2000/svg" xmlns:xlink="http://www.w3.org/1999/xlink" width="300px" height="300px" viewBox="0 0 300 300" version="1.1">
<g id="surface1">
<path style=" stroke:none;fill-rule:nonzero;fill:rgb(100%,100%,100%);fill-opacity:1;" d="M 274.625 185.117188 C 270.621094 176.886719 269.246094 160.984375 246.566406 150.011719 C 269.246094 139.035156 270.621094 123.117188 274.625 114.867188 C 281.167969 101.476562 285.515625 93.226562 299.441406 87.449219 C 249.839844 67.335938 273.78125 49.039062 232.644531 20.25 C 197.109375 -4.613281 141.273438 -6.582031 102.53125 14.359375 C 91.835938 5.914062 76.238281 0.621094 58.917969 0.621094 C 26.683594 0.621094 0.558594 18.9375 0.558594 41.464844 C 0.558594 46.355469 1.773438 51.050781 4.019531 55.394531 C 9.597656 47.320312 20.652344 41.792969 33.386719 41.792969 C 51.714844 41.792969 66.539062 53.171875 66.539062 67.199219 L 66.539062 113.664062 C 66.539062 118.511719 64.191406 140.175781 24.433594 150.007812 C 64.191406 159.824219 66.539062 181.484375 66.539062 186.351562 L 66.539062 232.820312 C 66.539062 246.808594 51.714844 258.207031 33.386719 258.207031 C 20.652344 258.207031 9.597656 252.71875 4.019531 244.625 C 1.722656 249.082031 0.550781 253.78125 0.558594 258.519531 C 0.558594 281.085938 26.683594 299.367188 58.917969 299.367188 C 76.238281 299.367188 91.832031 294.066406 102.53125 285.664062 C 141.269531 306.585938 197.105469 304.597656 232.644531 279.75 C 273.78125 250.941406 249.839844 232.667969 299.4375 212.554688 C 285.515625 206.777344 281.167969 198.527344 274.625 185.117188 M 248.929688 243.042969 C 244.222656 252.640625 239.804688 261.761719 223.371094 273.238281 C 189.933594 296.65625 134.535156 295.863281 101.125 272.503906 C 93.933594 283.363281 77.136719 290.183594 58.917969 290.183594 C 36.828125 290.183594 18.34375 279.03125 14.441406 264.367188 C 20.363281 266.335938 26.832031 267.355469 33.386719 267.363281 C 58.878906 267.363281 79.648438 251.871094 79.648438 232.820312 L 79.648438 186.351562 C 79.648438 178.253906 75.230469 161.890625 52.511719 150.007812 C 75.226562 138.109375 79.648438 121.722656 79.648438 113.664062 L 79.648438 67.203125 C 79.648438 48.132812 58.878906 32.636719 33.386719 32.636719 C 26.667969 32.636719 20.226562 33.71875 14.441406 35.652344 C 18.34375 20.96875 36.824219 9.796875 58.917969 9.796875 C 77.132812 9.796875 93.929688 16.636719 101.121094 27.496094 C 134.53125 4.097656 189.925781 3.363281 223.367188 26.761719 C 239.800781 38.257812 244.222656 47.359375 248.925781 56.980469 C 253.949219 67.300781 259.152344 77.902344 278.070312 88.398438 C 270.457031 95.042969 266.535156 103.082031 262.230469 111.890625 C 261.292969 113.839844 260.542969 115.851562 259.757812 118.054688 C 257.449219 124.429688 248.316406 141.179688 228.703125 150.007812 C 248.316406 158.800781 257.449219 175.589844 259.757812 181.949219 C 260.542969 184.128906 261.292969 186.179688 262.230469 188.113281 C 266.535156 196.921875 270.453125 204.960938 278.070312 211.585938 C 259.152344 222.097656 253.949219 232.703125 248.929688 243.039062 "/>
<path style=" stroke:none;fill-rule:nonzero;fill:rgb(100%,100%,100%);fill-opacity:1;" d="M 162.46875 38.203125 C 142.222656 38.203125 124.640625 45.214844 115.765625 55.53125 L 115.765625 120.898438 C 124.640625 131.195312 142.226562 138.191406 162.46875 138.191406 C 191.667969 138.191406 215.339844 123.601562 215.339844 105.554688 C 215.339844 99.175781 212.390625 93.230469 207.25 88.203125 C 212.390625 83.179688 215.339844 77.246094 215.339844 70.871094 C 215.339844 52.847656 191.671875 38.199219 162.46875 38.199219 M 202.226562 105.554688 C 202.226562 118.480469 184.386719 129.027344 162.46875 129.027344 C 148.363281 129.027344 135.945312 124.664062 128.863281 118.128906 L 128.863281 58.292969 C 135.941406 51.742188 148.363281 47.394531 162.46875 47.394531 C 184.386719 47.394531 202.226562 57.925781 202.226562 70.871094 C 202.226562 77.710938 197.207031 83.875 189.214844 88.203125 C 197.207031 92.511719 202.226562 98.691406 202.226562 105.550781 M 162.46875 161.796875 C 142.222656 161.796875 124.640625 168.808594 115.765625 179.128906 L 115.765625 244.492188 C 124.640625 254.789062 142.226562 261.78125 162.46875 261.78125 C 191.667969 261.78125 215.339844 247.15625 215.339844 229.132812 C 215.339844 222.777344 212.390625 216.820312 207.25 211.800781 C 212.390625 206.757812 215.339844 200.847656 215.339844 194.46875 C 215.339844 176.40625 191.671875 161.796875 162.46875 161.796875 M 202.226562 229.132812 C 202.226562 242.078125 184.386719 252.605469 162.46875 252.605469 C 148.363281 252.605469 135.945312 248.261719 128.863281 241.691406 L 128.863281 181.875 C 135.941406 175.339844 148.363281 170.996094 162.46875 170.996094 C 184.386719 170.996094 202.226562 181.523438 202.226562 194.46875 C 202.226562 201.308594 197.207031 207.492188 189.214844 211.800781 C 197.207031 216.070312 202.226562 222.292969 202.226562 229.132812 "/>
<path style=" stroke:none;fill-rule:nonzero;fill:rgb(74.117647%,18.823529%,22.352941%);fill-opacity:1;" d="M 259.761719 181.96875 C 257.457031 175.59375 248.320312 158.804688 228.710938 149.996094 C 248.320312 141.183594 257.457031 124.433594 259.765625 118.054688 C 260.550781 115.871094 261.296875 113.839844 262.234375 111.890625 C 266.507812 103.078125 270.457031 95.042969 278.058594 88.394531 C 259.15625 77.902344 253.953125 67.296875 248.929688 56.976562 C 244.222656 47.335938 239.792969 38.257812 223.371094 26.742188 C 189.957031 3.363281 134.535156 4.136719 101.125 27.492188 C 93.929688 16.640625 77.140625 9.800781 58.917969 9.800781 C 36.824219 9.800781 18.34375 20.96875 14.441406 35.632812 C 20.359375 33.667969 26.828125 32.644531 33.382812 32.636719 C 58.875 32.636719 79.644531 48.132812 79.644531 67.203125 L 79.644531 113.652344 C 79.644531 121.726562 75.226562 138.09375 52.511719 149.996094 C 75.226562 161.898438 79.644531 178.261719 79.644531 186.355469 L 79.644531 232.824219 C 79.644531 251.871094 58.875 267.386719 33.382812 267.386719 C 26.664062 267.386719 20.222656 266.289062 14.441406 264.371094 C 18.34375 279.039062 36.820312 290.1875 58.917969 290.1875 C 77.132812 290.1875 93.929688 283.367188 101.121094 272.507812 C 134.53125 295.867188 189.957031 296.640625 223.367188 273.238281 C 239.789062 261.746094 244.222656 252.644531 248.925781 243.042969 C 253.949219 232.707031 259.152344 222.097656 278.054688 211.589844 C 270.453125 204.960938 266.503906 196.921875 262.230469 188.113281 C 261.292969 186.179688 260.546875 184.132812 259.761719 181.96875 M 215.339844 229.132812 C 215.339844 247.160156 191.671875 261.785156 162.46875 261.785156 C 142.226562 261.785156 124.640625 254.789062 115.765625 244.472656 L 115.765625 179.125 C 124.644531 168.832031 142.230469 161.796875 162.472656 161.796875 C 191.671875 161.796875 215.34375 176.40625 215.34375 194.46875 C 215.34375 200.84375 212.390625 206.757812 207.253906 211.800781 C 212.390625 216.84375 215.34375 222.773438 215.34375 229.132812 M 215.34375 105.554688 C 215.34375 123.597656 191.675781 138.1875 162.472656 138.1875 C 142.226562 138.1875 124.644531 131.195312 115.769531 120.894531 L 115.769531 55.527344 C 124.644531 45.210938 142.234375 38.199219 162.476562 38.199219 C 191.675781 38.199219 215.34375 52.839844 215.34375 70.871094 C 215.34375 77.246094 212.394531 83.179688 207.253906 88.199219 C 212.394531 93.222656 215.34375 99.179688 215.34375 105.554688 "/>
</g>
</svg>
