<?xml version="1.0" encoding="UTF-8"?>
<svg xmlns="http://www.w3.org/2000/svg" xmlns:xlink="http://www.w3.org/1999/xlink" width="300px" height="300px" viewBox="0 0 300 300" version="1.1">
<g id="surface1">
<path style=" stroke:none;fill-rule:nonzero;fill:rgb(100%,100%,100%);fill-opacity:1;" d="M 45.910156 25.027344 C 35.0625 33.28125 24.601562 49.652344 23.089844 60.738281 C 22.609375 64.269531 22.359375 67.585938 22.359375 70.664062 C 22.359375 81.78125 25.546875 90.300781 32.507812 98.605469 C 41.214844 108.96875 54.996094 117.503906 72.402344 123.28125 C 88.804688 128.722656 112.417969 136.289062 115.253906 137.09375 C 116.214844 137.378906 117.445312 137.8125 118.796875 138.28125 C 113.371094 141.058594 110.179688 142.71875 107.609375 144.058594 C 93 141.664062 74.625 143.507812 70.347656 144.242188 C 52.972656 147.175781 37.03125 152.765625 25.492188 159.980469 C 13.722656 167.347656 4.875 175.785156 1.890625 182.582031 C -1.441406 190.148438 -0.363281 195.507812 5.089844 198.535156 C 13.113281 203.007812 23.488281 198.4375 26.871094 196.914062 C 33.855469 193.765625 46.722656 188.007812 62.945312 186.269531 C 77.027344 184.777344 95.945312 186.167969 104.660156 190.203125 L 104.660156 201.199219 C 102.539062 202.554688 100.324219 204.027344 100.324219 204.027344 C 98.144531 205.570312 96.960938 207.710938 96.960938 209.9375 C 96.960938 210.960938 97.21875 212.015625 97.746094 213.019531 C 99.195312 215.847656 102.527344 217.039062 102.527344 217.039062 C 130.558594 229.226562 130.558594 229.226562 149.421875 237.460938 C 149.144531 237.53125 148.605469 237.546875 148.394531 237.628906 C 145.898438 238.402344 140.132812 240.980469 140.132812 248.160156 L 140.132812 277.472656 L 164.515625 294.113281 C 169.914062 297.980469 175.15625 298.636719 178.613281 298.46875 C 182.867188 298.28125 186.734375 296.792969 189.476562 294.28125 C 189.476562 294.28125 205.722656 279.382812 215.796875 270.175781 C 223.238281 278.410156 234.984375 291.402344 234.984375 291.402344 C 234.867188 291.238281 235.265625 291.839844 235.265625 291.839844 C 236.625 293.929688 239.460938 298.285156 246.128906 299.507812 C 249.082031 300.058594 253.746094 300.125 259.171875 297.292969 C 266.460938 293.511719 283.414062 284.054688 286.335938 281.996094 L 286.863281 281.59375 C 288.890625 280.1875 291.9375 278.027344 291.9375 274.496094 L 291.9375 246.503906 C 291.9375 243.492188 289.679688 239.691406 284.496094 238.183594 C 280.710938 237.113281 276.375 237.113281 271.230469 240.140625 C 268.910156 241.464844 264.988281 243.492188 259.253906 246.605469 C 255.914062 242.804688 254.144531 240.78125 251.625 237.917969 C 256.558594 233.480469 268.277344 222.917969 274.863281 217.007812 C 275.699219 217.476562 277.410156 218.464844 277.410156 218.464844 L 277.695312 218.597656 C 284.601562 221.878906 289.851562 220.652344 292.386719 219.636719 C 299.214844 216.871094 299.355469 210.730469 299.238281 208.886719 L 299.25 185.417969 L 278.53125 170.066406 C 275.53125 167.671875 271.3125 166.414062 267.011719 166.667969 C 262.621094 166.917969 258.550781 168.710938 256.148438 171.421875 C 255.035156 172.578125 245.179688 181.414062 234.957031 190.507812 L 234.957031 159.785156 C 236.210938 158.867188 237.527344 157.929688 237.527344 157.929688 C 239.390625 156.757812 243.585938 153.054688 243.585938 148.707031 C 243.585938 147.664062 243.363281 146.59375 242.789062 145.503906 C 241.59375 143.246094 238.707031 140.648438 232.371094 139.578125 C 234.015625 135.019531 234.914062 130.339844 235.054688 125.636719 C 235.066406 125.28125 235.078125 124.933594 235.078125 124.5625 C 235.078125 114.300781 231.761719 105.644531 225.195312 98.816406 C 217.441406 90.710938 211.402344 87.984375 203.085938 84.199219 L 200.941406 83.230469 C 191.25 78.808594 140.355469 59.726562 138.195312 58.867188 C 138.023438 58.820312 118.683594 51.992188 118.683594 51.992188 C 105.925781 47.386719 105.035156 44.15625 105.035156 42.414062 L 105.035156 42.097656 C 105.328125 41.042969 108.796875 37.210938 116.085938 37.210938 C 123.539062 37.210938 128.789062 37.359375 138.621094 39.738281 C 154.183594 43.472656 154.640625 47.992188 154.640625 49.664062 C 154.628906 50.082031 154.136719 54.769531 154.136719 54.769531 L 186.535156 70.574219 L 235.105469 26.066406 L 195.671875 7.234375 L 190.441406 10.949219 C 188.699219 12.222656 187.609375 12.925781 186.960938 13.242188 C 186.023438 13.144531 185.085938 13.039062 184.152344 12.925781 L 175.441406 10.558594 C 161.761719 6.597656 138.835938 0 118 0 C 81.550781 0 62.398438 12.371094 45.910156 25.027344 Z M 45.910156 25.027344 "/>
<path style=" stroke:none;fill-rule:nonzero;fill:rgb(0%,0%,0%);fill-opacity:1;" d="M 50.800781 28.410156 C 40.984375 35.859375 31.171875 51.175781 29.8125 61.171875 C 29.382812 64.28125 29.15625 67.40625 29.132812 70.53125 C 29.132812 80.742188 31.988281 88.492188 38.25 95.976562 C 46.230469 105.488281 58.992188 113.339844 75.101562 118.679688 C 92.226562 124.371094 115.183594 131.71875 117.703125 132.4375 C 122.390625 133.808594 129.511719 136.570312 131.390625 138.011719 C 128.953125 139.285156 110.15625 149.027344 108.960938 149.628906 C 96.609375 146.765625 77.183594 148.375 71.671875 149.277344 C 55.371094 152.054688 40.511719 157.25 29.800781 163.945312 C 19.09375 170.625 10.875 178.390625 8.273438 184.269531 C 5.921875 189.59375 6.191406 193.09375 9.046875 194.699219 C 11.8125 196.222656 16.292969 195.570312 22.710938 192.757812 C 29.566406 189.644531 43.832031 183.25 61.570312 181.359375 C 74.730469 179.984375 87.925781 181.054688 97.851562 182.816406 C 97.851562 182.816406 105.496094 184.488281 111.539062 187.402344 L 111.539062 203.636719 C 110.507812 204.308594 105.109375 207.820312 105.109375 207.820312 C 104.203125 208.441406 103.863281 209.296875 103.863281 210.117188 C 103.863281 210.601562 103.984375 211.054688 104.195312 211.457031 C 104.6875 212.394531 105.988281 212.878906 105.988281 212.878906 L 172.832031 241.957031 C 172.832031 241.957031 188.699219 233.316406 191.480469 231.8125 C 192.566406 233.101562 193.953125 234.742188 194.699219 235.664062 C 193.246094 236.917969 176.125 251.871094 174.003906 253.710938 L 159.074219 244.1875 C 155.359375 241.742188 152.449219 242.09375 151.070312 242.527344 C 148.539062 243.347656 147.097656 245.476562 147.097656 248.421875 L 147.097656 275.625 L 169.410156 290.859375 C 172.972656 293.371094 176.042969 293.789062 178.023438 293.707031 C 180.226562 293.605469 182.253906 292.820312 183.707031 291.480469 C 183.707031 291.480469 209.511719 267.804688 216.25 261.644531 L 240.976562 288.953125 L 241.726562 290.003906 C 242.828125 291.730469 244.503906 294.273438 247.902344 294.894531 C 250.035156 295.296875 252.425781 294.828125 254.960938 293.507812 C 262.230469 289.738281 278.960938 280.378906 281.3125 278.691406 L 281.886719 278.285156 C 283.527344 277.113281 284.828125 276.195312 284.828125 274.789062 L 284.828125 246.761719 C 284.828125 245.4375 283.785156 243.765625 281.746094 243.164062 C 280.402344 242.726562 278.183594 242.644531 275.40625 244.570312 C 275.546875 244.46875 261.941406 251.820312 257.335938 254.296875 L 242.839844 237.820312 C 244.367188 236.484375 271.601562 211.90625 273.6875 210.050781 C 275.773438 211.238281 281.605469 214.5 281.605469 214.5 C 284.558594 215.890625 286.976562 216.175781 288.917969 215.371094 C 292.367188 214 292.183594 209.816406 292.160156 209.328125 L 292.160156 187.597656 L 273.207031 173.585938 C 271.683594 172.363281 269.714844 171.777344 267.636719 171.878906 C 265.472656 172.011719 263.421875 172.933594 262.238281 174.273438 C 261.230469 175.414062 246.582031 188.5 236.292969 197.644531 C 233.605469 196.121094 229.8125 195.015625 227.773438 194.53125 L 227.773438 157.816406 C 228.453125 157.316406 232.777344 154.167969 232.777344 154.167969 C 233.503906 153.714844 236.410156 151.324219 236.410156 148.828125 C 236.421875 148.34375 236.296875 147.859375 236.050781 147.40625 C 234.960938 145.316406 231.5625 144.257812 225.984375 144.257812 C 225.886719 144.257812 224.132812 144.378906 222.457031 144.492188 C 226.570312 137.816406 227.765625 130.667969 227.855469 125.609375 C 227.855469 125.273438 227.871094 124.941406 227.871094 124.625 C 227.871094 115.402344 224.976562 107.679688 219.246094 101.703125 C 212.296875 94.457031 207.351562 92.210938 199.179688 88.527344 L 196.980469 87.507812 C 187.535156 83.207031 136.828125 64.171875 134.660156 63.367188 C 134.625 63.351562 115.277344 56.503906 115.277344 56.503906 C 100.042969 50.996094 97.609375 46.207031 97.609375 42.222656 C 97.609375 42.039062 97.609375 41.871094 97.632812 41.6875 C 97.769531 38.40625 104.367188 31.992188 115.851562 31.992188 C 123.820312 31.992188 129.84375 32.179688 140.710938 34.773438 C 154.808594 38.15625 161.648438 43.042969 161.648438 49.738281 C 161.636719 49.773438 161.402344 52.132812 161.402344 52.132812 L 184.910156 63.601562 L 224.664062 27.121094 L 196.464844 13.644531 L 195.375 14.417969 C 189.316406 18.769531 189.070312 18.714844 182.601562 17.792969 C 180.894531 17.546875 177.257812 16.527344 172.617188 15.152344 C 159.402344 11.347656 137.25 4.953125 117.738281 4.953125 C 84.105469 4.953125 66.894531 16.039062 50.804688 28.410156 Z M 110.488281 152.128906 L 135.773438 139.003906 L 135.773438 138.351562 C 135.480469 135.320312 123.375 131.300781 119.109375 129.980469 C 116.6875 129.242188 93.398438 121.828125 76.664062 116.285156 C 61.230469 111.164062 49.039062 103.648438 41.4375 94.625 C 35.902344 87.996094 31.066406 79.40625 33.515625 61.445312 C 34.769531 52.082031 44.304688 37.238281 53.53125 30.222656 C 69.023438 18.296875 85.601562 7.617188 117.738281 7.617188 C 136.535156 7.617188 158.25 13.878906 171.246094 17.628906 C 176.210938 19.070312 179.835938 20.140625 181.886719 20.40625 C 188.996094 21.414062 190.886719 21.230469 196.898438 17.058594 C 198.988281 18.066406 216.539062 26.4375 219.28125 27.757812 C 217.042969 29.800781 186.058594 58.210938 184.089844 60 C 181.734375 58.832031 166.769531 51.550781 165.269531 50.796875 C 165.316406 50.34375 165.351562 49.855469 165.351562 49.855469 C 165.351562 41.871094 157.464844 35.996094 141.867188 32.246094 C 130.496094 29.53125 123.925781 29.332031 115.839844 29.332031 C 101.847656 29.332031 94.109375 37.300781 93.902344 41.566406 C 93.527344 48.484375 99.621094 53.84375 113.597656 58.863281 L 132.972656 65.742188 C 133.453125 65.910156 185.660156 85.515625 194.976562 89.75 L 197.183594 90.753906 C 205.207031 94.417969 209.671875 96.394531 216.191406 103.207031 C 221.648438 108.933594 224.34375 116.46875 224.121094 125.574219 C 224.015625 130.898438 222.84375 138.632812 217.890625 145.378906 L 216.304688 147.539062 L 226.160156 146.90625 C 229.691406 146.90625 232.078125 147.4375 232.558594 148.3125 C 233.167969 149.496094 231.105469 151.691406 230.332031 152.175781 L 223.902344 156.847656 L 224.039062 157.28125 L 224.039062 196.488281 L 225.390625 196.757812 C 228.339844 197.410156 233.578125 198.917969 235.019531 200.324219 L 236.460938 201.746094 L 237.960938 200.359375 C 240.625 198.03125 263.875 177.386719 265.386719 175.683594 C 265.949219 175.046875 266.945312 174.59375 267.941406 174.5625 C 268.84375 174.476562 269.679688 174.777344 270.4375 175.367188 C 270.4375 175.367188 285.824219 186.765625 288.4375 188.691406 L 288.4375 209.714844 C 288.4375 211.003906 288.015625 212.699219 287.070312 213.082031 C 286.492188 213.316406 285.253906 213.027344 283.777344 212.328125 L 273.101562 206.335938 L 238.304688 237.636719 L 256.339844 258.199219 L 277.808594 246.578125 C 279.160156 245.660156 279.957031 245.507812 280.304688 245.609375 C 280.753906 245.726562 281.113281 246.328125 281.113281 246.765625 L 281.113281 274.789062 C 281.113281 275.089844 280.269531 275.707031 279.261719 276.394531 L 278.699219 276.800781 C 276.601562 278.308594 260.382812 287.414062 252.78125 291.347656 C 251.183594 292.1875 249.847656 292.503906 248.816406 292.335938 C 247.128906 292.035156 245.945312 290.210938 245.101562 288.886719 L 244.117188 287.515625 L 216.542969 257.0625 L 180.777344 289.84375 C 180.214844 290.363281 179.242188 290.984375 177.800781 291.066406 C 176.042969 291.152344 174.074219 290.414062 172.046875 288.992188 C 172.046875 288.992188 151.925781 275.246094 150.8125 274.492188 L 150.8125 248.425781 C 150.8125 246.300781 151.714844 245.261719 152.570312 244.980469 C 153.507812 244.695312 155.019531 245.128906 156.578125 246.183594 C 156.613281 246.199219 174.433594 257.550781 174.433594 257.550781 L 199.234375 235.886719 L 192.519531 227.902344 C 192.519531 227.902344 174.402344 237.761719 172.597656 238.75 C 170.5 237.878906 107.828125 210.558594 107.703125 210.523438 C 107.621094 210.398438 107.582031 210.261719 107.582031 210.121094 C 107.582031 209.949219 107.628906 209.769531 107.746094 209.683594 L 115.257812 204.8125 L 115.269531 204.226562 L 115.269531 185.914062 L 114.40625 185.527344 C 109.351562 183.203125 105.261719 181.511719 97.972656 180.207031 C 85.660156 177.960938 71.152344 177.574219 61.046875 178.75 C 42.542969 180.855469 27.804688 187.320312 20.746094 190.5 C 13.953125 193.515625 11.820312 192.859375 11.324219 192.574219 C 10.292969 192.007812 9.789062 189.699219 11.828125 185.074219 C 14.175781 179.734375 22.203125 172.203125 32.253906 165.9375 C 42.53125 159.527344 56.828125 154.539062 72.53125 151.878906 C 78.707031 150.839844 97.894531 149.5 108.757812 152.296875 L 109.691406 152.546875 L 110.492188 152.128906 Z M 110.488281 152.128906 "/>
<path style=" stroke:none;fill-rule:nonzero;fill:rgb(0%,0%,0%);fill-opacity:1;" d="M 285.40625 209.816406 L 285.40625 189.878906 L 267.972656 178.695312 L 219.679688 221.519531 L 212.90625 213.800781 C 218.78125 210.667969 226.351562 206.617188 227.195312 206.332031 C 228.601562 205.832031 232.082031 204.324219 233.816406 204.324219 C 235.398438 204.324219 231.390625 199.351562 219.882812 199.351562 L 219.882812 155.289062 L 226.503906 150.03125 C 226.503906 150.03125 218.453125 150.953125 214.65625 150.148438 C 213.84375 149.949219 212.472656 149.496094 210.832031 148.878906 C 213.195312 146.214844 215.066406 143.34375 216.402344 140.339844 C 224.320312 122.496094 219.140625 106.019531 200.367188 95.859375 C 187.199219 88.746094 133.105469 69.191406 133.105469 69.191406 C 133.105469 69.191406 100.371094 57.742188 96.84375 55.195312 C 94.3125 53.40625 89.167969 50.609375 89.167969 41.753906 C 89.167969 36.480469 97.398438 30.6875 100.945312 29.496094 C 106.597656 27.574219 108.433594 26.667969 119.945312 26.535156 C 126.4375 26.484375 132.449219 27.589844 133.269531 27.65625 C 140.398438 28.191406 157.328125 32.175781 166.023438 40.597656 C 169.386719 42.972656 170.042969 49.988281 170.042969 49.988281 L 183.625 56.199219 L 213.257812 28.558594 L 197.226562 20.847656 C 192.6875 24.359375 183.996094 24.574219 180.480469 23.339844 C 177 22.082031 147.097656 14.296875 142.851562 13.34375 C 134.835938 11.5 117.414062 10.144531 108 11.148438 C 98.59375 12.121094 83.144531 14.179688 71.039062 23.339844 C 56.929688 34.050781 56.753906 42.625 56.753906 47.242188 C 56.753906 54.457031 59.371094 63.984375 70.710938 72.085938 C 87.011719 83.738281 111.832031 91.054688 117.410156 93.230469 C 127.316406 97.164062 158.558594 108.847656 163.070312 110.707031 C 182.253906 118.679688 189.566406 127.148438 187.46875 137.859375 C 187.378906 138.378906 187.132812 138.882812 186.980469 139.371094 C 178.578125 135.871094 166.765625 130.546875 162.003906 127.148438 C 162.003906 127.148438 159.160156 129.324219 157.328125 130.625 L 143.410156 138.097656 C 145.046875 133.257812 145.234375 124.988281 144.945312 124.167969 C 144.605469 123.164062 143.546875 115.195312 133.800781 110.238281 C 127.175781 106.855469 112.367188 100.511719 99.636719 96.042969 C 94.179688 94.117188 76.402344 86.433594 67.925781 81.378906 C 67.925781 81.378906 53.269531 71.636719 51.019531 65.65625 C 46.660156 58.8125 46.484375 42.625 48.734375 41 C 48.734375 41 43.167969 45.488281 39.351562 54.460938 C 37.460938 58.832031 36.207031 64.539062 36.207031 68.40625 C 36.207031 74.867188 37.789062 86.199219 47.691406 95.792969 C 52.074219 100.007812 58.949219 104.816406 66.214844 108.246094 C 75.109375 112.414062 84.054688 114.875 84.636719 115.195312 C 87.085938 116.449219 110.101562 123.378906 112.179688 124.132812 C 114.273438 124.871094 124.832031 128.402344 127.070312 129.242188 C 135.003906 132.285156 139.082031 134.214844 141.601562 139.066406 L 117.742188 151.808594 C 117.742188 151.808594 118.796875 153.160156 118.796875 155.285156 L 118.796875 156.914062 C 115.585938 156.144531 112.304688 155.476562 109.046875 155.070312 C 93.367188 153.160156 83.816406 153.261719 71.40625 155.472656 C 57.628906 157.898438 43.167969 161.867188 29.574219 171.574219 C 14.238281 182.5625 14.398438 189.878906 14.398438 189.878906 L 29.742188 183.433594 C 42.5625 178.277344 59.449219 175.210938 71.402344 175.210938 C 99.894531 175.210938 114.683594 181.070312 118.796875 184.351562 L 118.796875 204.089844 C 118.796875 208.007812 117.15625 208.507812 115.925781 209.246094 C 115.46875 209.53125 115.046875 209.566406 113.40625 210.367188 C 113.40625 210.367188 115.492188 210.921875 116.007812 211.304688 C 117.414062 212.042969 171.675781 235.464844 171.675781 235.464844 L 192.683594 224.449219 L 203.066406 236.25 L 174.214844 261.84375 L 154.367188 248.90625 L 154.367188 273.046875 L 177.003906 287.996094 L 217.011719 252.121094 L 249.871094 289.488281 L 276.355469 274.304688 L 276.355469 250.414062 L 255.085938 261.851562 L 233.523438 237.308594 L 272.511719 202.351562 L 285.414062 209.816406 Z M 150 156.042969 L 162.375 149.566406 C 165.738281 151.542969 169.691406 153.382812 173.636719 155.003906 C 173.367188 155.15625 173.179688 155.289062 173.179688 155.289062 C 173.179688 155.289062 158.902344 163.996094 149.996094 164.914062 L 149.996094 156.046875 Z M 171.671875 212.796875 L 150 203.339844 L 150 179.902344 C 159.070312 178.746094 181.230469 171.210938 192.695312 163.027344 C 192.84375 164.550781 192.789062 180.222656 192.738281 190.832031 L 179.449219 175.683594 L 159.179688 185.996094 L 159.179688 204.414062 L 170.394531 199.105469 L 178.785156 208.664062 L 171.671875 212.792969 Z M 171.671875 212.796875 "/>
</g>
</svg>
