<?xml version="1.0" encoding="UTF-8"?>
<svg xmlns="http://www.w3.org/2000/svg" xmlns:xlink="http://www.w3.org/1999/xlink" width="300px" height="300px" viewBox="0 0 300 300" version="1.1">
<g id="surface1">
<path style=" stroke:none;fill-rule:nonzero;fill:rgb(100%,100%,100%);fill-opacity:1;" d="M 195.382812 189.371094 L 195.382812 229.4375 C 179.464844 233.03125 163.359375 236.105469 146.335938 238.664062 C 130.476562 235.507812 115.171875 232.109375 100.414062 228.355469 C 100.355469 176.148438 101.273438 123.902344 102.742188 71.699219 C 117.867188 67.582031 134.460938 63.429688 148.726562 60.355469 C 164.09375 63.472656 178.421875 66.824219 193.117188 70.460938 C 193.730469 79.925781 193.421875 93.984375 193.054688 117.632812 C 207.6875 119.429688 238.917969 117.871094 273.757812 114.796875 C 275.347656 107.046875 277.304688 99.296875 279.265625 91.589844 C 286.367188 63.710938 293.101562 36.347656 299.042969 10.824219 C 268.183594 7.707031 234.570312 5.910156 217.976562 7.46875 L 211.609375 18.613281 C 191.464844 12.0625 170.890625 5.832031 148.726562 0 C 97.71875 12.902344 51.003906 26.839844 3.546875 42.859375 C 12.671875 72.019531 16.222656 94.984375 16.222656 133.449219 C 16.222656 189.453125 10.28125 232.3125 -0.00390625 260.429688 C 48.246094 275.410156 94.964844 288.3125 145.601562 299.65625 C 193.480469 288.832031 241.363281 276.929688 295.917969 259.910156 C 291.203125 240.058594 281.285156 206.226562 273.753906 185.058594 C 248.34375 185.496094 222.257812 187.054688 195.382812 189.371094 "/>
<path style=" stroke:none;fill-rule:nonzero;fill:rgb(80.784314%,5.490196%,17.647059%);fill-opacity:1;" d="M 208.789062 197.121094 L 208.789062 235.707031 C 188.585938 240.5 167.890625 244.65625 145.480469 247.730469 C 125.519531 243.734375 105.804688 239.378906 86.882812 234.308594 C 86.699219 178.226562 87.679688 121.945312 89.332031 65.867188 C 108.128906 60.515625 130.539062 54.960938 148.234375 51.046875 C 168.566406 55 186.871094 59.4375 205.730469 64.230469 C 207.015625 73.496094 206.832031 86.714844 206.339844 109.644531 C 220.179688 109.886719 239.589844 108.847656 261.691406 107.046875 C 269.222656 76.609375 276.757812 46.414062 283.429688 18.253906 C 262.058594 16.457031 241.488281 15.417969 227.21875 15.65625 L 218.648438 30.796875 C 195.929688 23.167969 173.097656 16.136719 148.480469 9.464844 C 102.988281 21.089844 61.046875 33.472656 18.308594 47.652344 C 26.207031 74.253906 29.390625 97.460938 29.390625 133.332031 C 29.390625 185.457031 24.246094 226.757812 15.125 255.398438 C 58.230469 268.539062 100.171875 279.921875 145.296875 290.230469 C 191.585938 279.644531 237.078125 268.300781 280.183594 254.878906 C 277.796875 243.015625 269.898438 214.894531 262.796875 193.964844 C 245.222656 194.523438 227.402344 195.5625 208.789062 197.121094 "/>
</g>
</svg>
