<?xml version="1.0" encoding="UTF-8"?>
<svg xmlns="http://www.w3.org/2000/svg" xmlns:xlink="http://www.w3.org/1999/xlink" width="300px" height="300px" viewBox="0 0 300 300" version="1.1">
<defs>
<clipPath id="clip1">
  <path d="M 0 0 L 0 299.601562 L 339.855469 299.601562 L 339.855469 275.710938 C 338.824219 275.855469 337.796875 276.007812 336.761719 276.128906 C 336.566406 276.152344 336.367188 276.109375 336.167969 276.117188 C 335.015625 276.148438 333.863281 276.191406 332.714844 276.246094 C 331.003906 276.328125 329.296875 276.441406 327.585938 276.527344 C 325.527344 276.636719 323.054688 277.679688 321.402344 276.828125 C 320.179688 276.199219 319.109375 275.464844 318.117188 274.671875 C 317.53125 274.789062 316.949219 274.921875 316.363281 275.03125 C 314.792969 275.324219 313.21875 275.617188 311.644531 275.886719 C 310.394531 276.101562 309.140625 276.292969 307.886719 276.488281 C 306.867188 276.644531 305.828125 276.738281 304.828125 276.941406 C 304.214844 277.066406 303.660156 277.289062 303.078125 277.464844 C 302.113281 277.710938 301.15625 277.976562 300.179688 278.203125 C 299.011719 278.472656 296.089844 278.945312 295.175781 279.066406 C 295.128906 279.070312 295.121094 279.011719 295.109375 278.980469 L 294.699219 277.644531 C 294.652344 278.230469 294.585938 278.816406 294.5625 279.398438 C 291.109375 279.523438 289.292969 279.671875 288.390625 279.15625 C 287.582031 279.140625 286.773438 279.105469 285.96875 279.105469 C 283.199219 279.089844 280.429688 279.121094 277.660156 279.171875 C 267.1875 279.375 270.703125 279.085938 262.71875 280.191406 C 249.363281 280.238281 244.789062 282.707031 250.855469 266.59375 C 251.183594 265.722656 252.425781 265.382812 253.875 265.179688 C 255.648438 264.007812 258.070312 262.960938 261.234375 262.164062 C 261.375 261.835938 261.53125 261.511719 261.71875 261.191406 C 258.613281 257.582031 262.191406 254.910156 264.84375 252.566406 C 265.710938 250.902344 267.390625 249.65625 270.410156 249.589844 C 270.492188 249.46875 270.5625 249.367188 270.644531 249.238281 C 270.921875 248.804688 271.945312 249.089844 272.691406 249.125 C 273.1875 248.808594 273.640625 248.453125 274.1875 248.1875 C 278.398438 246.128906 277.605469 246.453125 281.148438 245.644531 C 281.765625 245.570312 282.382812 245.492188 282.996094 245.414062 C 286.867188 244.203125 291.113281 243.574219 295.117188 242.640625 C 296.574219 242.515625 298.015625 242.335938 299.480469 242.257812 C 300.273438 242.21875 301.074219 242.277344 301.871094 242.289062 C 304.398438 242.324219 306.921875 242.363281 309.449219 242.390625 C 309.960938 242.117188 310.464844 241.832031 310.996094 241.574219 C 311.539062 241.308594 312.324219 241.625 312.988281 241.65625 C 314.125 241.710938 315.507812 241.792969 316.636719 242.035156 C 321.042969 241.113281 325.621094 240.664062 330.171875 240.203125 C 330.902344 240.785156 331.734375 241.328125 332.589844 241.867188 C 333.066406 241.949219 333.640625 242.308594 334.113281 242.445312 C 334.203125 242.472656 334.355469 242.523438 334.449219 242.550781 C 335.230469 242.5625 336.015625 242.558594 336.796875 242.570312 L 339.855469 242.664062 L 339.855469 0 Z M 270.410156 249.589844 L 270.292969 249.769531 C 270.519531 249.703125 270.75 249.644531 270.984375 249.597656 C 270.789062 249.59375 270.59375 249.585938 270.410156 249.589844 Z M 270.292969 249.769531 C 270.15625 249.808594 270.011719 249.84375 269.886719 249.902344 C 268.253906 250.636719 266.742188 251.488281 265.167969 252.28125 L 264.84375 252.566406 C 264 254.191406 263.933594 256.214844 264.191406 257.953125 C 264.375 257.753906 264.574219 257.582031 264.761719 257.390625 C 265.996094 255.8125 267.851562 253.519531 270.292969 249.769531 Z M 322.996094 241.636719 C 322.394531 241.640625 321.71875 241.988281 321.035156 242.511719 C 321.164062 242.511719 321.296875 242.511719 321.425781 242.507812 C 321.574219 242.488281 321.722656 242.464844 321.875 242.445312 C 322.476562 242.363281 323.089844 242.335938 323.703125 242.304688 C 323.746094 242.261719 323.777344 242.210938 323.820312 242.167969 C 323.859375 242.128906 323.960938 242.074219 324.023438 242.03125 C 323.71875 241.753906 323.371094 241.632812 322.996094 241.636719 Z M 274.265625 250.085938 C 274.25 250.085938 274.210938 250.085938 274.226562 250.089844 L 274.394531 250.121094 Z M 274.265625 250.085938 "/>
</clipPath>
</defs>
<g id="surface1">
<g clip-path="url(#clip1)" clip-rule="nonzero">
<path style=" stroke:none;fill-rule:nonzero;fill:rgb(100%,100%,100%);fill-opacity:1;" d="M 280.179688 200.550781 L 280.179688 81.203125 C 281.214844 71.03125 284.949219 67.75 295.695312 60.84375 C 271.695312 54.644531 244.136719 35.375 229.339844 14.988281 C 155.148438 41.179688 72.527344 41.179688 10.070312 3.351562 C 3.84375 -0.398438 -3.199219 -2.320312 1.566406 4.816406 C 19.230469 31.144531 55.878906 47.523438 97.042969 54.796875 C 73.351562 68.898438 59.386719 77.234375 56.269531 95.101562 C 36.023438 96.125 14.285156 106.324219 7.421875 115.769531 C -0.425781 126.546875 11.191406 126.769531 19.054688 123.050781 C 29.105469 118.335938 43.425781 116.515625 55.597656 116.871094 L 55.597656 130.386719 C 35.316406 131.421875 15.355469 141.617188 8.488281 151.066406 C 0.644531 161.84375 12.261719 162.082031 20.125 158.335938 C 30.171875 153.628906 43.429688 151.066406 55.597656 151.433594 L 55.597656 192.179688 C 55.597656 208.203125 43.96875 216.207031 37.097656 220.585938 C 30.175781 224.933594 34 229.488281 43.96875 226.753906 C 64.917969 221.019531 86.699219 207.347656 91.636719 186.566406 C 99.613281 187.289062 109.21875 187.375 115.980469 186.605469 L 115.980469 192.179688 C 115.980469 208.199219 104.34375 216.207031 97.441406 220.582031 C 97.332031 220.640625 97.242188 220.714844 97.179688 220.796875 C 74.917969 222.128906 54.957031 227.285156 39.09375 235.757812 C 2.902344 255.132812 -2.683594 291.515625 2.902344 299.597656 C 3.253906 300.109375 23.289062 254.609375 82.707031 249.769531 C 117.117188 246.984375 159.386719 254.082031 195.433594 275.519531 C 217.667969 250.050781 255.296875 235.496094 299.257812 230.347656 C 284.417969 218.726562 280.675781 213.640625 280.179688 200.550781 Z M 232.480469 66.648438 L 232.480469 102.410156 C 208.734375 107.320312 174.4375 107.164062 153.046875 101.886719 L 153.046875 97.226562 C 153.046875 84.59375 154.617188 68.53125 169.769531 58.421875 C 184.253906 57.324219 198.3125 55.273438 211.296875 52.117188 Z M 153.050781 114.269531 C 174.433594 119.511719 208.734375 119.707031 232.480469 114.78125 L 232.480469 149.539062 C 208.730469 144.617188 174.433594 144.785156 153.046875 150.066406 L 153.046875 114.269531 Z M 151.625 59.207031 C 140.492188 65.894531 130.917969 72.113281 124.519531 79.3125 C 116.050781 77.417969 108.257812 76.257812 100.679688 75.964844 C 105.601562 69.21875 112.597656 62.898438 121.03125 58.035156 C 131.1875 58.925781 141.453125 59.308594 151.625 59.207031 Z M 92.691406 176.257812 L 92.691406 97.226562 C 92.691406 93.75 93.488281 90.066406 94.945312 86.339844 C 103.328125 85.691406 111.667969 86.289062 118.820312 88.015625 C 117.117188 91.730469 116.082031 95.703125 116.125 100.1875 L 115.976562 175.792969 C 110.035156 176.671875 100.871094 176.792969 92.6875 176.257812 Z M 183.761719 233.3125 C 160.753906 225.523438 138.109375 221.464844 116.941406 220.609375 C 135.941406 211.84375 153.050781 196.371094 153.050781 175.824219 L 153.050781 162.445312 C 174.441406 157.152344 208.734375 156.96875 232.488281 161.90625 L 232.488281 213.644531 C 217.667969 216.574219 199.664062 223.859375 183.765625 233.308594 Z M 183.761719 233.3125 "/>
</g>
</g>
</svg>
