<?xml version="1.0" encoding="UTF-8"?>
<svg xmlns="http://www.w3.org/2000/svg" xmlns:xlink="http://www.w3.org/1999/xlink" width="300px" height="300px" viewBox="0 0 300 300" version="1.1">
<g id="surface1">
<path style=" stroke:none;fill-rule:nonzero;fill:rgb(92.156863%,43.137255%,12.156863%);fill-opacity:1;" d="M 85.320312 122.300781 L 64.851562 114.605469 L 0 114.605469 L 85.320312 179.671875 M 139.078125 87.34375 L 139.078125 114.605469 L 118.59375 122.300781 L 118.59375 155.308594 L 181.910156 155.308594 L 181.910156 122.300781 L 161.425781 114.605469 L 161.425781 87.34375 L 177.296875 87.34375 L 150.253906 0 L 123.226562 87.34375 M 235.660156 114.605469 L 215.195312 122.300781 L 215.195312 179.671875 L 300.527344 114.605469 M 85.320312 223.273438 L 80.59375 225.070312 Z M 188.3125 258.195312 L 243.132812 300 L 230.179688 258.195312 M 70.324219 258.195312 L 57.390625 300 L 112.199219 258.195312 M 161.425781 230.988281 L 181.910156 223.273438 L 181.910156 190.230469 L 118.59375 190.230469 L 118.59375 223.273438 L 139.078125 230.992188 L 139.078125 237.71875 L 150.253906 229.171875 L 161.425781 237.71875 "/>
<path style=" stroke:none;fill-rule:nonzero;fill:rgb(95.686275%,56.862745%,11.764706%);fill-opacity:1;" d="M 235.660156 114.605469 L 215.195312 122.300781 L 215.195312 123.074219 L 275.65625 123.074219 L 300.527344 114.605469 M 139.078125 87.34375 L 139.078125 114.605469 L 118.59375 122.300781 L 118.59375 155.308594 L 150.25 155.308594 L 150.25 0 L 123.226562 87.34375 M 118.589844 190.230469 L 118.589844 211.09375 L 132.960938 190.230469 M 85.320312 223.273438 L 80.59375 225.070312 Z M 70.324219 258.195312 L 57.390625 300 L 86.175781 258.195312 M 85.320312 122.300781 L 64.851562 114.605469 L 0 114.605469 L 85.320312 179.671875 "/>
<path style=" stroke:none;fill-rule:nonzero;fill:rgb(92.156863%,43.137255%,12.156863%);fill-opacity:1;" d="M 85.320312 169.171875 L 24.871094 123.074219 L 0 114.605469 L 85.320312 179.671875 "/>
<path style=" stroke:none;fill-rule:nonzero;fill:rgb(100%,100%,100%);fill-opacity:1;" d="M 235.660156 114.605469 L 235.660156 87.34375 L 161.425781 87.34375 L 161.425781 114.605469 L 181.910156 122.300781 L 181.910156 155.308594 L 118.59375 155.308594 L 118.59375 122.300781 L 139.078125 114.605469 L 139.078125 87.34375 L 64.851562 87.34375 L 64.851562 114.605469 L 85.320312 122.300781 L 85.320312 223.273438 L 64.851562 230.992188 L 64.851562 258.195312 L 139.078125 258.195312 L 139.078125 230.988281 L 118.59375 223.273438 L 118.59375 190.230469 L 181.914062 190.230469 L 181.914062 223.273438 L 161.429688 230.992188 L 161.429688 258.195312 L 235.664062 258.195312 L 235.664062 230.988281 L 215.195312 223.273438 L 215.195312 122.300781 "/>
<path style=" stroke:none;fill-rule:nonzero;fill:rgb(90.588235%,91.372549%,91.764706%);fill-opacity:1;" d="M 229.054688 94.300781 L 229.054688 109.710938 L 208.578125 117.410156 L 208.578125 228.148438 L 215.195312 223.273438 L 215.195312 122.320312 L 235.660156 114.605469 L 235.660156 87.34375 M 229.054688 251.253906 L 168.039062 251.253906 L 161.425781 258.195312 L 235.660156 258.195312 L 235.660156 230.988281 L 229.054688 235.859375 M 118.589844 190.230469 L 181.914062 190.230469 L 188.515625 183.304688 L 111.984375 183.304688 L 111.984375 228.148438 L 118.589844 223.273438 M 132.464844 251.253906 L 71.4375 251.253906 L 64.851562 258.195312 L 139.078125 258.195312 L 139.078125 230.988281 L 132.464844 235.859375 M 91.929688 117.410156 L 71.4375 109.710938 L 64.851562 114.605469 L 85.320312 122.300781 M 188.515625 117.410156 L 168.039062 109.710938 L 161.425781 114.605469 L 181.910156 122.300781 M 118.589844 122.300781 L 139.078125 114.605469 L 139.078125 87.363281 L 132.464844 94.300781 L 132.464844 109.710938 L 111.984375 117.410156 L 111.984375 162.265625 L 118.589844 155.308594 "/>
</g>
</svg>
