<?xml version="1.0" encoding="UTF-8"?>
<svg xmlns="http://www.w3.org/2000/svg" xmlns:xlink="http://www.w3.org/1999/xlink" width="300px" height="300px" viewBox="0 0 300 300" version="1.1">
<g id="surface1">
<path style=" stroke:none;fill-rule:nonzero;fill:rgb(100%,100%,100%);fill-opacity:1;" d="M 28.683594 38.835938 C 28.683594 17.75 15.578125 10.972656 3.832031 11.128906 L 0 10.972656 L 0 0.0429688 L 76.554688 0.0429688 L 76.566406 11.175781 C 65.59375 12.070312 54.378906 19.304688 54.378906 38.835938 L 54.378906 104.523438 L 59.6875 101.304688 C 70.71875 84.449219 99.667969 39.757812 105.691406 26.851562 C 113.105469 11.035156 101.773438 11.035156 90.902344 11.035156 L 90.902344 0 L 158.761719 0 L 158.761719 11.035156 L 153.984375 11.035156 C 146.601562 11.035156 137.46875 11.035156 125.273438 27.324219 C 109.683594 48.203125 78.71875 98.796875 78.71875 98.796875 C 126.140625 102.652344 143.980469 173.183594 156.160156 182.753906 C 149.195312 132.367188 183.589844 69.535156 234.046875 71.972656 C 239.691406 72.222656 246.648438 71.453125 262.75 76.253906 C 278.855469 81.046875 280.328125 72.441406 282.484375 62.824219 L 294.527344 62.824219 L 294.527344 145.839844 L 284.109375 145.839844 C 283.246094 131.464844 276.671875 83.914062 234.179688 82.46875 C 190.984375 81.050781 182.855469 135.25 182.269531 172.238281 C 180.105469 308.925781 267.980469 304.625 284.078125 260.472656 C 286.429688 254.097656 285.402344 252.273438 282.761719 250.878906 C 263.613281 240.828125 285.816406 213.9375 298.113281 237.449219 C 303.757812 248.242188 293.660156 299.355469 240.988281 299.355469 C 159.21875 299.355469 135.285156 175.546875 104.839844 135.25 C 81.117188 103.871094 61.769531 117.996094 54.492188 125.671875 L 54.171875 147.234375 L 54.367188 185.644531 C 54.367188 206.753906 67.460938 213.53125 79.230469 213.394531 L 83.0625 213.527344 L 83.0625 224.410156 L 0 224.410156 L 0 213.527344 L 3.835938 213.394531 C 15.578125 213.527344 28.6875 206.746094 28.6875 185.640625 L 28.6875 38.835938 "/>
</g>
</svg>
