<?xml version="1.0" encoding="UTF-8"?>
<svg xmlns="http://www.w3.org/2000/svg" xmlns:xlink="http://www.w3.org/1999/xlink" width="300px" height="300px" viewBox="0 0 300 300" version="1.1">
<g id="surface1">
<path style=" stroke:none;fill-rule:nonzero;fill:rgb(100%,100%,100%);fill-opacity:1;" d="M 177.183594 300.363281 L 300.398438 300.363281 C 289 294.976562 278.957031 285.558594 274.46875 274.824219 L 240.03125 192.691406 C 236.292969 183.855469 242.363281 175.023438 252.0625 169.039062 C 238.3125 166.117188 226.136719 159.464844 222.261719 150.332031 L 202.996094 104.363281 C 230.417969 98.007812 248.300781 86.710938 248.300781 73.597656 C 248.300781 56.476562 217.765625 42.445312 175.320312 38.4375 L 159.214844 0 L 141.15625 0 L 125.042969 38.4375 C 82.578125 42.445312 52.011719 56.476562 52.011719 73.597656 C 52.011719 86.710938 69.921875 98.007812 97.371094 104.363281 L 78.078125 150.332031 C 74.289062 159.464844 62.054688 166.117188 48.3125 169.039062 C 57.976562 175.023438 64.070312 183.855469 60.371094 192.691406 L 25.910156 274.824219 C 21.363281 285.5625 11.363281 294.976562 0 300.363281 L 123.203125 300.363281 C 113.125 294.972656 107.628906 285.558594 112.136719 274.820312 L 115.160156 267.640625 L 185.226562 267.640625 L 188.230469 274.820312 C 192.753906 285.558594 187.242188 294.972656 177.1875 300.359375 Z M 139.582031 209.496094 L 150.210938 184.097656 L 160.824219 209.496094 Z M 139.582031 209.496094 "/>
<path style=" stroke:none;fill-rule:nonzero;fill:rgb(0%,19.607843%,38.823529%);fill-opacity:1;" d="M 279.652344 294.535156 C 273.800781 289.183594 269.101562 282.972656 266.367188 276.460938 L 232.171875 194.910156 C 226.726562 181.953125 236.769531 172.765625 238.085938 171.289062 C 226.191406 166.820312 217.492188 160.007812 214.199219 151.964844 L 193.359375 102.320312 C 222.738281 96.878906 242.746094 86.074219 242.746094 73.597656 C 242.746094 57.8125 210.546875 44.628906 167.953125 41.707031 L 152.914062 5.828125 L 147.46875 5.828125 L 132.433594 41.710938 C 89.789062 44.628906 57.59375 57.816406 57.59375 73.597656 C 57.59375 86.078125 77.644531 96.882812 107.003906 102.320312 L 86.183594 151.96875 C 82.816406 160.011719 74.171875 166.820312 62.25 171.292969 C 63.589844 172.769531 73.648438 181.957031 68.203125 194.910156 L 33.992188 276.460938 C 31.257812 282.972656 26.574219 289.1875 20.683594 294.535156 L 105.992188 294.535156 C 99.089844 283.957031 102.722656 276.269531 105.808594 269.019531 L 108.839844 261.800781 L 191.519531 261.800781 L 194.589844 269.019531 C 197.613281 276.269531 201.226562 283.960938 194.34375 294.535156 Z M 128.273438 215.355469 L 150.203125 163.175781 L 172.066406 215.355469 Z M 128.273438 215.355469 "/>
<path style=" stroke:none;fill-rule:nonzero;fill:rgb(72.941176%,0%,12.941176%);fill-opacity:1;" d="M 172.851562 86.359375 L 161.898438 60.15625 L 164.050781 65.382812 C 159.566406 65.222656 154.929688 65.101562 150.210938 65.101562 L 150.210938 82.097656 L 215.90625 238.589844 L 231.027344 274.492188 L 256.980469 285.296875 C 255.15625 282.550781 253.550781 279.75 252.316406 276.867188 L 219.601562 199.078125 C 214.441406 186.933594 217.269531 181.671875 221.011719 174.351562 C 211.191406 169.125 204.628906 162.296875 201.453125 154.605469 L 176.636719 95.367188 L 176.601562 95.382812 Z M 157.910156 50.597656 L 150.203125 32.277344 L 150.203125 50.492188 C 152.804688 50.492188 155.335938 50.527344 157.910156 50.597656 Z M 68.953125 275.445312 L 89.941406 285.296875 C 88.851562 280.390625 89.878906 273.949219 91.917969 269.355469 L 98.851562 252.601562 L 84.433594 238.589844 L 68.957031 275.441406 Z M 68.953125 275.445312 "/>
<path style=" stroke:none;fill-rule:nonzero;fill:rgb(72.941176%,0%,12.941176%);fill-opacity:1;" d="M 110.585938 224.5625 L 150.207031 130.300781 L 150.207031 82.101562 L 84.433594 238.589844 L 215.910156 238.589844 L 189.714844 224.5625 "/>
<path style=" stroke:none;fill-rule:nonzero;fill:rgb(52.54902%,14.901961%,20%);fill-opacity:1;" d="M 150.203125 130.300781 L 189.710938 224.5625 L 215.90625 238.589844 L 150.207031 82.097656 "/>
<path style=" stroke:none;fill-rule:nonzero;fill:rgb(52.54902%,14.901961%,20%);fill-opacity:1;" d="M 256.980469 285.296875 L 231.027344 274.492188 L 215.910156 238.589844 L 84.433594 238.589844 L 150.203125 82.097656 L 150.203125 65.097656 C 154.933594 65.097656 159.566406 65.21875 164.050781 65.375 L 161.898438 60.148438 C 161.3125 60.148438 160.707031 60.132812 160.125 60.097656 C 156.820312 59.980469 153.515625 59.917969 150.207031 59.90625 C 146.222656 59.90625 142.296875 60.011719 138.480469 60.152344 L 127.488281 86.355469 L 127.527344 86.355469 L 123.742188 95.382812 L 123.703125 95.382812 L 98.84375 154.605469 C 95.675781 162.296875 89.210938 169.125 79.363281 174.351562 C 83.0625 181.671875 85.886719 186.9375 80.757812 199.078125 L 48.046875 276.867188 C 46.808594 279.765625 45.226562 282.582031 43.316406 285.296875 L 89.941406 285.296875 L 68.953125 275.445312 L 84.433594 238.589844 L 98.847656 252.597656 L 201.453125 252.597656 L 208.535156 269.351562 C 210.433594 273.941406 211.488281 280.386719 210.433594 285.292969 L 256.980469 285.292969 Z M 150.203125 32.277344 L 142.523438 50.597656 C 145.085938 50.527344 147.648438 50.492188 150.210938 50.492188 L 150.210938 32.277344 Z M 150.203125 32.277344 "/>
<path style=" stroke:none;fill-rule:nonzero;fill:rgb(76.862745%,80.784314%,83.137255%);fill-opacity:1;" d="M 127.523438 86.359375 L 127.484375 86.359375 C 103.683594 84.40625 86.785156 79.40625 86.785156 73.601562 C 86.785156 66.910156 109.042969 61.347656 138.476562 60.152344 C 142.382812 60 146.292969 59.917969 150.203125 59.90625 C 153.511719 59.917969 156.820312 59.984375 160.121094 60.101562 C 160.707031 60.140625 161.3125 60.15625 161.894531 60.15625 C 191.296875 61.335938 213.613281 66.898438 213.613281 73.601562 C 213.613281 79.410156 196.648438 84.410156 172.871094 86.359375 L 172.851562 86.359375 L 176.601562 95.390625 L 176.632812 95.375 C 207.277344 92.207031 229.300781 83.671875 229.300781 73.605469 C 229.300781 61.621094 197.925781 51.746094 157.902344 50.601562 C 152.773438 50.460938 147.640625 50.460938 142.511719 50.601562 C 102.378906 51.746094 71.078125 61.617188 71.078125 73.605469 C 71.078125 83.671875 93.050781 92.203125 123.691406 95.390625 L 123.730469 95.390625 L 127.519531 86.367188 L 127.519531 86.359375 Z M 127.523438 86.359375 "/>
</g>
</svg>
