<?xml version="1.0" encoding="UTF-8"?>
<svg xmlns="http://www.w3.org/2000/svg" xmlns:xlink="http://www.w3.org/1999/xlink" width="300px" height="300px" viewBox="0 0 300 300" version="1.1">
<g id="surface1">
<path style=" stroke:none;fill-rule:nonzero;fill:rgb(3.529412%,12.156863%,25.098039%);fill-opacity:1;" d="M 163.652344 251.539062 C 156.496094 251.539062 149.527344 251.15625 142.9375 250.386719 C 142.183594 266.894531 138.230469 282.828125 132.578125 299.71875 L 192.84375 299.71875 C 187.195312 282.828125 183.238281 267.085938 182.484375 250.578125 C 176.269531 251.15625 170.054688 251.539062 163.652344 251.539062 "/>
<path style=" stroke:none;fill-rule:nonzero;fill:rgb(89.019608%,11.764706%,20.392157%);fill-opacity:1;" d="M 182.296875 217.179688 C 176.269531 217.949219 169.867188 218.523438 163.277344 218.523438 C 156.308594 218.523438 149.527344 218.140625 143.316406 217.179688 C 123.164062 214.300781 106.78125 207.390625 95.480469 198.179688 C 83.425781 188.390625 75.707031 175.527344 75.707031 161.324219 C 75.707031 147.121094 83.238281 134.261719 95.480469 124.472656 C 106.96875 115.257812 123.351562 108.15625 143.503906 105.46875 L 143.503906 72.070312 C 105.273438 76.101562 77.210938 92.03125 49.90625 119.863281 C 38.605469 131.382812 25.613281 146.738281 10.167969 161.515625 C 25.613281 176.105469 38.605469 191.652344 49.90625 203.167969 C 77.023438 230.808594 105.085938 246.742188 143.125 250.964844 C 149.71875 251.730469 156.683594 252.113281 163.84375 252.113281 C 170.246094 252.113281 176.648438 251.730469 182.675781 251.15625 C 239.546875 245.78125 279.472656 216.222656 290.207031 179.367188 L 247.269531 179.175781 C 236.535156 198.179688 213.746094 212.957031 182.296875 217.179688 "/>
<path style=" stroke:none;fill-rule:nonzero;fill:rgb(89.019608%,11.764706%,20.392157%);fill-opacity:1;" d="M 182.296875 104.894531 C 213.746094 109.117188 236.722656 123.894531 247.082031 143.472656 L 290.019531 143.28125 C 279.097656 106.238281 239.171875 76.675781 182.109375 71.496094 C 182.296875 82.433594 182.296875 93.566406 182.296875 104.894531 "/>
<path style=" stroke:none;fill-rule:nonzero;fill:rgb(3.529412%,12.156863%,25.098039%);fill-opacity:1;" d="M 217.324219 265.933594 L 215.820312 270.351562 L 215.632812 270.351562 L 212.996094 262.671875 L 208.851562 262.671875 L 208.851562 274.574219 L 211.300781 274.574219 L 211.300781 265.167969 L 214.5 274.574219 L 216.761719 274.574219 L 217.324219 273.035156 L 220.152344 265.167969 L 220.339844 265.167969 L 220.339844 274.574219 L 222.597656 274.574219 L 222.597656 262.671875 L 218.457031 262.671875 Z M 197.550781 264.785156 L 200.941406 264.785156 L 200.941406 274.574219 L 203.390625 274.574219 L 203.390625 264.785156 L 206.78125 264.785156 L 206.78125 262.671875 L 197.550781 262.671875 Z M 143.316406 105.085938 C 143.316406 142.515625 143.503906 181.09375 143.316406 217.179688 C 149.527344 218.140625 156.308594 218.523438 163.277344 218.523438 C 169.867188 218.523438 176.269531 218.140625 182.296875 217.179688 L 182.296875 60.9375 C 182.296875 49.230469 182.484375 40.207031 182.484375 32.144531 C 219.019531 34.066406 253.296875 45.964844 283.804688 66.695312 L 276.082031 17.558594 C 244.257812 6.039062 203.390625 0.28125 162.523438 0.28125 C 122.035156 0.28125 81.167969 6.039062 49.339844 17.558594 L 41.621094 67.078125 C 72.128906 46.347656 106.589844 34.449219 142.9375 32.53125 C 143.125 40.398438 143.125 49.613281 143.125 61.320312 C 143.125 75.523438 143.125 89.921875 143.316406 104.699219 L 143.316406 105.085938 "/>
</g>
</svg>
