<?xml version="1.0" encoding="UTF-8"?>
<svg xmlns="http://www.w3.org/2000/svg" xmlns:xlink="http://www.w3.org/1999/xlink" width="300px" height="300px" viewBox="0 0 300 300" version="1.1">
<g id="surface1">
<path style=" stroke:none;fill-rule:nonzero;fill:rgb(100%,100%,100%);fill-opacity:1;" d="M 300.667969 255.5625 C 295.9375 260.625 267.953125 285.195312 243.765625 300 C 239.761719 248.402344 211.953125 215.183594 166.46875 186.914062 L 166.457031 186.96875 C 165.039062 214.464844 164.878906 238.621094 165.980469 255.5625 C 166.933594 270.160156 174.769531 279.035156 187.566406 288.367188 C 170.953125 291.765625 122.34375 291.121094 105.761719 286.457031 C 107.652344 285.191406 128.183594 275.050781 129.945312 241.980469 C 131.195312 218.277344 131.351562 200.714844 130.421875 171.707031 L 128.484375 164.265625 C 106.320312 149.6875 87.007812 134.75 62.113281 110.722656 C 84.882812 164.511719 55.957031 231.40625 52.648438 255.976562 C 51.515625 264.230469 48.597656 280.945312 49.527344 298.089844 C 42.433594 294.277344 13.738281 277.566406 0 261.472656 C 40.074219 200.300781 69.011719 140.152344 6.152344 85.515625 C 18.035156 69.652344 35.566406 55.464844 49.527344 49.328125 C 64.25 87.214844 96.507812 117.28125 119.753906 130.421875 C 101.953125 71.554688 79.175781 52.292969 64.726562 45.71875 C 74.203125 25.875 105.519531 5.308594 122.125 0 C 114.519531 22.019531 113.886719 36.429688 121.394531 59.921875 C 129 83.625 140.847656 112.421875 154.128906 134.011719 C 161.246094 123 186.386719 76.449219 193.015625 56.089844 C 199.671875 35.789062 199.671875 17.5625 196.816406 4.457031 C 211.273438 10.992188 242.347656 37.035156 249.453125 49.726562 C 234.289062 52.710938 227.160156 59.640625 218.171875 73.464844 C 208.914062 87.652344 185.4375 141.230469 172.398438 164.308594 C 186.148438 174.882812 210.113281 188.214844 229.074219 208.539062 C 208.210938 135.261719 229.554688 79.621094 257.058594 62.871094 C 269.855469 66.253906 286.226562 75.601562 298.070312 86.574219 C 253.496094 103.304688 256.363281 154.144531 256.105469 157.941406 C 254.089844 187.0625 267.246094 238.851562 291.960938 251.484375 C 297.308594 254.222656 297.863281 254.390625 300.675781 255.5625 C 295.945312 260.625 267.960938 285.195312 243.773438 300 "/>
</g>
</svg>
