<?xml version="1.0" encoding="UTF-8"?>
<svg xmlns="http://www.w3.org/2000/svg" xmlns:xlink="http://www.w3.org/1999/xlink" width="300px" height="300px" viewBox="0 0 300 300" version="1.1">
<g id="surface1">
<path style=" stroke:none;fill-rule:nonzero;fill:rgb(100%,100%,100%);fill-opacity:1;" d="M 243.035156 218.285156 C 212.070312 259.5 202.03125 243.417969 196.683594 223.902344 L 146.054688 39.011719 C 141.386719 21.921875 132.71875 7.496094 118 1.824219 C 95.550781 -5.25 71.195312 7.605469 62.90625 51.753906 C 71.039062 37.628906 85.855469 25.613281 99.515625 35.519531 C 111.296875 44.046875 111.359375 53.546875 106.617188 70.503906 L 103.042969 83.324219 C 88.882812 65.207031 58.839844 68.863281 55.355469 109.710938 C 64.652344 99.464844 98.273438 100.398438 88.222656 136.355469 L 88.191406 136.445312 L 58.078125 244.3125 C 32.949219 244.632812 7.730469 260.058594 0 298.347656 C 7.03125 284.746094 58.53125 257.894531 105.226562 299.132812 L 134.648438 255.1875 C 132.617188 252.726562 116.554688 248.714844 104.503906 263.0625 C 98.152344 256.511719 89.96875 251.421875 80.980469 248.207031 L 96.496094 192.550781 L 153.777344 192.550781 L 173.957031 266.273438 C 181.972656 295.492188 200.394531 312.078125 211.992188 290.007812 C 211.992188 290.007812 243.914062 231.789062 247.703125 225.035156 C 251.5 218.28125 243.914062 217.21875 243.03125 218.28125 M 104.765625 163 L 125.421875 89.035156 L 145.6875 163 Z M 189.636719 106.945312 L 194.84375 106.945312 L 207.171875 87.390625 L 207.171875 66.476562 L 188.914062 66.476562 L 188.914062 89.128906 L 195.011719 89.128906 M 273.410156 117.84375 C 258.742188 114.296875 246.511719 110.695312 250.207031 97.691406 C 253.328125 86.742188 275.0625 87.800781 282.566406 101.570312 L 293.957031 87.429688 C 280.742188 65.1875 248.476562 62.257812 235.410156 84.632812 C 217.449219 115.359375 237.902344 131.984375 261.121094 139.039062 C 270.578125 141.933594 282.75 148.558594 276.722656 159.867188 C 271.625 169.417969 251.96875 164.921875 237.144531 148.558594 L 227.097656 165.164062 C 236.101562 177.886719 271.265625 204.550781 293.265625 172.101562 C 311.527344 145.160156 288.046875 121.371094 273.40625 117.84375 "/>
</g>
</svg>
