<?xml version="1.0" encoding="UTF-8"?>
<svg xmlns="http://www.w3.org/2000/svg" xmlns:xlink="http://www.w3.org/1999/xlink" width="300px" height="300px" viewBox="0 0 300 300" version="1.1">
<g id="surface1">
<path style=" stroke:none;fill-rule:nonzero;fill:rgb(0%,36.078431%,36.078431%);fill-opacity:1;" d="M 165.929688 108.851562 C 169.542969 109.46875 173.0625 110.296875 176.382812 111.308594 L 185.273438 107.71875 C 178.109375 105.285156 170.707031 102.625 163.65625 99.761719 C 164.445312 102.9375 165.246094 106.113281 165.929688 108.855469 Z M 126.046875 180.921875 L 126.082031 180.921875 L 126.050781 180.902344 L 126.050781 180.921875 Z M 121.605469 179.519531 L 121.617188 179.539062 C 121.601562 179.519531 121.585938 179.519531 121.585938 179.519531 Z M 121.605469 179.519531 "/>
<path style=" stroke:none;fill-rule:nonzero;fill:rgb(0%,36.078431%,36.078431%);fill-opacity:1;" d="M 261.527344 151.375 C 257.746094 151.785156 253.675781 152.238281 249.367188 152.691406 L 248.84375 152.753906 C 259.097656 164.550781 265.253906 179.128906 265.253906 197.296875 C 265.253906 251.878906 209.234375 290.539062 144.429688 290.539062 C 102.902344 290.539062 86.65625 280.167969 76.59375 278.191406 L 31.761719 288.457031 L 31.761719 198.882812 C 42.488281 199.667969 51.617188 205.851562 56.648438 212.222656 C 76.558594 237.421875 99.125 258.808594 141.917969 258.808594 C 167.085938 258.808594 183.753906 244.101562 183.753906 223.191406 C 183.753906 211.5625 175.550781 202.328125 163.421875 194.449219 C 163.308594 194.882812 163.210938 195.316406 163.097656 195.75 C 162.136719 199.519531 161.230469 203.085938 160.558594 205.625 C 167.65625 212.035156 171.351562 218.429688 171.351562 224.613281 C 171.351562 232.386719 168.179688 250.433594 138.761719 250.433594 C 98.519531 250.433594 75.746094 218.222656 66.027344 204.46875 C 58.503906 193.828125 37.375 186.941406 25.019531 186.078125 L 18.589844 185.625 L 18.589844 300.519531 C 18.589844 300.519531 71.136719 288.578125 75.042969 287.671875 C 76.34375 288.042969 77.714844 288.394531 77.714844 288.394531 C 93.328125 292.621094 116.914062 298.972656 141.921875 298.972656 C 209.085938 298.972656 278.582031 261.238281 278.582031 198.078125 C 278.582031 180.609375 272.792969 164.960938 261.527344 151.371094 Z M 208.226562 115.785156 C 207.296875 117.101562 206.289062 118.503906 205.179688 120.011719 C 205.179688 120.011719 204.464844 121.019531 203.382812 122.503906 C 203.269531 122.648438 203.171875 122.792969 203.058594 122.957031 C 214.34375 127.410156 224.769531 132.730469 233.761719 139.1875 L 234.335938 139.25 C 240.066406 139.863281 245.878906 140.480469 251.542969 141.125 C 240.441406 131.285156 225.9375 122.789062 208.226562 115.78125 Z M 202.480469 13.875 C 187.875 6.949219 164.53125 0 138.761719 0 C 89.792969 0 17.320312 28.496094 17.320312 89.699219 C 17.320312 110.421875 24.4375 127.515625 39.492188 141.929688 C 43.398438 141.519531 47.566406 141.042969 51.964844 140.589844 C 52.519531 140.527344 53.070312 140.464844 53.636719 140.40625 C 39.523438 127.929688 30.539062 111.472656 30.539062 87.699219 C 30.539062 41.882812 88.425781 7.671875 139.707031 7.671875 C 160.785156 7.671875 186.472656 16.582031 200.3125 23.550781 C 208.472656 21.796875 238.308594 14.023438 238.308594 14.023438 L 238.308594 95.476562 C 229.367188 94.070312 219.472656 89.886719 214.898438 84.914062 C 195.402344 63.800781 183.140625 40 150.402344 40 C 125.234375 40 113.285156 51.445312 113.285156 67.382812 C 113.285156 78.5 122.429688 88.394531 137.128906 97.078125 C 137.199219 96.851562 137.246094 96.601562 137.328125 96.375 C 138.175781 92.953125 138.988281 89.777344 139.558594 87.488281 C 131.246094 81.796875 125.804688 75.40625 125.804688 68.1875 C 125.804688 62.292969 127.984375 48.578125 148.207031 48.578125 C 170.257812 48.578125 181.308594 61.671875 185.9375 69.460938 C 190.332031 76.867188 200.652344 88.867188 215.09375 97.074219 L 223.070312 94.167969 L 219.488281 99.136719 C 219.488281 99.136719 219.535156 99.054688 219.488281 99.136719 C 227.109375 102.808594 235.71875 105.511719 245.292969 106.109375 L 251.640625 106.480469 L 251.640625 2.351562 C 251.632812 2.351562 207.339844 12.742188 202.472656 13.875 Z M 202.480469 13.875 "/>
<path style=" stroke:none;fill-rule:nonzero;fill:rgb(76.862745%,80.784314%,83.137255%);fill-opacity:1;" d="M 121.101562 113.597656 L 121.082031 113.597656 L 121.117188 113.597656 M 173.828125 180.800781 L 173.84375 180.800781 L 173.808594 180.800781 M 192.648438 223.441406 C 192.648438 250.863281 168.863281 264.929688 143.4375 264.929688 C 69.609375 264.929688 53.199219 213.625 40.921875 208.757812 L 40.921875 280.207031 C 51.277344 278.785156 74.542969 271.050781 74.542969 271.050781 C 84.796875 271.050781 104.464844 285.136719 141.367188 285.136719 C 197.152344 285.136719 256.183594 250.496094 256.183594 198.550781 C 256.183594 179.273438 249.085938 165.003906 237.96875 153.847656 C 230.214844 154.632812 218.625 155.808594 209.152344 156.757812 C 207.453125 160.664062 204.800781 164.378906 201.292969 167.769531 C 202.207031 169.066406 202.808594 169.914062 202.808594 169.914062 C 204.355469 172.078125 222.648438 200.226562 222.648438 200.226562 C 222.648438 200.226562 192.289062 188.140625 176.097656 181.707031 C 172.878906 182.6875 169.527344 183.480469 166.085938 184.078125 C 165.761719 185.296875 165.4375 186.636719 165.09375 188.019531 C 181.433594 196.675781 192.652344 207.277344 192.652344 223.441406 Z M 197.398438 168.816406 L 197.382812 168.816406 M 90.316406 156.632812 C 90.144531 156.628906 89.976562 156.613281 89.808594 156.589844 C 90.019531 156.691406 90.230469 156.796875 90.441406 156.921875 C 90.414062 156.816406 90.347656 156.738281 90.308594 156.632812 Z M 95.738281 121.578125 C 83.039062 103.699219 78.886719 93.925781 78.886719 93.925781 C 78.886719 93.925781 107.113281 104.976562 123.179688 111.285156 C 126.714844 110.222656 130.398438 109.367188 134.179688 108.730469 C 134.523438 107.410156 134.898438 105.964844 135.273438 104.464844 C 116.972656 95.695312 104.050781 84.914062 104.050781 67.550781 C 104.050781 46.644531 124.136719 34.003906 146.292969 34.003906 C 199.59375 34.003906 206.085938 75.761719 229.121094 86.316406 L 229.121094 22.476562 C 220.410156 24.683594 201.253906 30.042969 201.253906 30.042969 C 196.320312 30.042969 189.761719 26.085938 179.941406 21.753906 C 170.074219 17.773438 156.941406 13.816406 139.730469 13.816406 C 92.570312 13.816406 39.179688 43.753906 39.179688 88.109375 C 39.179688 110.996094 48.679688 127.164062 62.941406 139.453125 C 70.296875 138.710938 81.074219 137.597656 90.125 136.691406 C 91.835938 132.523438 94.601562 128.625 98.230469 125.144531 C 96.773438 123.078125 95.730469 121.578125 95.730469 121.578125 Z M 166.46875 182.511719 L 166.484375 182.511719 L 166.46875 182.511719 M 209.332031 136.566406 C 211.15625 136.773438 213.09375 136.980469 215.027344 137.1875 C 212.671875 135.886719 210.253906 134.636719 207.769531 133.433594 C 208.359375 134.464844 208.875 135.515625 209.335938 136.566406 Z M 92.578125 136.421875 L 92.578125 136.441406 L 92.578125 136.421875 "/>
<path style=" stroke:none;fill-rule:nonzero;fill:rgb(76.862745%,80.784314%,83.137255%);fill-opacity:1;" d="M 110.519531 118.316406 C 109.691406 118.792969 108.875 119.265625 108.078125 119.761719 C 108.941406 119.226562 109.816406 118.710938 110.730469 118.214844 C 110.648438 118.234375 110.585938 118.277344 110.519531 118.316406 Z M 110.519531 118.316406 "/>
<path style=" stroke:none;fill-rule:nonzero;fill:rgb(100%,100%,100%);fill-opacity:1;" d="M 133.472656 129.042969 C 132.949219 129.269531 132.527344 129.433594 132.460938 129.433594 C 132.460938 129.433594 131.300781 129.289062 130.835938 129.042969 L 130.800781 129.042969 L 130.816406 129.042969 C 130.738281 129.003906 130.683594 128.953125 130.652344 128.898438 C 130.652344 128.898438 132.671875 128.011719 133.828125 127.535156 C 134.378906 125.164062 135.035156 122.421875 135.777344 119.410156 C 136.515625 116.378906 137.34375 113.0625 138.191406 109.617188 C 136.707031 109.820312 135.242188 110.027344 133.792969 110.273438 C 130.925781 110.792969 128.164062 111.429688 125.488281 112.191406 C 123.988281 112.625 122.527344 113.078125 121.113281 113.59375 L 121.078125 113.59375 C 120.261719 113.882812 119.46875 114.171875 118.683594 114.480469 C 118.636719 114.5 118.585938 114.523438 118.535156 114.542969 C 117.808594 114.828125 117.105469 115.117188 116.40625 115.429688 C 116.304688 115.46875 116.195312 115.511719 116.078125 115.550781 C 115.445312 115.835938 114.816406 116.125 114.191406 116.417969 C 114.042969 116.5 113.902344 116.5625 113.769531 116.625 C 113.035156 116.976562 112.320312 117.347656 111.601562 117.71875 C 111.875 117.886719 112.351562 118.152344 112.414062 118.296875 C 112.414062 118.296875 111.308594 120.8125 110.835938 120.910156 C 110.835938 120.910156 110.414062 120.667969 110.101562 120.460938 C 109.613281 120.542969 106.964844 121.058594 105.839844 121.222656 C 105.1875 121.675781 104.550781 122.152344 103.949219 122.605469 C 103.914062 122.625 103.902344 122.648438 103.871094 122.667969 C 103.285156 123.121094 102.699219 123.597656 102.144531 124.089844 C 101.132812 124.925781 100.191406 125.792969 99.328125 126.691406 C 98.644531 127.371094 98.027344 128.070312 97.421875 128.792969 C 97.328125 128.898438 97.230469 129.019531 97.132812 129.125 C 96.527344 129.863281 95.960938 130.609375 95.421875 131.351562 C 95.421875 131.390625 95.40625 131.390625 95.40625 131.410156 C 94.855469 132.195312 94.363281 133 93.894531 133.804688 C 93.882812 133.84375 93.863281 133.863281 93.863281 133.863281 C 93.382812 134.707031 92.953125 135.558594 92.574219 136.421875 L 92.574219 136.441406 C 92.1875 137.347656 91.828125 138.257812 91.535156 139.203125 C 98.667969 138.480469 105.46875 137.804688 111.425781 137.222656 C 121.746094 136.214844 129.5625 135.488281 132.136719 135.347656 C 132.167969 135.117188 132.214844 134.828125 132.28125 134.480469 C 132.511719 133.308594 132.917969 131.429688 133.472656 129.039062 Z M 109.019531 123.082031 C 109.019531 123.082031 107.785156 122.605469 107.847656 122.273438 C 107.847656 122.273438 112.570312 121.347656 112.808594 121.367188 L 113.820312 121.761719 L 114.847656 119.367188 L 114.925781 119.140625 L 115.253906 119.265625 C 115.253906 119.265625 116.4375 119.699219 116.570312 119.902344 C 116.570312 119.902344 115.445312 122.542969 115.007812 122.644531 C 115.007812 122.644531 114.335938 122.398438 113.949219 122.191406 C 113.65625 122.234375 109.261719 123.078125 109.019531 123.078125 Z M 112.601562 124.214844 C 112.601562 124.214844 117.191406 123.121094 117.4375 123.144531 L 118.542969 123.492188 L 119.179688 121.078125 L 119.242188 120.828125 L 119.601562 120.953125 C 119.601562 120.953125 120.867188 121.347656 121.03125 121.53125 C 121.03125 121.53125 120.332031 124.191406 119.90625 124.339844 C 119.90625 124.339844 119.160156 124.113281 118.738281 123.90625 C 118.527344 123.964844 114.164062 124.976562 113.933594 124.976562 C 113.933594 124.976562 112.566406 124.542969 112.601562 124.214844 Z M 118.074219 125.988281 C 118.074219 125.988281 122.546875 124.792969 122.777344 124.792969 L 123.980469 125.101562 L 124.289062 122.6875 L 124.304688 122.441406 L 124.664062 122.546875 C 124.664062 122.546875 126.03125 122.894531 126.210938 123.0625 C 126.210938 123.0625 125.867188 125.738281 125.460938 125.90625 C 125.460938 125.90625 124.664062 125.699219 124.222656 125.511719 C 124.125 125.53125 119.761719 126.707031 119.539062 126.707031 C 119.539062 126.707031 118.070312 126.335938 118.070312 125.988281 Z M 125.460938 128.234375 C 125.460938 128.234375 124.371094 128.050781 123.949219 127.78125 L 123.929688 127.78125 C 123.867188 127.738281 123.785156 127.679688 123.773438 127.613281 C 123.773438 127.613281 127.839844 126.132812 128.050781 126.113281 L 129.386719 126.339844 L 128.949219 123.964844 L 128.898438 123.679688 L 129.320312 123.761719 C 129.320312 123.761719 130.835938 124.011719 131.046875 124.175781 C 131.046875 124.175781 131.519531 126.855469 131.160156 127.042969 C 131.160156 127.042969 130.238281 126.875 129.730469 126.753906 C 129.648438 126.773438 125.691406 128.214844 125.464844 128.238281 Z M 125.460938 128.234375 "/>
<path style=" stroke:none;fill-rule:nonzero;fill:rgb(100%,100%,100%);fill-opacity:1;" d="M 109.929688 119.949219 L 110.730469 118.214844 C 109.820312 118.710938 108.941406 119.226562 108.078125 119.761719 C 108.695312 119.640625 109.167969 119.578125 109.25 119.597656 L 109.933594 119.945312 Z M 91.667969 154.117188 C 93.121094 158.542969 95.835938 162.761719 99.679688 166.570312 C 100.574219 167.457031 101.5 168.324219 102.511719 169.148438 C 103.175781 169.703125 103.878906 170.261719 104.59375 170.773438 C 104.671875 170.859375 104.742188 170.898438 104.804688 170.957031 C 105.554688 171.496094 106.320312 172.03125 107.101562 172.546875 C 106.984375 172.300781 106.902344 172.09375 106.917969 172.03125 C 106.917969 172.03125 107.929688 171.5 108.367188 171.558594 C 108.367188 171.558594 109.617188 173.683594 109.539062 173.886719 L 109.390625 173.972656 C 109.8125 174.238281 110.253906 174.488281 110.714844 174.734375 L 113.335938 175.375 L 112.945312 175.578125 C 112.945312 175.578125 112.796875 175.640625 112.617188 175.742188 C 113.285156 176.09375 113.988281 176.421875 114.703125 176.753906 C 114.816406 176.816406 114.914062 176.855469 115.027344 176.898438 C 115.644531 177.1875 116.265625 177.457031 116.914062 177.746094 L 117.109375 177.808594 C 117.792969 178.113281 118.503906 178.382812 119.207031 178.671875 C 119.246094 178.671875 119.261719 178.691406 119.3125 178.691406 C 120.039062 178.960938 120.808594 179.25 121.570312 179.519531 C 121.570312 179.519531 121.605469 179.519531 121.625 179.539062 C 123.070312 180.035156 124.535156 180.464844 126.042969 180.898438 L 126.082031 180.921875 C 128.539062 181.582031 131.082031 182.179688 133.699219 182.632812 C 135.148438 182.898438 136.613281 183.128906 138.09375 183.3125 C 137.265625 179.992188 136.46875 176.796875 135.753906 173.847656 C 135.3125 172.011719 134.890625 170.28125 134.496094 168.671875 C 134.109375 168.714844 133.679688 168.777344 133.535156 168.757812 C 133.535156 168.757812 130.820312 167.332031 130.101562 166.714844 L 129.988281 166.671875 L 130.023438 166.652344 C 129.957031 166.605469 129.914062 166.546875 129.90625 166.484375 C 129.90625 166.484375 130.871094 166.320312 131.390625 166.28125 C 131.488281 165.867188 131.945312 164.070312 132.140625 163.945312 C 132.140625 163.945312 132.792969 163.847656 133.363281 163.804688 C 133 162.238281 132.707031 160.917969 132.496094 159.863281 L 132.449219 159.886719 L 132.480469 159.84375 C 132.355469 159.226562 132.242188 158.609375 132.140625 157.988281 C 129.585938 157.84375 121.882812 157.125 111.707031 156.136719 C 105.714844 155.535156 98.859375 154.855469 91.664062 154.113281 Z M 113.285156 171.933594 L 112.570312 172.324219 L 117.042969 173.417969 L 116.671875 173.601562 C 116.671875 173.601562 115.757812 174.117188 115.464844 174.160156 C 115.464844 174.160156 111.980469 173.3125 111.070312 172.878906 L 111.050781 172.878906 C 110.957031 172.816406 110.890625 172.777344 110.875 172.734375 C 110.875 172.734375 111.398438 172.46875 111.753906 172.300781 C 111.527344 171.867188 110.59375 170.261719 110.648438 170.078125 C 110.648438 170.078125 111.671875 169.539062 112.109375 169.625 C 112.109375 169.625 113.347656 171.726562 113.285156 171.933594 Z M 124.988281 167.664062 C 125.070312 167.3125 125.558594 165.4375 125.738281 165.3125 C 125.738281 165.3125 127.203125 164.941406 127.609375 165.148438 C 127.609375 165.148438 127.023438 167.4375 126.847656 167.558594 L 125.867188 167.785156 L 129.988281 169.519531 L 129.46875 169.640625 C 129.46875 169.640625 128.085938 169.992188 127.820312 169.972656 C 127.820312 169.972656 124.792969 168.714844 123.964844 168.136719 L 123.867188 168.09375 L 123.898438 168.09375 C 123.8125 168.035156 123.75 167.972656 123.75 167.929688 C 123.75 167.933594 124.46875 167.746094 124.988281 167.660156 Z M 120.316406 166.671875 C 120.316406 166.671875 121.652344 166.238281 122.078125 166.40625 C 122.078125 166.40625 122.171875 168.652344 122.027344 168.816406 L 121.164062 169.105469 L 125.460938 170.671875 L 124.972656 170.816406 C 124.972656 170.816406 123.703125 171.207031 123.425781 171.1875 C 123.425781 171.1875 120.300781 170.054688 119.421875 169.539062 L 119.289062 169.496094 L 119.328125 169.476562 C 119.226562 169.414062 119.164062 169.351562 119.164062 169.308594 C 119.164062 169.308594 119.792969 169.125 120.269531 169 C 120.253906 168.636719 120.171875 166.839844 120.316406 166.675781 Z M 117.304688 167.847656 C 117.304688 167.847656 117.695312 170.074219 117.570312 170.257812 L 116.769531 170.546875 L 121.164062 171.945312 L 120.710938 172.113281 C 120.710938 172.113281 119.550781 172.546875 119.261719 172.5625 C 119.261719 172.5625 115.921875 171.492188 115.058594 170.996094 L 114.996094 170.980469 L 115.027344 170.980469 C 114.929688 170.917969 114.867188 170.875 114.867188 170.832031 C 114.867188 170.832031 115.417969 170.625 115.839844 170.503906 C 115.792969 170.113281 115.480469 168.335938 115.613281 168.171875 C 115.609375 168.171875 116.875 167.699219 117.300781 167.84375 Z M 117.304688 167.847656 "/>
<path style=" stroke:none;fill-rule:nonzero;fill:rgb(100%,100%,100%);fill-opacity:1;" d="M 132.152344 166.507812 L 134.238281 167.601562 C 134.058594 166.839844 133.894531 166.097656 133.738281 165.398438 C 133.605469 165.851562 133.457031 166.242188 133.375 166.304688 L 132.152344 166.511719 Z M 168.066406 157.992188 C 168.011719 158.238281 167.964844 158.589844 167.886719 159 C 167.535156 160.710938 167.15625 162.414062 166.746094 164.117188 C 167.136719 163.972656 167.398438 163.867188 167.464844 163.847656 C 167.464844 163.847656 168.621094 163.992188 169.074219 164.238281 L 169.089844 164.261719 C 169.191406 164.300781 169.253906 164.34375 169.269531 164.40625 C 169.269531 164.40625 167.558594 165.148438 166.40625 165.640625 C 165.835938 168.035156 165.152344 170.816406 164.40625 173.890625 C 163.667969 176.816406 162.890625 179.953125 162.058594 183.230469 L 162.074219 183.230469 C 163.554688 183.03125 165.019531 182.792969 166.46875 182.511719 L 166.484375 182.511719 C 169.011719 182.058594 171.429688 181.476562 173.808594 180.796875 L 173.824219 180.796875 C 175.335938 180.363281 176.824219 179.910156 178.25 179.414062 C 179.078125 179.105469 179.898438 178.816406 180.710938 178.488281 C 180.738281 178.488281 180.773438 178.46875 180.824219 178.445312 C 181.539062 178.160156 182.269531 177.871094 182.988281 177.558594 L 183.296875 177.4375 C 183.949219 177.148438 184.601562 176.859375 185.21875 176.554688 C 185.367188 176.488281 185.496094 176.429688 185.625 176.367188 C 186.363281 176.015625 187.09375 175.644531 187.808594 175.273438 C 187.679688 175.195312 187.570312 175.105469 187.484375 175.007812 C 187.484375 175.007812 188.574219 172.488281 189.046875 172.386719 C 189.046875 172.386719 189.5 172.632812 189.792969 172.839844 C 190.171875 172.777344 191.601562 172.488281 192.808594 172.285156 C 193.605469 171.746094 194.351562 171.210938 195.085938 170.675781 C 195.144531 170.605469 195.222656 170.542969 195.316406 170.492188 C 196.027344 169.933594 196.710938 169.375 197.382812 168.820312 L 197.398438 168.820312 C 198.375 167.972656 199.304688 167.105469 200.1875 166.21875 C 201.570312 164.796875 202.820312 163.3125 203.910156 161.785156 C 203.910156 161.769531 203.925781 161.769531 203.925781 161.769531 C 204.453125 161.027344 204.917969 160.285156 205.359375 159.542969 C 205.390625 159.480469 205.421875 159.417969 205.457031 159.375 C 205.910156 158.613281 206.335938 157.808594 206.695312 157.003906 C 207.117188 156.101562 207.472656 155.171875 207.800781 154.242188 C 200.835938 154.921875 194.222656 155.582031 188.414062 156.160156 C 178.386719 157.132812 170.785156 157.832031 168.070312 157.996094 Z M 171.011719 169.601562 L 170.59375 169.542969 C 170.59375 169.542969 169.074219 169.273438 168.863281 169.128906 C 168.863281 169.128906 168.375 166.449219 168.730469 166.261719 C 168.730469 166.261719 169.695312 166.429688 170.183594 166.550781 C 170.296875 166.511719 174.21875 165.066406 174.429688 165.046875 C 174.429688 165.046875 175.535156 165.230469 175.964844 165.523438 L 175.996094 165.523438 L 175.980469 165.523438 C 176.058594 165.5625 176.125 165.625 176.125 165.6875 C 176.125 165.6875 172.085938 167.171875 171.855469 167.191406 L 170.519531 166.945312 L 171.007812 169.601562 Z M 177.144531 168.511719 L 175.945312 168.199219 L 175.601562 170.859375 L 175.242188 170.753906 C 175.242188 170.753906 173.875 170.40625 173.679688 170.21875 C 173.679688 170.21875 174.035156 167.558594 174.425781 167.394531 C 174.425781 167.394531 175.242188 167.601562 175.699219 167.785156 C 175.808594 167.746094 180.15625 166.570312 180.367188 166.570312 C 180.367188 166.570312 181.816406 166.964844 181.816406 167.292969 C 181.816406 167.292969 177.355469 168.511719 177.140625 168.511719 Z M 182.488281 170.160156 L 181.363281 169.808594 L 180.679688 172.449219 L 180.320312 172.34375 C 180.320312 172.34375 179.03125 171.953125 178.875 171.746094 C 178.875 171.746094 179.570312 169.085938 179.996094 168.960938 C 179.996094 168.960938 180.742188 169.191406 181.164062 169.375 C 181.414062 169.332031 185.757812 168.324219 185.972656 168.324219 C 185.972656 168.324219 186.878906 168.613281 187.191406 168.898438 L 187.222656 168.898438 L 187.207031 168.898438 C 187.269531 168.984375 187.320312 169.023438 187.320312 169.082031 C 187.320312 169.082031 182.714844 170.160156 182.484375 170.160156 Z M 192.078125 171.027344 C 192.078125 171.027344 187.320312 171.953125 187.09375 171.910156 L 186.097656 171.539062 L 184.972656 174.15625 L 184.648438 174.035156 C 184.648438 174.035156 183.480469 173.601562 183.335938 173.394531 C 183.335938 173.394531 184.472656 170.753906 184.882812 170.652344 C 184.882812 170.652344 185.546875 170.902344 185.941406 171.109375 C 186.28125 171.046875 190.660156 170.203125 190.886719 170.222656 C 190.886719 170.226562 192.140625 170.699219 192.078125 171.027344 Z M 192.078125 171.027344 "/>
<path style=" stroke:none;fill-rule:nonzero;fill:rgb(100%,100%,100%);fill-opacity:1;" d="M 189.535156 174.324219 C 189.898438 174.117188 190.253906 173.890625 190.609375 173.683594 L 189.960938 173.351562 L 189.539062 174.324219 Z M 164.304688 119.371094 C 164.746094 121.226562 165.167969 122.976562 165.558594 124.605469 C 165.898438 124.566406 166.242188 124.523438 166.355469 124.546875 C 166.355469 124.546875 169.058594 125.945312 169.800781 126.566406 L 169.933594 126.625 L 169.886719 126.644531 C 169.964844 126.707031 170.019531 126.769531 170 126.8125 C 170 126.8125 169.039062 126.976562 168.515625 127.015625 C 168.402344 127.429688 167.964844 129.226562 167.785156 129.351562 C 167.785156 129.351562 167.214844 129.433594 166.675781 129.472656 C 167.035156 131.058594 167.34375 132.378906 167.550781 133.410156 C 167.71875 134.253906 167.847656 134.914062 167.914062 135.328125 C 170.535156 135.492188 178.121094 136.171875 188.164062 137.164062 C 194.074219 137.738281 200.832031 138.398438 207.929688 139.101562 C 207.796875 138.628906 207.601562 138.15625 207.421875 137.679688 C 207.257812 137.222656 207.066406 136.769531 206.851562 136.316406 C 205.367188 132.972656 203.15625 129.773438 200.277344 126.8125 C 199.398438 125.925781 198.460938 125.054688 197.476562 124.214844 C 196.8125 123.632812 196.113281 123.066406 195.378906 122.523438 C 195.285156 122.433594 195.183594 122.351562 195.070312 122.277344 C 194.320312 121.699219 193.554688 121.144531 192.742188 120.625 C 192.90625 120.9375 193.003906 121.183594 192.988281 121.242188 C 192.988281 121.242188 191.980469 121.800781 191.523438 121.71875 C 191.523438 121.71875 190.285156 119.621094 190.351562 119.390625 L 190.613281 119.269531 C 190.269531 119.058594 189.929688 118.851562 189.585938 118.648438 L 186.609375 117.925781 L 186.96875 117.71875 C 186.96875 117.71875 187.195312 117.597656 187.441406 117.476562 C 186.757812 117.125 186.074219 116.773438 185.355469 116.445312 C 185.277344 116.402344 185.179688 116.363281 185.09375 116.320312 C 184.453125 116.019531 183.800781 115.726562 183.144531 115.4375 C 183.109375 115.4375 183.066406 115.417969 183.027344 115.394531 C 181.566406 114.761719 180.0625 114.171875 178.519531 113.621094 C 177.089844 113.121094 175.621094 112.660156 174.125 112.238281 C 170.21875 111.113281 166.128906 110.265625 161.929688 109.703125 C 162.769531 113.105469 163.5625 116.363281 164.316406 119.375 Z M 174.929688 125.636719 C 174.851562 125.96875 174.347656 127.863281 174.183594 127.988281 C 174.183594 127.988281 172.699219 128.359375 172.308594 128.152344 C 172.308594 128.152344 172.882812 125.886719 173.058594 125.71875 L 174.019531 125.492188 L 169.902344 123.78125 L 170.441406 123.65625 C 170.441406 123.65625 171.824219 123.308594 172.085938 123.328125 C 172.085938 123.328125 175.09375 124.585938 175.925781 125.144531 L 176.035156 125.183594 L 176.011719 125.203125 C 176.089844 125.265625 176.15625 125.328125 176.15625 125.371094 C 176.15625 125.371094 175.4375 125.539062 174.929688 125.636719 Z M 179.589844 126.628906 C 179.589844 126.628906 178.253906 127.0625 177.828125 126.894531 C 177.828125 126.894531 177.730469 124.648438 177.878906 124.484375 L 178.742188 124.199219 L 174.460938 122.632812 L 174.933594 122.488281 C 174.933594 122.488281 176.203125 122.097656 176.480469 122.097656 C 176.480469 122.097656 179.636719 123.25 180.515625 123.789062 L 180.628906 123.808594 L 180.597656 123.828125 C 180.675781 123.890625 180.738281 123.953125 180.738281 123.996094 C 180.738281 123.996094 180.109375 124.179688 179.632812 124.285156 C 179.648438 124.714844 179.734375 126.464844 179.585938 126.632812 Z M 184.292969 125.125 C 184.292969 125.125 183.023438 125.578125 182.601562 125.453125 C 182.601562 125.453125 182.191406 123.226562 182.335938 123.042969 L 183.136719 122.753906 L 178.742188 121.351562 L 179.199219 121.167969 C 179.199219 121.167969 180.351562 120.753906 180.632812 120.734375 C 180.632812 120.734375 184.019531 121.804688 184.867188 122.300781 L 184.898438 122.300781 L 184.882812 122.320312 C 184.980469 122.363281 185.058594 122.421875 185.058594 122.464844 C 185.058594 122.464844 184.496094 122.671875 184.050781 122.792969 C 184.117188 123.203125 184.40625 124.957031 184.292969 125.121094 Z M 188.835938 120.421875 L 188.851562 120.421875 C 188.914062 120.453125 188.976562 120.484375 189.027344 120.523438 C 189.027344 120.523438 188.523438 120.832031 188.152344 121 C 188.378906 121.410156 189.328125 123.042969 189.257812 123.226562 C 189.257812 123.226562 188.25 123.761719 187.796875 123.679688 C 187.796875 123.679688 186.542969 121.578125 186.609375 121.371094 L 187.34375 120.976562 L 182.867188 119.886719 L 183.226562 119.679688 C 183.226562 119.679688 184.152344 119.183594 184.449219 119.144531 C 184.441406 119.144531 187.941406 119.988281 188.835938 120.421875 Z M 188.835938 120.421875 "/>
<path style=" stroke:none;fill-rule:nonzero;fill:rgb(100%,100%,100%);fill-opacity:1;" d="M 167.769531 126.792969 L 165.835938 125.785156 C 165.980469 126.421875 166.125 127.042969 166.273438 127.636719 C 166.371094 127.308594 166.464844 127.039062 166.535156 127 L 167.773438 126.792969 Z M 167.769531 126.792969 "/>
<path style=" stroke:none;fill-rule:nonzero;fill:rgb(83.529412%,0%,19.607843%);fill-opacity:1;" d="M 189.050781 172.382812 C 188.578125 172.488281 187.488281 175.003906 187.488281 175.003906 C 187.519531 175.066406 187.648438 175.171875 187.8125 175.269531 C 187.941406 175.1875 188.070312 175.125 188.21875 175.046875 C 188.394531 174.960938 188.578125 174.839844 188.753906 174.757812 C 188.8125 174.714844 188.878906 174.679688 188.949219 174.652344 C 189.148438 174.53125 189.34375 174.425781 189.535156 174.324219 L 189.957031 173.351562 L 190.609375 173.683594 C 190.820312 173.558594 191.03125 173.417969 191.246094 173.292969 C 191.511719 173.125 191.785156 172.960938 192.042969 172.796875 C 192.308594 172.628906 192.542969 172.445312 192.808594 172.28125 C 191.601562 172.488281 190.175781 172.777344 189.796875 172.839844 C 189.558594 172.679688 189.308594 172.527344 189.046875 172.386719 Z M 189.050781 172.382812 "/>
<path style=" stroke:none;fill-rule:nonzero;fill:rgb(83.529412%,0%,19.607843%);fill-opacity:1;" d="M 184.882812 170.652344 C 184.472656 170.757812 183.335938 173.394531 183.335938 173.394531 C 183.480469 173.601562 184.648438 174.035156 184.648438 174.035156 L 184.976562 174.160156 L 186.101562 171.542969 L 187.097656 171.914062 C 187.324219 171.953125 192.078125 171.027344 192.078125 171.027344 C 192.140625 170.695312 190.886719 170.222656 190.886719 170.222656 C 190.660156 170.203125 186.28125 171.046875 185.941406 171.109375 C 185.542969 170.902344 184.882812 170.65625 184.882812 170.65625 Z M 187.210938 168.898438 L 187.222656 168.898438 L 187.191406 168.898438 C 186.878906 168.613281 185.96875 168.324219 185.96875 168.324219 C 185.757812 168.324219 181.410156 169.332031 181.164062 169.375 C 180.742188 169.191406 179.992188 168.964844 179.992188 168.964844 C 179.570312 169.085938 178.867188 171.746094 178.867188 171.746094 C 179.03125 171.953125 180.316406 172.347656 180.316406 172.347656 L 180.675781 172.445312 L 181.359375 169.808594 L 182.484375 170.160156 C 182.710938 170.160156 187.320312 169.085938 187.320312 169.085938 C 187.324219 169.023438 187.273438 168.984375 187.214844 168.898438 Z M 180.367188 166.570312 C 180.15625 166.570312 175.816406 167.746094 175.699219 167.785156 C 175.292969 167.636719 174.867188 167.507812 174.429688 167.394531 C 174.039062 167.5625 173.679688 170.21875 173.679688 170.21875 C 173.875 170.402344 175.242188 170.757812 175.242188 170.757812 L 175.601562 170.859375 L 175.941406 168.199219 L 177.144531 168.511719 C 177.355469 168.511719 181.820312 167.292969 181.820312 167.292969 C 181.824219 166.960938 180.371094 166.570312 180.371094 166.570312 Z M 176.125 165.683594 C 176.125 165.621094 176.058594 165.558594 175.976562 165.515625 L 175.996094 165.515625 L 175.960938 165.515625 C 175.539062 165.230469 174.429688 165.042969 174.429688 165.042969 C 174.21875 165.0625 170.296875 166.507812 170.179688 166.546875 C 169.691406 166.421875 168.734375 166.257812 168.734375 166.257812 C 168.375 166.441406 168.859375 169.125 168.859375 169.125 C 169.070312 169.269531 170.585938 169.535156 170.585938 169.535156 L 171.007812 169.597656 L 170.519531 166.9375 L 171.855469 167.183594 C 172.09375 167.167969 176.125 165.683594 176.125 165.683594 Z M 169.089844 164.261719 L 169.074219 164.238281 C 168.621094 163.992188 167.464844 163.847656 167.464844 163.847656 C 167.398438 163.863281 167.136719 163.96875 166.746094 164.113281 C 166.648438 164.609375 166.519531 165.105469 166.40625 165.640625 C 167.5625 165.144531 169.273438 164.402344 169.273438 164.402344 C 169.253906 164.339844 169.191406 164.300781 169.089844 164.257812 Z M 131.386719 166.285156 C 130.886719 166.335938 130.390625 166.402344 129.902344 166.488281 C 129.902344 166.53125 129.9375 166.589844 130.019531 166.65625 L 129.984375 166.671875 L 130.097656 166.714844 C 130.8125 167.332031 133.53125 168.753906 133.53125 168.753906 C 133.679688 168.773438 134.101562 168.714844 134.492188 168.671875 C 134.414062 168.300781 134.316406 167.949219 134.230469 167.601562 L 132.148438 166.507812 L 133.367188 166.300781 C 133.453125 166.242188 133.597656 165.851562 133.730469 165.398438 C 133.597656 164.859375 133.464844 164.324219 133.355469 163.808594 C 132.785156 163.851562 132.132812 163.953125 132.132812 163.953125 C 131.941406 164.078125 131.484375 165.871094 131.386719 166.285156 Z M 123.867188 168.097656 L 123.964844 168.136719 C 124.792969 168.714844 127.820312 169.972656 127.820312 169.972656 C 128.085938 169.992188 129.46875 169.644531 129.46875 169.644531 L 129.988281 169.519531 L 125.867188 167.785156 L 126.84375 167.5625 C 127.027344 167.4375 127.609375 165.148438 127.609375 165.148438 C 127.207031 164.941406 125.738281 165.316406 125.738281 165.316406 C 125.558594 165.4375 125.070312 167.316406 124.988281 167.667969 C 124.46875 167.746094 123.753906 167.933594 123.753906 167.933594 C 123.753906 167.976562 123.816406 168.035156 123.898438 168.101562 L 123.867188 168.101562 Z M 119.164062 169.3125 C 119.164062 169.355469 119.226562 169.417969 119.328125 169.480469 L 119.292969 169.496094 L 119.421875 169.539062 C 120.304688 170.058594 123.429688 171.191406 123.429688 171.191406 C 123.707031 171.210938 124.976562 170.816406 124.976562 170.816406 L 125.464844 170.675781 L 121.164062 169.109375 L 122.027344 168.820312 C 122.175781 168.65625 122.082031 166.410156 122.082031 166.410156 C 121.65625 166.242188 120.320312 166.675781 120.320312 166.675781 C 120.175781 166.84375 120.253906 168.636719 120.269531 169.011719 C 119.796875 169.128906 119.164062 169.316406 119.164062 169.316406 Z M 115.609375 168.179688 C 115.480469 168.34375 115.789062 170.117188 115.839844 170.507812 C 115.414062 170.632812 114.859375 170.839844 114.859375 170.839844 C 114.859375 170.878906 114.921875 170.921875 115.023438 170.984375 L 114.988281 170.984375 L 115.050781 171.003906 C 115.921875 171.5 119.253906 172.570312 119.253906 172.570312 C 119.542969 172.550781 120.703125 172.117188 120.703125 172.117188 L 121.15625 171.949219 L 116.761719 170.550781 L 117.558594 170.261719 C 117.691406 170.078125 117.296875 167.851562 117.296875 167.851562 C 116.882812 167.703125 115.613281 168.179688 115.613281 168.179688 Z M 110.648438 170.074219 C 110.59375 170.257812 111.527344 171.867188 111.753906 172.300781 C 111.398438 172.46875 110.875 172.734375 110.875 172.734375 C 110.890625 172.777344 110.960938 172.816406 111.054688 172.882812 L 111.074219 172.882812 C 111.984375 173.316406 115.46875 174.160156 115.46875 174.160156 C 115.757812 174.117188 116.679688 173.601562 116.679688 173.601562 L 117.046875 173.421875 L 112.574219 172.328125 L 113.289062 171.933594 C 113.351562 171.726562 112.117188 169.625 112.117188 169.625 C 111.671875 169.539062 110.648438 170.078125 110.648438 170.078125 Z M 108.367188 171.558594 C 107.929688 171.5 106.921875 172.035156 106.921875 172.035156 C 106.90625 172.097656 106.984375 172.304688 107.105469 172.550781 C 107.722656 172.976562 108.375 173.382812 109.058594 173.765625 C 109.183594 173.851562 109.28125 173.910156 109.394531 173.972656 L 109.542969 173.886719 C 109.621094 173.683594 108.367188 171.558594 108.367188 171.558594 Z M 113.335938 175.375 L 110.714844 174.738281 C 110.921875 174.859375 111.152344 174.984375 111.367188 175.085938 C 111.59375 175.210938 111.785156 175.332031 112.015625 175.457031 C 112.070312 175.476562 112.117188 175.5 112.164062 175.519531 C 112.3125 175.601562 112.457031 175.664062 112.625 175.746094 C 112.800781 175.644531 112.949219 175.578125 112.949219 175.578125 Z M 110.84375 120.917969 C 111.316406 120.8125 112.421875 118.300781 112.421875 118.300781 C 112.359375 118.152344 111.882812 117.886719 111.605469 117.722656 C 111.316406 117.886719 111.003906 118.050781 110.730469 118.214844 L 109.929688 119.949219 L 109.246094 119.601562 C 109.167969 119.578125 108.695312 119.640625 108.078125 119.761719 C 107.828125 119.910156 107.585938 120.074219 107.339844 120.238281 C 107.0625 120.40625 106.800781 120.566406 106.542969 120.753906 C 106.3125 120.917969 106.070312 121.0625 105.84375 121.226562 C 106.96875 121.0625 109.617188 120.546875 110.105469 120.464844 C 110.421875 120.667969 110.84375 120.914062 110.84375 120.914062 Z M 110.84375 120.917969 "/>
<path style=" stroke:none;fill-rule:nonzero;fill:rgb(83.529412%,0%,19.607843%);fill-opacity:1;" d="M 115.011719 122.648438 C 115.449219 122.546875 116.570312 119.90625 116.570312 119.90625 C 116.441406 119.699219 115.253906 119.269531 115.253906 119.269531 L 114.929688 119.148438 L 114.851562 119.375 L 113.824219 121.765625 L 112.8125 121.375 C 112.570312 121.351562 107.847656 122.28125 107.847656 122.28125 C 107.785156 122.609375 109.019531 123.085938 109.019531 123.085938 C 109.257812 123.085938 113.652344 122.238281 113.949219 122.199219 C 114.335938 122.402344 115.003906 122.648438 115.003906 122.648438 Z M 119.90625 124.339844 C 120.328125 124.195312 121.03125 121.535156 121.03125 121.535156 C 120.867188 121.351562 119.601562 120.960938 119.601562 120.960938 L 119.238281 120.835938 L 119.175781 121.085938 L 118.539062 123.5 L 117.433594 123.148438 C 117.1875 123.128906 112.597656 124.21875 112.597656 124.21875 C 112.5625 124.550781 113.929688 124.984375 113.929688 124.984375 C 114.160156 124.984375 118.519531 123.972656 118.738281 123.910156 C 119.164062 124.117188 119.90625 124.34375 119.90625 124.34375 Z M 125.460938 125.90625 C 125.867188 125.738281 126.210938 123.0625 126.210938 123.0625 C 126.03125 122.894531 124.664062 122.546875 124.664062 122.546875 L 124.304688 122.445312 L 124.289062 122.691406 L 123.980469 125.101562 L 122.777344 124.792969 C 122.546875 124.792969 118.070312 125.988281 118.070312 125.988281 C 118.070312 126.339844 119.535156 126.710938 119.535156 126.710938 C 119.761719 126.710938 124.125 125.535156 124.21875 125.515625 C 124.664062 125.699219 125.460938 125.90625 125.460938 125.90625 Z M 131.042969 124.175781 C 130.835938 124.007812 129.320312 123.761719 129.320312 123.761719 L 128.898438 123.679688 L 128.945312 123.96875 L 129.382812 126.339844 L 128.046875 126.113281 C 127.832031 126.136719 123.761719 127.621094 123.761719 127.621094 C 123.777344 127.683594 123.859375 127.746094 123.921875 127.785156 L 123.941406 127.785156 C 124.363281 128.054688 125.457031 128.238281 125.457031 128.238281 C 125.683594 128.21875 129.640625 126.777344 129.722656 126.757812 C 130.222656 126.878906 131.15625 127.042969 131.15625 127.042969 C 131.515625 126.859375 131.042969 124.175781 131.042969 124.175781 Z M 130.816406 129.042969 L 130.800781 129.042969 L 130.835938 129.042969 C 131.308594 129.289062 132.464844 129.433594 132.464844 129.433594 C 132.527344 129.433594 132.953125 129.265625 133.472656 129.042969 C 133.585938 128.546875 133.699219 128.050781 133.828125 127.535156 C 132.675781 128.011719 130.65625 128.898438 130.65625 128.898438 C 130.667969 128.9375 130.734375 129 130.8125 129.039062 Z M 168.519531 127.019531 C 169.042969 126.976562 170.003906 126.8125 170.003906 126.8125 C 170.019531 126.773438 169.972656 126.710938 169.890625 126.648438 L 169.941406 126.628906 L 169.808594 126.566406 C 169.0625 125.949219 166.359375 124.546875 166.359375 124.546875 C 166.246094 124.527344 165.902344 124.566406 165.5625 124.609375 C 165.660156 125 165.742188 125.390625 165.839844 125.785156 L 167.777344 126.792969 L 166.539062 127 C 166.472656 127.042969 166.375 127.308594 166.277344 127.636719 C 166.425781 128.277344 166.570312 128.898438 166.6875 129.472656 C 167.054688 129.441406 167.417969 129.402344 167.777344 129.351562 C 167.96875 129.226562 168.40625 127.433594 168.519531 127.019531 Z M 176.039062 125.183594 L 175.925781 125.144531 C 175.097656 124.585938 172.085938 123.328125 172.085938 123.328125 C 171.828125 123.308594 170.441406 123.660156 170.441406 123.660156 L 169.90625 123.78125 L 174.023438 125.492188 L 173.058594 125.71875 C 172.882812 125.886719 172.308594 128.152344 172.308594 128.152344 C 172.699219 128.359375 174.179688 127.984375 174.179688 127.984375 C 174.34375 127.863281 174.847656 125.96875 174.929688 125.636719 C 175.4375 125.535156 176.152344 125.367188 176.152344 125.367188 C 176.152344 125.328125 176.085938 125.265625 176.003906 125.203125 L 176.03125 125.183594 Z M 180.601562 123.824219 L 180.625 123.804688 L 180.515625 123.785156 C 179.636719 123.25 176.480469 122.09375 176.480469 122.09375 C 176.203125 122.09375 174.929688 122.488281 174.929688 122.488281 L 174.457031 122.632812 L 178.742188 124.199219 L 177.878906 124.488281 C 177.730469 124.65625 177.828125 126.902344 177.828125 126.902344 C 178.253906 127.066406 179.589844 126.636719 179.589844 126.636719 C 179.738281 126.46875 179.652344 124.714844 179.636719 124.285156 C 180.109375 124.179688 180.742188 123.996094 180.742188 123.996094 C 180.742188 123.953125 180.679688 123.890625 180.601562 123.828125 Z M 185.058594 122.464844 C 185.058594 122.421875 184.980469 122.359375 184.882812 122.316406 L 184.898438 122.300781 L 184.867188 122.300781 C 184.019531 121.804688 180.628906 120.734375 180.628906 120.734375 C 180.355469 120.75 179.199219 121.167969 179.199219 121.167969 L 178.742188 121.351562 L 183.136719 122.75 L 182.34375 123.042969 C 182.195312 123.226562 182.605469 125.453125 182.605469 125.453125 C 183.027344 125.578125 184.296875 125.125 184.296875 125.125 C 184.414062 124.957031 184.121094 123.207031 184.058594 122.796875 C 184.5 122.671875 185.066406 122.464844 185.066406 122.464844 Z M 183.222656 119.679688 L 182.859375 119.886719 L 187.335938 120.980469 L 186.601562 121.371094 C 186.535156 121.578125 187.785156 123.683594 187.785156 123.683594 C 188.242188 123.765625 189.253906 123.226562 189.253906 123.226562 C 189.320312 123.042969 188.375 121.410156 188.148438 121 C 188.515625 120.835938 189.023438 120.550781 189.023438 120.550781 C 189.023438 120.550781 188.941406 120.464844 188.84375 120.425781 L 188.828125 120.425781 C 187.933594 119.992188 184.433594 119.148438 184.433594 119.148438 C 184.144531 119.183594 183.21875 119.679688 183.21875 119.679688 Z M 191.527344 121.722656 C 191.980469 121.804688 192.988281 121.246094 192.988281 121.246094 C 193.003906 121.183594 192.90625 120.9375 192.746094 120.628906 C 192.433594 120.421875 192.140625 120.214844 191.835938 120.011719 C 191.558594 119.828125 191.261719 119.660156 190.972656 119.492188 C 190.859375 119.414062 190.738281 119.335938 190.609375 119.269531 L 190.34375 119.394531 C 190.285156 119.621094 191.519531 121.722656 191.519531 121.722656 Z M 186.605469 117.925781 L 189.585938 118.648438 C 189.324219 118.5 189.050781 118.359375 188.789062 118.214844 C 188.625 118.132812 188.480469 118.046875 188.332031 117.945312 C 188.167969 117.863281 188.019531 117.777344 187.859375 117.699219 C 187.710938 117.636719 187.582031 117.554688 187.4375 117.472656 C 187.191406 117.59375 186.964844 117.71875 186.964844 117.71875 Z M 186.605469 117.925781 "/>
<path style=" stroke:none;fill-rule:nonzero;fill:rgb(4.705882%,17.254902%,33.72549%);fill-opacity:1;" d="M 132.496094 159.867188 C 132.496094 159.867188 132.496094 159.851562 132.480469 159.828125 C 132.480469 159.828125 132.464844 159.867188 132.445312 159.886719 L 132.492188 159.867188 Z M 95.738281 121.578125 C 95.738281 121.578125 96.777344 123.082031 98.242188 125.144531 C 99.136719 124.257812 100.085938 123.433594 101.09375 122.605469 C 92.820312 110.976562 84.519531 99.285156 84.8125 99.222656 C 84.8125 99.222656 101.996094 106.007812 118.929688 112.730469 C 120.316406 112.214844 121.714844 111.738281 123.179688 111.285156 C 107.113281 104.976562 78.886719 93.925781 78.886719 93.925781 C 78.886719 93.925781 83.035156 103.699219 95.730469 121.574219 Z M 214.835938 193.890625 C 214.835938 193.890625 197.824219 187.171875 180.457031 180.261719 C 179.039062 180.777344 177.570312 181.25 176.09375 181.703125 C 192.289062 188.136719 222.648438 200.222656 222.648438 200.222656 C 222.648438 200.222656 204.351562 172.074219 202.808594 169.910156 C 202.808594 169.910156 202.203125 169.066406 201.292969 167.765625 C 200.398438 168.648438 199.457031 169.496094 198.460938 170.296875 C 206.941406 182.261719 215.164062 193.808594 214.835938 193.890625 Z M 214.835938 193.890625 "/>
<path style=" stroke:none;fill-rule:nonzero;fill:rgb(76.862745%,80.784314%,83.137255%);fill-opacity:1;" d="M 109.050781 117.246094 C 112.101562 115.535156 115.410156 114.023438 118.929688 112.730469 C 102.003906 106.007812 84.808594 99.222656 84.808594 99.222656 Z M 190.289062 117.144531 C 193.328125 118.828125 196.09375 120.703125 198.550781 122.730469 C 206.859375 111.308594 215.761719 99.613281 215.714844 99.183594 Z M 109.882812 176.160156 C 106.800781 174.492188 103.976562 172.640625 101.449219 170.632812 C 93.148438 182.300781 84.949219 193.847656 85.253906 193.933594 L 109.886719 176.15625 Z M 190.398438 175.726562 C 187.332031 177.441406 184 178.960938 180.453125 180.261719 C 191.90625 184.8125 203.363281 189.355469 214.835938 193.890625 Z M 190.398438 175.726562 "/>
<path style=" stroke:none;fill-rule:nonzero;fill:rgb(100%,100%,100%);fill-opacity:1;" d="M 167.511719 135.308594 C 167.019531 135.597656 165.410156 136.609375 163.40625 137.910156 C 158.40625 141.125 150.710938 146.136719 150.011719 146.671875 C 149.550781 147.042969 147.910156 148.15625 145.742188 149.578125 C 147.90625 148.15625 149.550781 147.042969 150.011719 146.671875 C 150.660156 146.175781 158.390625 141.125 163.40625 137.910156 C 165.429688 136.609375 167.019531 135.597656 167.511719 135.308594 Z M 167.511719 135.308594 "/>
<path style=" stroke:none;fill-rule:nonzero;fill:rgb(100%,100%,100%);fill-opacity:1;" d="M 149.996094 146.691406 C 150.070312 146.730469 150.140625 146.769531 150.207031 146.816406 C 150.15625 146.773438 150.09375 146.730469 150.058594 146.691406 Z M 149.996094 146.691406 "/>
<path style=" stroke:none;fill-rule:nonzero;fill:rgb(76.862745%,80.784314%,83.137255%);fill-opacity:1;" d="M 167.511719 135.308594 C 167.625 135.308594 167.773438 135.328125 167.914062 135.328125 C 167.851562 134.917969 167.71875 134.257812 167.554688 133.414062 C 167.34375 132.378906 167.035156 131.0625 166.679688 129.472656 C 166.570312 128.898438 166.417969 128.277344 166.273438 127.640625 C 166.125 127.039062 165.984375 126.421875 165.835938 125.785156 C 165.738281 125.390625 165.65625 125 165.558594 124.609375 C 165.171875 122.980469 164.746094 121.226562 164.308594 119.371094 C 163.558594 116.363281 162.761719 113.105469 161.929688 109.699219 C 161.800781 109.203125 161.691406 108.710938 161.558594 108.195312 C 156.574219 88.171875 150.441406 64.6875 150.015625 64.789062 L 150.015625 146.671875 C 150.714844 146.136719 158.410156 141.125 163.410156 137.90625 C 164.757812 137.027344 166.125 136.160156 167.515625 135.308594 Z M 167.511719 135.308594 "/>
<path style=" stroke:none;fill-rule:nonzero;fill:rgb(0%,36.078431%,36.078431%);fill-opacity:1;" d="M 91.535156 139.207031 C 91.832031 138.257812 92.1875 137.351562 92.578125 136.441406 L 92.578125 136.421875 C 92.945312 135.578125 93.371094 134.710938 93.84375 133.886719 C 93.84375 133.886719 93.878906 133.84375 93.898438 133.804688 C 94.367188 133 94.855469 132.195312 95.40625 131.410156 C 95.40625 131.390625 95.421875 131.390625 95.421875 131.351562 C 95.960938 130.609375 96.527344 129.867188 97.132812 129.125 C 97.230469 129.019531 97.328125 128.898438 97.421875 128.792969 C 98.027344 128.070312 98.644531 127.371094 99.332031 126.691406 C 100.191406 125.785156 101.152344 124.917969 102.148438 124.089844 C 102.699219 123.597656 103.285156 123.125 103.871094 122.667969 C 103.90625 122.652344 103.917969 122.628906 103.949219 122.609375 C 104.554688 122.15625 105.1875 121.679688 105.839844 121.226562 C 106.066406 121.0625 106.3125 120.917969 106.539062 120.75 C 106.800781 120.566406 107.058594 120.402344 107.335938 120.234375 C 107.570312 120.070312 107.816406 119.914062 108.070312 119.761719 C 108.867188 119.265625 109.679688 118.792969 110.507812 118.316406 C 110.574219 118.277344 110.640625 118.234375 110.71875 118.214844 C 110.996094 118.046875 111.304688 117.886719 111.597656 117.71875 C 112.308594 117.351562 113.027344 116.980469 113.761719 116.628906 C 113.890625 116.566406 114.035156 116.503906 114.179688 116.421875 C 114.800781 116.136719 115.433594 115.847656 116.070312 115.554688 C 116.183594 115.515625 116.289062 115.476562 116.398438 115.433594 C 117.097656 115.125 117.796875 114.832031 118.527344 114.546875 C 118.582031 114.527344 118.628906 114.503906 118.675781 114.484375 C 119.460938 114.175781 120.253906 113.886719 121.070312 113.597656 L 121.101562 113.597656 C 122.519531 113.082031 123.984375 112.628906 125.480469 112.199219 C 128.167969 111.429688 130.941406 110.789062 133.78125 110.277344 C 135.230469 110.03125 136.695312 109.824219 138.175781 109.617188 C 137.335938 113.0625 136.503906 116.382812 135.769531 119.414062 C 135.097656 122.121094 134.445312 124.828125 133.816406 127.539062 C 133.683594 128.054688 133.574219 128.546875 133.460938 129.042969 C 132.90625 131.433594 132.5 133.308594 132.269531 134.488281 C 132.207031 134.835938 132.15625 135.125 132.125 135.351562 C 132.222656 135.332031 132.335938 135.332031 132.433594 135.332031 C 136.90625 137.949219 148.632812 145.582031 150 146.671875 L 150 64.789062 C 149.691406 64.75 143.570312 88.152344 138.550781 108.132812 C 137.074219 108.300781 135.605469 108.503906 134.179688 108.734375 C 130.355469 109.371094 126.679688 110.238281 123.179688 111.289062 C 121.710938 111.742188 120.308594 112.214844 118.925781 112.730469 C 115.402344 114.023438 112.09375 115.539062 109.046875 117.25 L 84.804688 99.226562 C 84.515625 99.285156 92.8125 110.976562 101.085938 122.609375 C 100.074219 123.433594 99.132812 124.257812 98.234375 125.144531 C 94.550781 128.6875 91.8125 132.585938 90.128906 136.691406 C 89.769531 137.578125 89.464844 138.507812 89.1875 139.433594 C 89.972656 139.351562 90.75 139.289062 91.535156 139.207031 Z M 91.535156 139.207031 "/>
<path style=" stroke:none;fill-rule:nonzero;fill:rgb(76.862745%,80.784314%,83.137255%);fill-opacity:1;" d="M 149.996094 146.691406 L 150.011719 146.671875 C 149.550781 147.042969 147.910156 148.15625 145.742188 149.578125 C 145.433594 149.785156 145.125 149.988281 144.792969 150.195312 C 143.921875 150.773438 143.003906 151.371094 142.046875 151.988281 C 140.320312 153.101562 138.527344 154.257812 136.890625 155.289062 C 135.433594 156.214844 133.949219 157.121094 132.441406 158.011719 C 132.34375 158.011719 132.230469 158.011719 132.132812 157.992188 C 132.199219 158.402344 132.308594 159.042969 132.472656 159.824219 L 132.488281 159.847656 C 132.699219 160.917969 132.988281 162.238281 133.351562 163.804688 C 133.464844 164.320312 133.59375 164.855469 133.726562 165.394531 C 133.890625 166.09375 134.050781 166.835938 134.226562 167.601562 C 134.3125 167.949219 134.410156 168.300781 134.488281 168.671875 C 134.882812 170.28125 135.304688 172.011719 135.742188 173.847656 C 136.457031 176.796875 137.253906 179.992188 138.085938 183.3125 C 138.222656 183.808594 138.335938 184.300781 138.464844 184.796875 C 143.476562 204.859375 149.695312 228.59375 150.003906 228.554688 Z M 149.996094 146.691406 "/>
<path style=" stroke:none;fill-rule:nonzero;fill:rgb(0%,36.078431%,36.078431%);fill-opacity:1;" d="M 180.453125 180.261719 C 183.996094 178.960938 187.328125 177.441406 190.398438 175.726562 L 214.832031 193.890625 C 215.15625 193.808594 206.9375 182.261719 198.457031 170.300781 C 199.449219 169.5 200.390625 168.652344 201.289062 167.769531 C 204.800781 164.378906 207.453125 160.664062 209.148438 156.753906 C 209.523438 155.847656 209.886719 154.921875 210.175781 153.992188 L 207.800781 154.238281 C 207.472656 155.167969 207.117188 156.09375 206.695312 157 C 206.332031 157.808594 205.90625 158.609375 205.457031 159.375 C 205.421875 159.414062 205.390625 159.476562 205.351562 159.539062 C 204.914062 160.28125 204.445312 161.023438 203.925781 161.746094 C 203.925781 161.746094 203.910156 161.765625 203.910156 161.785156 C 202.820312 163.3125 201.570312 164.796875 200.183594 166.21875 C 199.304688 167.105469 198.375 167.972656 197.398438 168.820312 L 197.382812 168.820312 C 196.714844 169.375 196.03125 169.933594 195.320312 170.488281 C 195.230469 170.542969 195.152344 170.605469 195.089844 170.671875 C 194.351562 171.210938 193.609375 171.746094 192.8125 172.285156 C 192.550781 172.449219 192.304688 172.632812 192.050781 172.800781 C 191.785156 172.964844 191.511719 173.128906 191.25 173.292969 C 191.039062 173.417969 190.828125 173.558594 190.613281 173.683594 C 190.253906 173.890625 189.902344 174.117188 189.539062 174.324219 C 189.347656 174.425781 189.148438 174.53125 188.953125 174.652344 C 188.882812 174.683594 188.816406 174.71875 188.761719 174.757812 C 188.582031 174.839844 188.398438 174.964844 188.222656 175.046875 C 188.078125 175.128906 187.949219 175.191406 187.816406 175.273438 C 187.101562 175.644531 186.367188 176.015625 185.632812 176.367188 C 185.5 176.429688 185.367188 176.488281 185.222656 176.550781 C 184.609375 176.859375 183.953125 177.148438 183.300781 177.4375 C 183.207031 177.480469 183.09375 177.523438 182.992188 177.5625 C 182.277344 177.875 181.542969 178.164062 180.828125 178.449219 C 180.777344 178.46875 180.746094 178.492188 180.714844 178.492188 C 179.898438 178.820312 179.085938 179.109375 178.253906 179.421875 C 176.8125 179.914062 175.339844 180.371094 173.84375 180.800781 L 173.804688 180.800781 C 171.429688 181.480469 169.003906 182.058594 166.480469 182.511719 L 166.464844 182.511719 C 165.019531 182.800781 163.550781 183.027344 162.070312 183.234375 L 162.054688 183.234375 C 162.882812 179.953125 163.664062 176.820312 164.398438 173.890625 C 165.148438 170.820312 165.835938 168.035156 166.402344 165.640625 C 166.515625 165.109375 166.644531 164.613281 166.746094 164.117188 C 167.261719 161.910156 167.65625 160.160156 167.882812 159 C 167.960938 158.589844 168.011719 158.238281 168.058594 157.992188 C 167.882812 157.992188 167.734375 158.011719 167.585938 158.011719 C 163.253906 155.476562 152.140625 148.238281 150.199219 146.816406 C 150.136719 146.769531 150.066406 146.730469 149.988281 146.691406 L 150.003906 228.554688 C 150.3125 228.59375 156.597656 204.796875 161.675781 184.738281 C 163.15625 184.527344 164.625 184.324219 166.070312 184.074219 C 169.539062 183.476562 172.890625 182.675781 176.082031 181.703125 C 177.570312 181.253906 179.035156 180.777344 180.449219 180.261719 Z M 180.453125 180.261719 "/>
<path style=" stroke:none;fill-rule:nonzero;fill:rgb(76.862745%,80.784314%,83.137255%);fill-opacity:1;" d="M 150.011719 146.671875 C 148.640625 145.578125 136.921875 137.949219 132.445312 135.328125 C 132.34375 135.328125 132.234375 135.328125 132.128906 135.351562 C 129.558594 135.496094 121.746094 136.214844 111.421875 137.226562 C 105.464844 137.804688 98.660156 138.484375 91.535156 139.207031 C 90.75 139.289062 89.972656 139.351562 89.191406 139.433594 C 58.238281 142.589844 22.296875 146.402344 22.460938 146.671875 Z M 150.011719 146.671875 "/>
<path style=" stroke:none;fill-rule:nonzero;fill:rgb(4.705882%,17.254902%,33.72549%);fill-opacity:1;" d="M 249.363281 152.691406 C 253.671875 152.238281 257.746094 151.785156 261.519531 151.375 C 286.753906 148.527344 300.019531 146.464844 300.019531 146.464844 C 300.019531 146.464844 277.132812 143.90625 251.542969 141.125 C 245.878906 140.484375 240.0625 139.863281 234.335938 139.246094 C 234.148438 139.222656 233.957031 139.203125 233.765625 139.183594 C 224.777344 132.730469 214.34375 127.410156 203.066406 122.953125 C 203.179688 122.789062 203.277344 122.644531 203.390625 122.5 C 204.46875 121.019531 205.183594 120.007812 205.183594 120.007812 C 206.289062 118.5 207.292969 117.101562 208.226562 115.78125 C 217.375 103.058594 219.488281 99.140625 219.488281 99.140625 L 223.074219 94.171875 L 185.273438 107.714844 L 176.382812 111.304688 C 177.847656 111.757812 179.265625 112.234375 180.648438 112.75 C 197.609375 105.882812 215.335938 98.832031 215.714844 99.183594 C 215.765625 99.613281 206.859375 111.308594 198.554688 122.730469 C 199.566406 123.554688 200.507812 124.398438 201.390625 125.265625 C 204.019531 127.816406 206.160156 130.558594 207.769531 133.433594 C 210.253906 134.632812 212.675781 135.886719 215.035156 137.183594 C 213.09375 136.976562 211.15625 136.773438 209.335938 136.566406 C 209.691406 137.496094 210.019531 138.421875 210.28125 139.351562 C 238.441406 142.195312 271.097656 145.617188 277.996094 146.464844 C 278.84375 146.585938 279.320312 146.648438 279.320312 146.648438 C 279.382812 146.851562 241.859375 150.8125 210.179688 153.988281 C 209.890625 154.917969 209.527344 155.84375 209.15625 156.75 C 218.628906 155.800781 230.21875 154.628906 237.972656 153.84375 C 249.089844 165 256.179688 179.269531 256.179688 198.546875 C 256.179688 250.492188 197.15625 285.132812 141.367188 285.132812 C 104.464844 285.132812 84.796875 271.046875 74.542969 271.046875 C 74.542969 271.046875 51.277344 278.78125 40.925781 280.203125 L 40.925781 208.757812 C 53.207031 213.625 69.609375 264.929688 143.441406 264.929688 C 168.867188 264.929688 192.648438 250.863281 192.648438 223.441406 C 192.648438 207.273438 181.441406 196.671875 165.09375 188.015625 C 165.433594 186.632812 165.757812 185.292969 166.085938 184.074219 C 164.640625 184.320312 163.175781 184.527344 161.691406 184.734375 C 156.613281 204.796875 150.328125 228.59375 150.023438 228.550781 C 149.714844 228.59375 143.496094 204.859375 138.480469 184.796875 C 136.996094 184.628906 135.535156 184.421875 134.101562 184.175781 C 134.507812 185.804688 134.964844 187.601562 135.421875 189.433594 L 140.480469 209.417969 C 145.824219 229.933594 150.007812 242.59375 150.007812 242.59375 C 150.007812 242.59375 154.238281 229.933594 159.613281 209.4375 L 160.574219 205.621094 C 161.238281 203.085938 162.152344 199.519531 163.109375 195.746094 C 163.222656 195.3125 163.320312 194.878906 163.433594 194.445312 C 175.566406 202.320312 183.769531 211.5625 183.769531 223.191406 C 183.769531 244.097656 167.097656 258.800781 141.929688 258.800781 C 99.132812 258.800781 76.570312 237.417969 56.664062 212.21875 C 51.632812 205.847656 42.5 199.660156 31.769531 198.878906 L 31.769531 288.453125 L 76.601562 278.1875 C 86.664062 280.164062 102.910156 290.535156 144.441406 290.535156 C 209.246094 290.535156 265.261719 251.875 265.261719 197.292969 C 265.261719 179.125 259.105469 164.546875 248.851562 152.75 C 249.027344 152.726562 249.207031 152.707031 249.367188 152.6875 Z M 249.363281 152.691406 "/>
<path style=" stroke:none;fill-rule:nonzero;fill:rgb(4.705882%,17.254902%,33.72549%);fill-opacity:1;" d="M 73.351562 154.898438 C 74.003906 154.980469 74.636719 155.042969 75.289062 155.105469 C 81.539062 158.464844 88.230469 161.519531 95.148438 164.425781 C 93.175781 162.035156 91.59375 159.519531 90.441406 156.921875 C 90.230469 156.796875 90.019531 156.691406 89.808594 156.589844 C 89.972656 156.609375 90.148438 156.632812 90.308594 156.632812 C 89.914062 155.71875 89.574219 154.796875 89.285156 153.863281 C 58.367188 150.710938 22.40625 146.855469 22.457031 146.671875 C 22.292969 146.402344 58.238281 142.585938 89.1875 139.433594 C 89.464844 138.503906 89.769531 137.578125 90.132812 136.691406 C 81.082031 137.597656 70.300781 138.710938 62.941406 139.453125 C 48.683594 127.167969 39.183594 111 39.183594 88.109375 C 39.183594 43.757812 92.570312 13.816406 139.738281 13.816406 C 156.941406 13.816406 170.078125 17.773438 179.949219 21.753906 C 189.761719 26.085938 196.320312 30.046875 201.253906 30.046875 C 201.253906 30.046875 220.414062 24.683594 229.125 22.476562 L 229.125 86.316406 C 206.089844 75.757812 199.597656 34.003906 146.292969 34.003906 C 124.136719 34.003906 104.050781 46.644531 104.050781 67.554688 C 104.050781 84.914062 116.972656 95.699219 135.277344 104.460938 C 134.898438 105.964844 134.527344 107.410156 134.1875 108.726562 C 135.621094 108.503906 137.085938 108.296875 138.566406 108.132812 C 143.578125 88.148438 149.699219 64.746094 150.011719 64.785156 C 150.433594 64.683594 156.566406 88.171875 161.550781 108.191406 C 163.03125 108.375 164.496094 108.582031 165.925781 108.851562 L 163.648438 99.757812 C 161.628906 91.757812 159.640625 83.859375 159.640625 83.859375 C 154.285156 63.257812 149.773438 52.539062 149.773438 52.539062 C 149.773438 52.539062 145.804688 63.40625 140.464844 83.882812 C 140.464844 83.882812 140.125 85.28125 139.554688 87.488281 C 138.988281 89.777344 138.171875 92.957031 137.328125 96.375 C 137.246094 96.601562 137.195312 96.851562 137.128906 97.078125 C 122.429688 88.398438 113.28125 78.5 113.28125 67.386719 C 113.28125 51.445312 125.230469 40 150.398438 40 C 183.132812 40 195.390625 63.796875 214.898438 84.914062 C 219.472656 89.878906 229.367188 94.066406 238.304688 95.46875 L 238.304688 14.023438 C 238.304688 14.023438 208.464844 21.796875 200.308594 23.546875 C 186.46875 16.578125 160.785156 7.671875 139.707031 7.671875 C 88.421875 7.671875 30.527344 41.878906 30.527344 87.699219 C 30.527344 111.472656 39.511719 127.929688 53.625 140.402344 L 51.949219 140.585938 C 47.550781 141.042969 43.382812 141.515625 39.472656 141.929688 C 14.359375 144.671875 0 146.464844 0 146.464844 C 0 146.464844 19.777344 149.269531 53.148438 152.816406 C 53.589844 152.878906 54.027344 152.921875 54.484375 152.960938 Z M 119.421875 180.382812 C 102.332031 187.273438 85.398438 194.097656 85.253906 193.933594 C 84.941406 193.851562 93.148438 182.300781 101.449219 170.628906 C 100.4375 169.824219 99.476562 168.992188 98.570312 168.136719 C 97.335938 169.890625 96.472656 171.125 96.472656 171.125 C 95.972656 171.828125 95.476562 172.511719 94.988281 173.1875 C 82.859375 190.199219 75.113281 200.035156 75.113281 200.035156 C 75.113281 200.035156 86.34375 196.878906 117.144531 184.484375 C 117.144531 184.484375 118.757812 183.828125 121.066406 182.898438 C 121.898438 182.566406 122.8125 182.21875 123.777344 181.828125 C 122.292969 181.390625 120.839844 180.910156 119.425781 180.386719 Z M 119.421875 180.382812 "/>
<path style=" stroke:none;fill-rule:nonzero;fill:rgb(0%,36.078431%,36.078431%);fill-opacity:1;" d="M 138.46875 184.800781 C 138.335938 184.304688 138.226562 183.808594 138.09375 183.3125 C 136.609375 183.128906 135.144531 182.902344 133.699219 182.632812 C 131.078125 182.179688 128.539062 181.582031 126.078125 180.921875 L 126.042969 180.921875 L 126.042969 180.902344 C 124.53125 180.46875 123.070312 180.035156 121.617188 179.542969 L 121.601562 179.523438 L 121.566406 179.523438 C 120.800781 179.253906 120.035156 178.964844 119.300781 178.695312 C 119.253906 178.695312 119.238281 178.675781 119.207031 178.675781 C 118.503906 178.386719 117.789062 178.121094 117.105469 177.808594 L 116.90625 177.75 C 116.257812 177.460938 115.636719 177.191406 115.019531 176.902344 C 114.90625 176.863281 114.796875 176.8125 114.695312 176.761719 C 113.980469 176.429688 113.273438 176.101562 112.609375 175.75 C 112.449219 175.667969 112.300781 175.605469 112.152344 175.523438 L 112.003906 175.460938 C 111.777344 175.339844 111.585938 175.214844 111.355469 175.089844 C 111.132812 174.980469 110.914062 174.863281 110.707031 174.738281 C 110.25 174.496094 109.808594 174.242188 109.382812 173.976562 C 109.269531 173.914062 109.171875 173.851562 109.042969 173.769531 C 108.683594 173.5625 108.332031 173.359375 107.96875 173.132812 C 107.664062 172.945312 107.371094 172.753906 107.09375 172.554688 C 106.308594 172.042969 105.542969 171.503906 104.792969 170.96875 C 104.730469 170.90625 104.664062 170.863281 104.585938 170.785156 C 103.867188 170.269531 103.167969 169.710938 102.5 169.15625 C 101.496094 168.324219 100.550781 167.460938 99.664062 166.578125 C 96.640625 163.578125 94.3125 160.320312 92.746094 156.90625 C 92.328125 155.984375 91.964844 155.058594 91.65625 154.121094 C 98.851562 154.863281 105.710938 155.546875 111.695312 156.140625 C 121.871094 157.132812 129.570312 157.851562 132.125 157.996094 C 132.226562 158.015625 132.335938 158.015625 132.4375 158.015625 C 133.945312 157.125 135.425781 156.21875 136.882812 155.296875 C 139.546875 153.613281 142.183594 151.917969 144.792969 150.203125 C 145.117188 149.996094 145.429688 149.789062 145.738281 149.585938 C 147.902344 148.160156 149.546875 147.046875 150.003906 146.675781 L 22.464844 146.675781 C 22.414062 146.859375 58.375 150.71875 89.292969 153.875 C 89.582031 154.824219 89.921875 155.75 90.320312 156.640625 C 90.351562 156.738281 90.414062 156.824219 90.445312 156.925781 C 91.601562 159.542969 93.199219 162.058594 95.15625 164.433594 C 88.234375 161.523438 81.542969 158.472656 75.292969 155.113281 C 74.640625 155.050781 74.003906 154.988281 73.355469 154.90625 L 54.488281 152.964844 C 54.039062 152.925781 53.59375 152.878906 53.148438 152.820312 C 64.300781 160.363281 78.1875 167.085938 94.988281 173.191406 C 95.472656 172.511719 95.960938 171.828125 96.46875 171.128906 C 96.46875 171.128906 97.332031 169.894531 98.570312 168.140625 C 99.480469 169.007812 100.441406 169.832031 101.449219 170.636719 C 103.980469 172.640625 106.804688 174.492188 109.882812 176.160156 L 85.253906 193.933594 C 85.398438 194.101562 102.332031 187.273438 119.421875 180.386719 C 120.839844 180.90625 122.304688 181.398438 123.769531 181.832031 C 122.808594 182.222656 121.898438 182.574219 121.066406 182.902344 C 126.222656 185.070312 131.011719 187.253906 135.40625 189.441406 C 134.949219 187.609375 134.496094 185.8125 134.085938 184.183594 C 135.523438 184.429688 136.988281 184.636719 138.472656 184.800781 Z M 138.46875 184.800781 "/>
<path style=" stroke:none;fill-rule:nonzero;fill:rgb(76.862745%,80.784314%,83.137255%);fill-opacity:1;" d="M 150.058594 146.691406 C 150.09375 146.734375 150.15625 146.773438 150.207031 146.816406 C 152.140625 148.238281 163.257812 155.472656 167.59375 158.011719 C 167.738281 158.011719 167.882812 157.988281 168.066406 157.988281 C 170.785156 157.824219 178.382812 157.125 188.414062 156.15625 C 194.222656 155.578125 200.835938 154.917969 207.800781 154.238281 C 208.582031 154.152344 209.382812 154.070312 210.179688 153.988281 C 241.859375 150.816406 279.378906 146.855469 279.316406 146.671875 Z M 150.058594 146.691406 "/>
<path style=" stroke:none;fill-rule:nonzero;fill:rgb(0%,36.078431%,36.078431%);fill-opacity:1;" d="M 161.550781 108.195312 C 161.683594 108.710938 161.792969 109.203125 161.925781 109.699219 C 163.40625 109.90625 164.875 110.132812 166.320312 110.398438 C 169.003906 110.898438 171.609375 111.515625 174.117188 112.238281 C 175.617188 112.648438 177.082031 113.125 178.511719 113.621094 C 180.058594 114.175781 181.558594 114.753906 183.023438 115.390625 C 183.054688 115.410156 183.101562 115.433594 183.132812 115.433594 C 183.785156 115.722656 184.4375 116.011719 185.085938 116.320312 C 185.171875 116.363281 185.265625 116.402344 185.351562 116.441406 C 186.058594 116.773438 186.746094 117.125 187.429688 117.472656 C 187.578125 117.558594 187.707031 117.640625 187.855469 117.699219 C 188.019531 117.785156 188.164062 117.867188 188.328125 117.945312 C 188.476562 118.050781 188.617188 118.128906 188.785156 118.214844 C 189.050781 118.359375 189.324219 118.503906 189.585938 118.648438 L 190.609375 119.265625 C 190.722656 119.328125 190.855469 119.410156 190.96875 119.492188 C 191.257812 119.660156 191.550781 119.824219 191.828125 120.011719 C 192.136719 120.214844 192.429688 120.421875 192.738281 120.625 C 193.554688 121.144531 194.320312 121.699219 195.066406 122.277344 C 195.164062 122.339844 195.261719 122.421875 195.375 122.523438 C 196.113281 123.058594 196.808594 123.636719 197.476562 124.214844 C 198.472656 125.058594 199.398438 125.925781 200.277344 126.8125 C 203.15625 129.769531 205.367188 132.96875 206.851562 136.316406 C 207.058594 136.773438 207.261719 137.226562 207.421875 137.679688 C 207.601562 138.15625 207.796875 138.628906 207.929688 139.101562 C 200.832031 138.402344 194.074219 137.742188 188.164062 137.164062 C 178.121094 136.171875 170.535156 135.492188 167.914062 135.328125 C 167.769531 135.328125 167.625 135.308594 167.511719 135.308594 C 167.019531 135.597656 165.425781 136.609375 163.40625 137.910156 C 158.390625 141.125 150.660156 146.175781 150.011719 146.671875 L 149.996094 146.691406 L 150.058594 146.691406 L 279.316406 146.671875 C 279.316406 146.671875 278.84375 146.585938 277.996094 146.464844 C 271.09375 145.617188 238.4375 142.191406 210.277344 139.347656 C 210.007812 138.414062 209.691406 137.484375 209.328125 136.5625 C 208.875 135.511719 208.355469 134.464844 207.769531 133.429688 C 206.15625 130.558594 204.015625 127.816406 201.386719 125.261719 C 200.5 124.394531 199.554688 123.546875 198.550781 122.730469 C 196.089844 120.699219 193.320312 118.828125 190.28125 117.140625 L 215.710938 99.179688 C 215.335938 98.828125 197.605469 105.878906 180.644531 112.746094 C 179.253906 112.234375 177.832031 111.75 176.382812 111.304688 C 173.023438 110.285156 169.523438 109.464844 165.929688 108.851562 C 164.484375 108.589844 163.019531 108.371094 161.542969 108.191406 Z M 161.550781 108.195312 "/>
</g>
</svg>
