<?xml version="1.0" encoding="UTF-8"?>
<svg xmlns="http://www.w3.org/2000/svg" xmlns:xlink="http://www.w3.org/1999/xlink" width="300px" height="300px" viewBox="0 0 300 300" version="1.1">
<g id="surface1">
<path style=" stroke:none;fill-rule:nonzero;fill:rgb(56.078431%,73.72549%,90.196078%);fill-opacity:1;" d="M 76.851562 18.085938 L 31.054688 18.085938 L 30.839844 18.175781 C 14.539062 25.128906 8.976562 49.378906 7.867188 55.175781 C 7.867188 55.21875 7.847656 55.28125 7.847656 55.304688 L 0.742188 54.898438 L 0 61.335938 L 13.058594 62.074219 L 13.585938 59.292969 C 14.460938 54.664062 19.632812 31.292969 34.484375 24.6875 L 76.847656 24.6875 L 76.847656 18.085938 Z M 193.441406 89.144531 L 193.441406 280.910156 L 212.226562 280.910156 L 199.554688 280.910156 L 199.554688 95.53125 C 202.25 95.464844 207.320312 95.296875 207.320312 95.296875 C 207.671875 95.296875 225.023438 94.449219 236.617188 106.316406 C 243.488281 113.34375 247.054688 123.511719 247.273438 136.566406 C 247.292969 135.890625 247.300781 135.1875 247.300781 134.464844 C 247.300781 86.0625 204.28125 88.695312 204.28125 88.695312 C 202.007812 88.695312 197.105469 88.695312 194.519531 88.972656 L 193.4375 89.144531 Z M 206.0625 180.898438 L 206.0625 193.441406 L 208.882812 193.699219 C 214.058594 194.125 258.945312 199.070312 259.828125 236.160156 C 259.859375 235.4375 259.878906 234.71875 259.878906 233.972656 C 259.878906 192.449219 210.339844 187.4375 206.070312 187.054688 L 206.070312 180.898438 L 206.058594 180.898438 Z M 147.753906 203.804688 C 147.753906 203.804688 121.503906 198.667969 117.265625 197.816406 L 117.265625 24.667969 L 159.6875 24.667969 C 173.5625 30.863281 179.671875 57.785156 181.214844 65.917969 L 181.738281 68.699219 L 194.792969 67.957031 L 187.394531 0 L 181.925781 0 L 188.632812 61.523438 L 187.933594 61.542969 L 186.597656 61.652344 L 181.480469 61.949219 C 180.414062 56.382812 174.296875 25.179688 157.859375 18.128906 L 157.652344 18.066406 L 111.457031 18.066406 L 111.457031 197.285156 C 111.457031 197.285156 140.078125 202.914062 141.972656 203.273438 L 141.972656 213.121094 L 46.570312 213.121094 L 46.550781 219.769531 L 147.753906 219.769531 Z M 159.175781 92.921875 C 159.175781 92.921875 129.277344 87.617188 127.382812 87.316406 L 127.382812 77.382812 L 127.363281 77.382812 L 127.363281 93.429688 C 127.363281 93.429688 154.820312 98.292969 159.15625 99.054688 Z M 286.558594 197.5625 C 276.667969 187.09375 263.53125 182.824219 253.886719 181.042969 C 267.472656 173.800781 287.558594 158.113281 287.558594 128.5625 C 287.558594 93.621094 265.761719 77.378906 218.964844 77.378906 L 216.410156 77.378906 C 259.570312 77.484375 281.460938 91.390625 281.460938 125.273438 C 281.460938 167.585938 237.910156 179.773438 237.910156 179.773438 L 237.910156 179.792969 C 237.910156 179.792969 294.085938 178.390625 294.085938 232.441406 C 294.085938 273.5625 269.65625 293.515625 227.792969 293.515625 L 127.382812 293.515625 L 127.382812 284.15625 L 127.34375 284.15625 L 127.363281 286.957031 L 127.363281 300.160156 L 230.835938 300.160156 C 275.554688 300.160156 300.191406 277.296875 300.191406 235.707031 C 300.191406 219.957031 295.613281 207.070312 286.558594 197.554688 "/>
<path style=" stroke:none;fill-rule:nonzero;fill:rgb(100%,100%,100%);fill-opacity:1;" d="M 127.382812 293.542969 L 227.796875 293.542969 C 269.65625 293.542969 294.089844 273.566406 294.089844 232.445312 C 294.089844 178.390625 237.917969 179.8125 237.917969 179.8125 L 237.917969 179.769531 C 237.917969 179.769531 281.464844 167.585938 281.464844 125.277344 C 281.464844 91.394531 259.574219 77.488281 216.414062 77.402344 C 216.238281 77.378906 216.089844 77.378906 215.941406 77.378906 L 127.386719 77.378906 L 127.386719 87.316406 C 129.28125 87.613281 159.175781 92.921875 159.175781 92.921875 L 159.175781 277.660156 L 159.15625 277.660156 C 158.351562 277.835938 129.234375 283.308594 127.386719 283.628906 L 127.386719 293.539062 Z M 247.300781 134.46875 C 247.300781 135.1875 247.292969 135.890625 247.273438 136.570312 C 245.886719 176.164062 206.078125 180.558594 206.078125 180.558594 L 206.078125 187.054688 C 210.339844 187.4375 259.878906 192.445312 259.878906 233.972656 C 259.878906 234.714844 259.859375 235.4375 259.828125 236.160156 C 259.023438 258.640625 245.492188 280.910156 213.21875 280.910156 L 193.441406 280.910156 L 193.441406 89.140625 L 194.523438 88.972656 C 197.109375 88.695312 202.011719 88.695312 204.285156 88.695312 C 204.285156 88.695312 247.308594 86.066406 247.308594 134.46875 "/>
<path style=" stroke:none;fill-rule:nonzero;fill:rgb(100%,100%,100%);fill-opacity:1;" d="M 46.570312 203.273438 L 46.570312 213.121094 L 141.96875 213.121094 L 141.96875 203.273438 C 140.078125 202.914062 111.46875 197.285156 111.46875 197.285156 L 111.46875 18.066406 L 157.652344 18.066406 L 157.871094 18.128906 C 174.296875 25.179688 180.414062 56.40625 181.484375 61.949219 L 186.605469 61.648438 L 187.933594 61.542969 L 188.632812 61.519531 L 181.925781 0.0234375 L 181.925781 0 L 6.804688 0.0859375 L 0.738281 54.898438 L 7.84375 55.320312 C 7.84375 55.277344 7.863281 55.214844 7.863281 55.167969 C 8.972656 49.375 14.539062 25.128906 30.851562 18.167969 L 31.054688 18.082031 L 76.851562 18.082031 L 76.851562 197.28125 C 76.851562 197.28125 48.765625 202.910156 46.570312 203.269531 "/>
</g>
</svg>
