<?xml version="1.0" encoding="UTF-8"?>
<svg xmlns="http://www.w3.org/2000/svg" xmlns:xlink="http://www.w3.org/1999/xlink" width="300px" height="300px" viewBox="0 0 300 300" version="1.1">
<g id="surface1">
<path style=" stroke:none;fill-rule:nonzero;fill:rgb(80%,20.392157%,20%);fill-opacity:1;" d="M 46.394531 91.695312 L 46.34375 100.191406 L 8.203125 100.191406 L 22.253906 115.796875 L 63.164062 115.796875 L 63.1875 109.632812 C 63.1875 75.53125 66.882812 53.875 107.558594 50.007812 L 107.558594 45.476562 C 63.652344 45.566406 46.441406 58.402344 46.394531 91.691406 M 178.042969 151.429688 L 178.042969 226.441406 C 178.042969 230.324219 179.046875 234.125 191.054688 234.125 L 197.097656 234.125 L 197.097656 158.445312 C 197.097656 143.097656 221.324219 137.242188 221.324219 137.242188 C 221.324219 137.242188 215.363281 135.199219 209.359375 131.425781 L 198.882812 133.996094 C 198.683594 134.0625 178.039062 139.34375 178.039062 151.429688 M 281.1875 8.605469 L 281.1875 100.191406 L 252.859375 100.191406 L 267.992188 116.824219 L 299.285156 116.824219 L 299.285156 25.371094 M 178.042969 107.789062 C 178.042969 117.0625 193.402344 124.382812 199.308594 126.402344 L 205.078125 128.394531 C 200.664062 124.808594 197.09375 120.238281 197.09375 114.832031 L 197.09375 50.992188 L 200.507812 51.191406 C 210.820312 51.191406 220.554688 54.257812 228.671875 59.476562 C 217.8125 50.613281 200.753906 45.886719 178.042969 45.695312 L 178.042969 107.792969 Z M 80.40625 281.816406 L 80.40625 281.941406 L 95.289062 299.113281 L 229.882812 299.113281 L 229.882812 259.601562 L 213.925781 243.246094 L 213.925781 281.816406 "/>
<path style=" stroke:none;fill-rule:nonzero;fill:rgb(100%,100%,100%);fill-opacity:1;" d="M 9.148438 92.1875 L 37.480469 92.1875 C 37.480469 91.929688 37.503906 91.738281 37.503906 91.5625 C 37.503906 90.964844 37.445312 90.707031 37.285156 91.265625 C 37.285156 54.003906 59.101562 37.390625 108.007812 37.390625 L 116.714844 37.390625 L 116.714844 107.792969 C 116.714844 119.277344 107.847656 126.078125 100.71875 129.941406 C 107.882812 133.507812 116.710938 139.878906 116.710938 151.429688 L 116.710938 225.816406 C 116.710938 235.886719 108.542969 242.15625 95.386719 242.15625 L 80.78125 242.15625 L 80.78125 273.792969 L 204.773438 273.792969 L 204.773438 242.15625 L 191.054688 242.15625 C 172.734375 242.15625 168.890625 233.632812 168.890625 226.445312 L 168.890625 151.429688 C 168.890625 139.917969 179.179688 133.375 187.238281 129.8125 C 179.285156 125.667969 168.890625 118.476562 168.890625 107.792969 L 168.890625 41.425781 L 172.304688 37.5625 L 176.882812 37.5625 C 224.246094 37.5625 251.441406 56.429688 251.441406 89.375 L 251.394531 92.1875 L 272.027344 92.1875 L 272.027344 8.050781 L 9.144531 8.050781 L 9.144531 92.191406 Z M 9.148438 92.1875 "/>
<path style=" stroke:none;fill-rule:nonzero;fill:rgb(0%,19.607843%,47.058824%);fill-opacity:1;" d="M 281.1875 8.605469 L 281.1875 0 L 0 0 L 0 100.191406 L 46.34375 100.191406 L 46.398438 91.691406 C 46.445312 58.402344 63.652344 45.566406 107.558594 45.480469 L 107.558594 107.789062 C 107.558594 120.605469 89.351562 126.3125 89.140625 126.3125 L 75.601562 130.476562 L 89.359375 133.996094 C 90.132812 134.191406 107.558594 138.785156 107.558594 151.425781 L 107.558594 225.8125 C 107.558594 227.855469 107.558594 234.101562 95.386719 234.101562 L 71.652344 234.101562 L 71.652344 281.8125 L 213.921875 281.8125 L 213.921875 234.101562 L 191.054688 234.101562 C 179.046875 234.101562 178.042969 230.324219 178.042969 226.4375 L 178.042969 151.429688 C 178.042969 139.34375 198.6875 134.0625 198.878906 134 L 209.359375 131.421875 L 212.015625 130.738281 L 205.082031 128.375 L 199.3125 126.402344 C 193.402344 124.382812 178.042969 117.066406 178.042969 107.789062 L 178.042969 45.699219 C 200.742188 45.894531 217.824219 50.617188 228.6875 59.480469 C 237.59375 66.734375 242.285156 76.757812 242.285156 89.335938 L 242.164062 100.195312 L 281.1875 100.195312 Z M 272.023438 92.1875 L 251.394531 92.1875 L 251.441406 89.375 C 251.441406 56.429688 224.246094 37.5625 176.882812 37.5625 L 172.300781 37.5625 L 168.894531 41.429688 L 168.894531 107.789062 C 168.894531 118.476562 179.289062 125.667969 187.238281 129.808594 C 179.179688 133.375 168.894531 139.921875 168.894531 151.425781 L 168.894531 226.4375 C 168.894531 233.628906 172.734375 242.148438 191.058594 242.148438 L 204.777344 242.148438 L 204.777344 273.789062 L 80.78125 273.789062 L 80.78125 242.148438 L 95.386719 242.148438 C 108.542969 242.148438 116.710938 235.882812 116.710938 225.8125 L 116.710938 151.429688 C 116.710938 139.878906 107.882812 133.503906 100.714844 129.9375 C 107.84375 126.082031 116.710938 119.277344 116.710938 107.792969 L 116.710938 37.386719 L 108.003906 37.386719 C 59.097656 37.386719 37.285156 54.003906 37.285156 91.265625 C 37.441406 90.703125 37.503906 90.960938 37.503906 91.5625 C 37.503906 91.734375 37.480469 91.929688 37.480469 92.1875 L 9.144531 92.1875 L 9.144531 8.050781 L 272.023438 8.050781 L 272.023438 92.191406 Z M 272.023438 92.1875 "/>
</g>
</svg>
