<?xml version="1.0" encoding="UTF-8"?>
<svg xmlns="http://www.w3.org/2000/svg" xmlns:xlink="http://www.w3.org/1999/xlink" width="300px" height="300px" viewBox="0 0 300 300" version="1.1">
<g id="surface1">
<path style=" stroke:none;fill-rule:nonzero;fill:rgb(7.45098%,29.019608%,55.686275%);fill-opacity:1;" d="M 91.480469 107.917969 C 91.480469 107.917969 89.734375 102.835938 91.972656 97.632812 C 92.847656 95.582031 94.519531 93.710938 96.742188 92.175781 C 113.226562 79.375 148.140625 92.496094 148.140625 92.496094 C 139.851562 91.621094 133.03125 91.785156 127.304688 92.691406 C 137.035156 96.1875 147.457031 100.960938 154.515625 102.925781 C 163.1875 105.386719 168.953125 106.632812 177.585938 107.222656 L 177.308594 103.300781 L 182.117188 104.246094 L 194.914062 106.757812 L 196.796875 101.234375 L 198.878906 95.117188 L 202.941406 99.679688 C 203.03125 99.769531 209.316406 106.882812 212.628906 110.589844 C 212.050781 103.601562 210.558594 85.8125 210.546875 85.613281 L 209.945312 78.414062 L 215.71875 81.140625 L 222.011719 84.066406 L 231.476562 66.148438 L 234.675781 60.070312 L 237.914062 66.148438 L 245.539062 80.605469 C 248.191406 68.054688 250.097656 54.757812 255.671875 48.609375 C 250.09375 48.839844 246.15625 50.675781 240.066406 55.628906 C 243.523438 44.792969 248.628906 36.734375 255.550781 27.554688 C 248.835938 28.734375 242.425781 30.980469 236.136719 35.113281 C 238.535156 28.480469 238.699219 20.28125 238.699219 20.28125 C 209.226562 59.949219 127.050781 59.433594 105.773438 67.523438 C 91.8125 72.835938 84.652344 81.65625 79.679688 90.359375 C 79.203125 99.359375 84.839844 107.917969 91.480469 107.917969 Z M 91.480469 107.917969 "/>
<path style=" stroke:none;fill-rule:nonzero;fill:rgb(11.372549%,17.647059%,36.078431%);fill-opacity:1;" d="M 210.351562 164.761719 L 204.851562 172.425781 L 210.351562 164.761719 "/>
<path style=" stroke:none;fill-rule:nonzero;fill:rgb(11.372549%,17.647059%,36.078431%);fill-opacity:1;" d="M 196.210938 177.648438 L 201.960938 169.644531 L 205.066406 165.277344 L 193.019531 153.210938 C 186.46875 164.835938 180.085938 177.398438 177.039062 187.132812 L 190.296875 187.042969 C 183.484375 196.828125 170.351562 213.035156 161.523438 230.914062 C 152.691406 205.796875 132.015625 173.445312 94.664062 155.691406 C 83.828125 150.539062 73.621094 143.710938 74.949219 133.78125 C 56.234375 130.679688 35.773438 128.183594 12.578125 127.292969 C 10.800781 127.257812 9.171875 127.242188 7.703125 127.222656 C 6.34375 127.167969 5.996094 127.84375 7.472656 129.164062 C 13.839844 134.527344 35.40625 144.207031 61.882812 149.914062 C 74.625 152.660156 80.453125 156.6875 89.578125 164.101562 C 109.480469 180.25 136.605469 223.460938 153.144531 279.773438 C 184.5 209.164062 220.914062 177.472656 223.796875 175.046875 L 205.144531 176.792969 L 196.207031 177.652344 Z M 6.867188 125.421875 C 20.144531 124.796875 38.789062 124.03125 71.351562 125.296875 C 74.105469 125.328125 76.8125 125.417969 79.449219 125.472656 C 81.09375 122.941406 84.078125 120.695312 89.761719 120.695312 L 91.453125 120.695312 C 102.023438 120.875 103.984375 133.457031 115.222656 133.457031 C 126.421875 133.457031 128.394531 120.980469 138.890625 120.710938 C 139.175781 120.710938 139.496094 120.695312 139.769531 120.695312 L 178.550781 120.695312 L 178.019531 113.226562 L 139.191406 113.226562 C 128.429688 113.226562 126.523438 100.480469 115.210938 100.480469 C 104.070312 100.480469 102.0625 113.101562 91.707031 113.191406 C 80.488281 112.40625 76.046875 101.535156 75.167969 92.28125 C 70.261719 94.707031 67.738281 97.539062 64.058594 104.296875 C 23.96875 111.980469 10.25 119.414062 6.652344 124.050781 C 6.121094 124.871094 6.347656 125.261719 6.867188 125.425781 Z M 110.917969 106.277344 C 110.132812 109.96875 110.570312 113.105469 110.757812 114.742188 L 106.992188 114.742188 C 106.90625 111.460938 108.582031 108.074219 110.917969 106.277344 Z M 110.917969 106.277344 "/>
<path style=" stroke:none;fill-rule:nonzero;fill:rgb(100%,100%,100%);fill-opacity:1;" d="M 110.917969 106.277344 C 108.582031 108.078125 106.90625 111.460938 106.992188 114.742188 L 110.757812 114.742188 C 110.574219 113.105469 110.136719 109.96875 110.921875 106.277344 Z M 110.917969 106.277344 "/>
<path style=" stroke:none;fill-rule:nonzero;fill:rgb(100%,100%,100%);fill-opacity:1;" d="M 300.050781 129.523438 L 293.847656 127.042969 L 290.457031 125.6875 L 291.65625 108.914062 L 292.046875 103.296875 L 287.25 104.242188 L 274.433594 106.753906 L 272.5625 101.230469 L 270.480469 95.113281 L 266.40625 99.675781 C 266.328125 99.765625 260.046875 106.878906 256.71875 110.589844 C 257.324219 103.601562 258.800781 85.8125 258.808594 85.613281 L 259.417969 78.414062 L 253.648438 81.140625 L 251.042969 82.351562 C 251.304688 80.925781 251.558594 79.5 251.796875 78.109375 C 253.328125 69.269531 257.15625 53.796875 264.398438 41.976562 C 264.398438 41.976562 259.777344 40.691406 252.683594 43.082031 C 250.671875 43.761719 252.527344 43.117188 252.460938 43.136719 C 254.8125 36.628906 265.304688 19.949219 265.304688 19.949219 C 265.304688 19.949219 250.441406 19.644531 244.847656 23.566406 C 248.324219 10.285156 245.425781 0 245.425781 0 L 233.875 15.507812 C 213.980469 42.296875 165.464844 49.679688 133.363281 54.582031 C 120.386719 56.578125 110.121094 58.144531 103.800781 60.554688 C 88.507812 66.347656 80.503906 76.277344 75.746094 84.03125 L 72.703125 85.527344 C 66.867188 88.398438 63.550781 92.085938 60.292969 97.558594 C 27.253906 104.082031 8.167969 111.140625 1.949219 119.09375 L 1.535156 119.679688 C 0.136719 121.890625 -0.320312 124.492188 0.222656 126.867188 C 0.0273438 128.933594 0.386719 132.035156 3.539062 134.921875 L 3.757812 135.117188 C 11.300781 141.445312 33.832031 151.339844 60.734375 157.152344 C 72.804688 159.738281 77.988281 161.820312 85.683594 169.898438 C 123.949219 210.078125 142.75 270.417969 151.277344 299.808594 L 160.847656 279.398438 C 192.828125 214.335938 224.148438 184.265625 224.519531 183.855469 L 231.148438 176.867188 L 231.324219 177.257812 L 234.671875 184.726562 L 238.03125 177.242188 L 239.285156 174.441406 L 264.210938 176.796875 L 273.160156 177.652344 L 267.410156 169.648438 L 264.292969 165.28125 L 295.078125 134.511719 L 300.054688 129.519531 Z M 105.773438 67.523438 C 127.050781 59.433594 209.226562 59.949219 238.691406 20.285156 C 238.691406 20.285156 238.527344 28.484375 236.128906 35.113281 C 242.417969 30.980469 248.832031 28.734375 255.542969 27.558594 C 248.621094 36.738281 243.519531 44.796875 240.058594 55.632812 C 246.148438 50.675781 250.085938 48.839844 255.664062 48.609375 C 250.089844 54.757812 248.183594 68.058594 245.53125 80.605469 L 237.90625 66.148438 L 234.667969 60.070312 L 231.46875 66.148438 L 222.003906 84.066406 L 215.714844 81.140625 L 209.9375 78.414062 L 210.539062 85.617188 C 210.550781 85.8125 212.042969 103.601562 212.621094 110.589844 C 209.308594 106.882812 203.023438 99.769531 202.933594 99.679688 L 198.871094 95.117188 L 196.789062 101.230469 L 194.90625 106.757812 L 182.109375 104.242188 L 177.304688 103.300781 L 177.578125 107.222656 C 168.945312 106.632812 163.179688 105.386719 154.507812 102.921875 C 147.445312 100.960938 137.027344 96.183594 127.296875 92.691406 C 133.023438 91.78125 139.84375 91.621094 148.132812 92.496094 C 148.132812 92.496094 113.21875 79.375 96.734375 92.175781 C 94.511719 93.707031 92.839844 95.578125 91.964844 97.625 C 89.730469 102.832031 91.472656 107.910156 91.472656 107.910156 C 84.832031 107.910156 79.195312 99.359375 79.671875 90.355469 C 84.648438 81.652344 91.808594 72.832031 105.769531 67.519531 Z M 6.652344 124.050781 C 10.25 119.414062 23.964844 111.980469 64.054688 104.296875 C 67.738281 97.542969 70.261719 94.707031 75.167969 92.285156 C 76.042969 101.535156 80.484375 112.40625 91.703125 113.195312 C 102.0625 113.105469 104.066406 100.480469 115.210938 100.480469 C 126.515625 100.480469 128.421875 113.226562 139.1875 113.226562 L 178.015625 113.226562 L 178.546875 120.695312 L 139.765625 120.695312 C 139.496094 120.695312 139.171875 120.714844 138.890625 120.714844 C 128.394531 120.980469 126.417969 133.460938 115.222656 133.460938 C 103.980469 133.460938 102.023438 120.875 91.449219 120.695312 L 89.757812 120.695312 C 84.074219 120.695312 81.09375 122.941406 79.449219 125.472656 C 76.8125 125.421875 74.105469 125.332031 71.351562 125.296875 C 38.789062 124.027344 20.144531 124.796875 6.867188 125.417969 C 6.34375 125.261719 6.121094 124.871094 6.652344 124.050781 Z M 153.144531 279.773438 C 136.609375 223.460938 109.480469 180.253906 89.582031 164.101562 C 80.457031 156.6875 74.628906 152.65625 61.886719 149.914062 C 35.40625 144.207031 13.839844 134.53125 7.476562 129.167969 C 6 127.847656 6.34375 127.167969 7.707031 127.222656 C 9.175781 127.238281 10.804688 127.257812 12.582031 127.292969 C 35.777344 128.183594 56.238281 130.679688 74.953125 133.78125 C 73.625 143.710938 83.832031 150.539062 94.667969 155.691406 C 132.019531 173.445312 152.695312 205.796875 161.53125 230.914062 C 170.355469 213.03125 183.488281 196.832031 190.300781 187.042969 L 177.042969 187.132812 C 180.089844 177.402344 186.472656 164.835938 193.023438 153.214844 L 205.070312 165.28125 L 201.964844 169.644531 L 196.210938 177.652344 L 205.148438 176.792969 L 223.800781 175.046875 C 220.917969 177.472656 184.503906 209.167969 153.148438 279.773438 Z M 259.019531 164.761719 L 264.503906 172.429688 L 237.089844 169.84375 L 235.929688 172.445312 L 234.6875 175.226562 L 234.671875 175.246094 L 234.050781 173.804688 L 233.734375 173.109375 L 232.265625 169.847656 L 217.601562 171.238281 L 217.585938 171.21875 L 206.785156 172.253906 L 204.855469 172.429688 L 210.355469 164.765625 L 176.742188 131.179688 L 182.902344 128.71875 L 181.484375 108.558594 L 197.296875 111.710938 L 200.316406 102.835938 C 200.316406 102.835938 210.511719 114.351562 211.863281 115.851562 C 212.738281 116.8125 213.71875 117.363281 214.5625 117.363281 C 215.875 117.363281 216.863281 115.972656 216.589844 112.621094 C 216.570312 112.320312 216.519531 111.820312 216.476562 111.195312 C 215.960938 105.117188 214.308594 85.242188 214.300781 85.191406 L 223.558594 89.503906 L 234.667969 68.449219 L 234.683594 68.449219 L 245.800781 89.503906 L 250.050781 87.523438 L 255.058594 85.191406 C 255.050781 85.242188 253.390625 105.121094 252.882812 111.199219 C 252.835938 111.824219 252.792969 112.320312 252.765625 112.625 C 252.5 115.976562 253.472656 117.367188 254.804688 117.367188 C 255.636719 117.367188 256.613281 116.792969 257.496094 115.851562 C 258.847656 114.351562 269.050781 102.835938 269.050781 102.835938 L 272.058594 111.710938 L 287.890625 108.558594 L 286.453125 128.71875 L 292.617188 131.175781 L 259.015625 164.757812 Z M 259.019531 164.761719 "/>
<path style=" stroke:none;fill-rule:nonzero;fill:rgb(90.980392%,16.078431%,10.980392%);fill-opacity:1;" d="M 287.890625 108.558594 L 272.058594 111.710938 L 269.050781 102.835938 C 269.050781 102.835938 258.847656 114.351562 257.496094 115.851562 C 256.609375 116.792969 255.632812 117.363281 254.804688 117.363281 C 253.472656 117.363281 252.496094 115.972656 252.765625 112.621094 C 252.789062 112.320312 252.835938 111.820312 252.882812 111.195312 C 253.605469 102.527344 254.328125 93.859375 255.058594 85.191406 L 250.050781 87.523438 L 245.800781 89.503906 L 234.683594 68.453125 L 234.667969 68.453125 L 223.558594 89.503906 L 214.300781 85.191406 C 214.308594 85.242188 215.960938 105.121094 216.476562 111.199219 C 216.519531 111.824219 216.570312 112.320312 216.59375 112.625 C 216.859375 115.976562 215.875 117.367188 214.5625 117.367188 C 213.714844 117.367188 212.738281 116.8125 211.863281 115.851562 C 210.511719 114.351562 200.3125 102.835938 200.3125 102.835938 L 197.292969 111.710938 L 181.484375 108.558594 L 182.898438 128.71875 L 176.742188 131.175781 L 210.347656 164.757812 L 204.847656 172.425781 L 206.78125 172.246094 L 217.582031 171.214844 L 232.261719 169.839844 L 233.726562 173.101562 L 234.042969 173.796875 L 234.683594 175.222656 L 235.929688 172.441406 L 237.085938 169.835938 L 264.496094 172.421875 L 259.015625 164.757812 L 292.617188 131.171875 L 286.449219 128.714844 Z M 287.890625 108.558594 "/>
</g>
</svg>
