<svg xmlns="http://www.w3.org/2000/svg" width="129.494" height="185.66" viewBox="0 0 129.494 185.66"><path fill="#fff" d="M110.426 102.617v19.01l-8.422.01c-.388-1.65-18.278-76.424-18.278-76.424H56.91s-17.856 74.775-18.244 76.425h-6.36V17.996h14.027V0L.72.118v17.878h13.213V122.52H0v18.162h34.108c-.566 2.355-5.842 24.39-6.183 25.875H14.063v19.103l47.356-.095v-19.008H48.086c.507-2.344 5.572-24.357 5.9-25.875H86.66a7019.1 7019.1 0 0 1 5.923 25.875H79.24v19.008l47.356.095-.012-19.103h-13.85c-.34-1.485-5.618-23.52-6.17-25.875h22.93v-38.065zm-52.09 19.02c.563-2.378 10.622-46.25 11.988-52.292 1.39 6.042 11.435 49.913 11.978 52.293H58.335Z" style="fill:#fff"/></svg>