<?xml version="1.0" encoding="UTF-8"?>
<svg xmlns="http://www.w3.org/2000/svg" xmlns:xlink="http://www.w3.org/1999/xlink" width="300px" height="300px" viewBox="0 0 300 300" version="1.1">
<defs>
<clipPath id="clip1">
  <path d="M 0 0 L 0 299.601562 L 309.058594 299.601562 C 309 298.984375 309.011719 298.199219 308.941406 297.742188 C 308.855469 297.125 308.640625 295.09375 308.441406 292.882812 C 308.03125 290.863281 307.371094 288.859375 307.507812 286.808594 C 307.632812 284.882812 308 282.640625 308.640625 280.472656 C 307.703125 277.617188 306.476562 273.128906 310.070312 276.457031 C 309.96875 276.148438 309.875 275.855469 310.078125 275.769531 C 310.324219 275.671875 310.570312 275.589844 310.824219 275.507812 C 311.355469 274.667969 311.957031 273.917969 312.636719 273.285156 C 312.65625 272.902344 312.6875 272.519531 312.730469 272.140625 C 312.8125 271.398438 313.023438 270.648438 313.386719 270.03125 C 314.207031 268.644531 315.171875 267.375 316.226562 266.230469 C 316.53125 265.90625 316.976562 265.835938 317.371094 265.714844 C 319.304688 265.144531 319.09375 265.238281 320.699219 265.335938 L 320.792969 265.351562 L 321.285156 264.363281 C 321.933594 263.078125 322.785156 261.921875 323.714844 260.898438 C 324.324219 260.226562 324.984375 259.078125 325.757812 259 C 325.871094 258.992188 325.984375 259 326.101562 259.035156 C 330.195312 260.378906 331.003906 261.59375 332.667969 264 L 332.863281 264.5 L 333.035156 264.921875 L 333.035156 0 Z M 0 0 "/>
</clipPath>
</defs>
<g id="surface1">
<g clip-path="url(#clip1)" clip-rule="nonzero">
<path style=" stroke:none;fill-rule:nonzero;fill:rgb(89.019608%,83.137255%,67.843137%);fill-opacity:1;" d="M 110.152344 254.613281 L 149.863281 177.140625 C 150.898438 181.902344 152.984375 191.378906 153.300781 192.832031 C 151.261719 196.914062 120.550781 258.636719 120.550781 258.636719 C 120.550781 258.636719 165.859375 215.140625 167.9375 213.148438 C 168.703125 214.203125 201.511719 260.449219 201.511719 260.449219 C 201.511719 260.449219 186.082031 200.585938 185.039062 196.503906 C 185.828125 195.046875 190.976562 185.492188 194.238281 179.417969 L 208.285156 254.757812 L 180.214844 299.601562 L 300.851562 299.601562 L 243.195312 0 L 162.953125 0.0585938 L 0 299.601562 L 128.589844 299.601562 Z M 151.289062 174.375 L 176.597656 125.007812 L 184.089844 125.007812 L 193.296875 174.375 Z M 151.289062 174.375 "/>
</g>
<path style=" stroke:none;fill-rule:nonzero;fill:rgb(0%,0%,0%);fill-opacity:1;" d="M 174.960938 11.789062 L 234.710938 11.789062 L 287.628906 287.792969 L 201.660156 287.792969 L 220.867188 257.597656 L 193.296875 114.332031 L 170.503906 114.308594 L 96.957031 254.871094 L 110.675781 287.667969 L 25.5 287.667969 L 17.140625 293.6875 L 119.859375 293.6875 L 103.605469 254.753906 L 173.359375 119.605469 L 188.550781 119.605469 L 214.890625 256.101562 L 191.230469 293.703125 L 294.296875 293.703125 L 239.15625 5.734375 L 171.511719 5.671875 Z M 174.960938 11.789062 "/>
<path style=" stroke:none;fill-rule:nonzero;fill:rgb(0%,0%,0%);fill-opacity:1;" d="M 86.089844 237.40625 L 94.992188 230.871094 L 79.15625 187.082031 L 129.613281 150.355469 L 112.273438 114.230469 L 161.078125 86.867188 L 145.320312 54.625 L 182.898438 35.226562 L 169.171875 11.789062 L 165.988281 6.375 L 9.285156 293.585938 Z M 86.089844 237.40625 "/>
<path style=" stroke:none;fill-rule:nonzero;fill:rgb(65.490196%,9.803922%,18.823529%);fill-opacity:1;" d="M 158.917969 193.734375 L 139.675781 232.367188 C 139.675781 232.367188 165.046875 208.011719 168.644531 204.566406 L 189.054688 233.304688 L 179.339844 195.605469 L 187.492188 180.484375 L 156.011719 180.484375 C 156.011719 180.488281 158.378906 191.320312 158.917969 193.734375 Z M 158.917969 193.734375 "/>
<path style=" stroke:none;fill-rule:nonzero;fill:rgb(65.490196%,9.803922%,18.823529%);fill-opacity:1;" d="M 96.957031 254.871094 L 170.503906 114.308594 L 193.296875 114.332031 L 220.867188 257.597656 L 201.660156 287.792969 L 287.628906 287.792969 L 234.710938 11.789062 L 174.960938 11.789062 L 189.6875 38.054688 L 152.566406 57.453125 L 168.550781 89.617188 L 119.78125 116.738281 L 136.101562 151.894531 L 85.625 188.855469 L 101.171875 233.160156 L 25.5 287.667969 L 110.675781 287.667969 Z M 96.957031 254.871094 "/>
</g>
</svg>
