<?xml version="1.0" encoding="UTF-8"?>
<svg xmlns="http://www.w3.org/2000/svg" xmlns:xlink="http://www.w3.org/1999/xlink" width="300px" height="300px" viewBox="0 0 300 300" version="1.1">
<g id="surface1">
<path style=" stroke:none;fill-rule:nonzero;fill:rgb(100%,100%,100%);fill-opacity:1;" d="M 193.367188 202.007812 C 165.167969 207.574219 149.707031 207.261719 125.804688 214.402344 C 105.289062 259.976562 83.332031 299.539062 51.957031 299.992188 C 10.53125 300.601562 -4.621094 265.023438 1.207031 243.78125 C 5.507812 228.132812 9.378906 228.601562 9.378906 237.328125 C 9.378906 242.054688 21.003906 269.277344 50.21875 267.730469 C 64.851562 266.984375 76.84375 251.683594 89.246094 228.601562 C 80.605469 232.5625 72.039062 236.707031 63.554688 241.039062 C 56.765625 244.507812 56.25 243.3125 57.542969 237.328125 C 58.492188 232.933594 68.480469 207.046875 106.574219 193.199219 C 135.265625 131.613281 172.53125 47.6875 248.867188 5.128906 C 252.703125 2.992188 266.742188 -7.933594 256.199219 10.660156 C 220.9375 72.792969 210.398438 127.121094 212.085938 169.835938 C 240.171875 158.914062 255.394531 142.929688 257.921875 119.371094 C 258.929688 110.136719 261.300781 109.996094 266.09375 115.707031 C 271.707031 122.375 283.648438 174.289062 214.902344 196.550781 C 223.453125 245.742188 248.417969 273.296875 261.792969 270.984375 C 275.660156 268.53125 286.300781 252.566406 284.152344 229.972656 C 282.898438 216.832031 287.523438 221.734375 291.878906 226.304688 C 304.808594 239.640625 303.710938 282.59375 278.140625 294.480469 C 241.226562 311.582031 206.292969 270.984375 193.371094 202.007812 Z M 191.28125 92.664062 C 170.75 112.078125 154.441406 148.699219 138.289062 185.84375 C 138.625 185.789062 138.917969 185.789062 139.246094 185.746094 C 158.535156 183.511719 175.191406 180.726562 189.835938 176.980469 C 187.253906 151.363281 187.453125 122.882812 191.28125 92.664062 Z M 191.28125 92.664062 "/>
</g>
</svg>
