<?xml version="1.0" encoding="UTF-8"?>
<svg xmlns="http://www.w3.org/2000/svg" xmlns:xlink="http://www.w3.org/1999/xlink" width="300px" height="300px" viewBox="0 0 300 300" version="1.1">
<g id="surface1">
<path style="fill-rule:nonzero;fill:rgb(80%,20.392157%,20%);fill-opacity:1;stroke-width:16;stroke-linecap:butt;stroke-linejoin:miter;stroke:rgb(100%,100%,100%);stroke-opacity:1;stroke-miterlimit:4;" d="M 223.999349 8.003333 C 104.706055 8.003333 8.001953 104.708333 8.001953 224 C 8.001953 343.291667 104.706055 440.0025 223.999349 440.0025 C 303.161133 440.154167 376.069661 396.9875 413.998698 327.500833 L 337.000651 281.499167 C 310.327474 333.48 251.535807 360.43 194.747396 346.715833 C 137.958984 332.995833 97.949219 282.17 97.949219 223.749167 C 97.949219 165.328333 137.958984 114.508333 194.747396 100.788333 C 251.535807 87.068333 310.327474 114.024167 337.000651 165.999167 L 413.998698 120.003333 C 375.936849 50.709167 303.05599 7.7525 223.999349 8.003333 " transform="matrix(0.705882,0,0,0.669643,0,0)"/>
</g>
</svg>
