<?xml version="1.0" encoding="UTF-8"?>
<svg xmlns="http://www.w3.org/2000/svg" xmlns:xlink="http://www.w3.org/1999/xlink" width="300px" height="300px" viewBox="0 0 300 300" version="1.1">
<g id="surface1">
<path style=" stroke:none;fill-rule:nonzero;fill:rgb(0%,0%,0%);fill-opacity:1;" d="M 172.394531 60.644531 C 211.5625 60.644531 241.125 86.070312 251.050781 108.136719 L 300.371094 108.136719 C 299.472656 105.621094 297.261719 97.207031 297.261719 97.207031 L 250.160156 97.207031 C 240.234375 75.140625 209.3125 49.710938 170.132812 49.710938 C 103.515625 49.710938 77.378906 111.976562 77.378906 141.796875 C 77.378906 159.070312 80.953125 174.257812 87.039062 187.199219 C 83.058594 176.675781 82.117188 160.824219 82.117188 150.570312 C 82.117188 120.746094 107.269531 60.644531 172.390625 60.644531 Z M 172.394531 60.644531 "/>
<path style=" stroke:none;fill-rule:nonzero;fill:rgb(0%,0%,0%);fill-opacity:1;" d="M 168.382812 289.527344 C 100.28125 289.527344 73.507812 248.449219 41.972656 201.355469 C 29.035156 182.042969 20.949219 164.601562 0 142.875 L 4.308594 156.867188 C 24.449219 180.035156 32.765625 196.773438 45.695312 216.082031 C 77.234375 263.179688 103.550781 300.25 171.664062 300.25 C 231.28125 300.25 277.441406 258.820312 299.136719 207.835938 L 295.882812 197.109375 C 274.171875 248.09375 228.027344 289.523438 168.382812 289.523438 Z M 168.382812 289.527344 "/>
<path style=" stroke:none;fill-rule:nonzero;fill:rgb(100%,100%,100%);fill-opacity:1;" d="M 170.136719 49.710938 C 209.3125 49.710938 240.234375 75.140625 250.160156 97.207031 L 297.261719 97.207031 C 275.425781 36.550781 219.039062 0 162.65625 0 C 107.273438 0 64.953125 44.914062 40.671875 85.371094 C 17.121094 124.582031 6.300781 137.15625 2.164062 141.105469 C 0.644531 142.558594 0 142.878906 0 142.878906 C 20.949219 164.605469 29.035156 182.046875 41.972656 201.355469 C 73.507812 248.449219 100.28125 289.527344 168.382812 289.527344 C 228.027344 289.527344 274.171875 248.101562 295.878906 197.113281 L 249.308594 197.113281 C 227.507812 220.382812 200.824219 239.160156 166.898438 239.160156 C 135.5625 239.160156 102.835938 220.777344 87.042969 187.199219 C 80.957031 174.261719 77.378906 159.070312 77.378906 141.796875 C 77.378906 111.976562 103.519531 49.710938 170.136719 49.710938 Z M 170.136719 49.710938 "/>
</g>
</svg>
