<?xml version="1.0" encoding="UTF-8"?>
<svg xmlns="http://www.w3.org/2000/svg" xmlns:xlink="http://www.w3.org/1999/xlink" width="300px" height="300px" viewBox="0 0 300 300" version="1.1">
<g id="surface1">
<path style=" stroke:none;fill-rule:nonzero;fill:rgb(20%,0%,43.529412%);fill-opacity:1;" d="M 71.949219 19.113281 C 71.949219 19.113281 12.230469 38.554688 12.171875 101.757812 C 12.097656 166.511719 69.746094 178.746094 69.746094 178.746094 C 69.746094 178.746094 40.070312 147.792969 40.15625 98.109375 C 40.265625 44.613281 71.949219 19.113281 71.949219 19.113281 "/>
<path style=" stroke:none;fill-rule:nonzero;fill:rgb(76.862745%,80.784314%,83.137255%);fill-opacity:1;" d="M 275.003906 278.96875 C 262.648438 268.886719 240.117188 215.898438 221.492188 212.414062 C 228.316406 209.5625 271.273438 201.246094 271.472656 162.667969 C 271.273438 120.960938 224.769531 107.449219 178.265625 107.449219 C 168.371094 107.449219 150.355469 108.058594 132.042969 108.957031 C 108.796875 110.167969 96.871094 111.066406 79.164062 112.277344 L 79.164062 126.464844 C 104.144531 126.464844 109.378906 131.285156 109.378906 153.925781 L 109.378906 180.910156 C 74.953125 174.875 52.363281 143.0625 52.363281 98.351562 C 52.363281 51.011719 79.140625 17.71875 118.25 17.71875 C 132.96875 17.71875 145.910156 22.613281 156.210938 31.464844 C 166.515625 40.316406 173.863281 53.152344 177.105469 68.722656 L 190.921875 68.722656 L 188.292969 4.886719 L 177.394531 4.886719 C 176.21875 7.941406 174.757812 9.167969 172.089844 9.167969 C 164.746094 9.167969 147.394531 0 115.910156 0 C 81.796875 0 52.660156 10.390625 32.371094 28.714844 C 11.777344 47.339844 0 72.695312 0 103.234375 C 0 124.308594 7.351562 148.132812 24.132812 167.066406 C 40.890625 186.007812 67.96875 199.75 107.375 199.75 C 108.050781 199.75 108.699219 199.703125 109.382812 199.695312 L 109.382812 259.246094 C 109.382812 281.273438 103.570312 285.800781 79.164062 285.800781 L 79.164062 299.988281 L 189.3125 299.988281 L 189.3125 285.800781 C 166.628906 285.800781 158.207031 283.082031 158.207031 260.753906 L 158.207031 220.316406 L 173.609375 220.316406 C 173.609375 220.316406 230.386719 300 231.933594 300 C 235.953125 299.988281 299.734375 299.96875 299.734375 299.96875 L 299.734375 285.855469 C 299.734375 285.851562 286.925781 287.601562 275.003906 278.96875 M 12.171875 101.757812 C 12.230469 38.550781 71.945312 19.109375 71.945312 19.109375 C 71.945312 19.109375 40.265625 44.613281 40.160156 98.109375 C 40.066406 147.785156 69.742188 178.746094 69.742188 178.746094 C 69.742188 178.746094 12.101562 166.511719 12.171875 101.757812 M 146.375 285.753906 L 121.277344 285.753906 L 121.277344 124.015625 L 146.375 122.570312 Z M 256.65625 163.484375 C 256.78125 195.257812 209.988281 203.257812 209.988281 203.257812 C 209.988281 203.257812 227.277344 194.609375 227.285156 163.839844 C 227.304688 132.777344 210.75 123.992188 210.75 123.992188 C 210.75 123.992188 256.53125 127.421875 256.65625 163.484375 M 158.207031 205.523438 L 158.207031 195.5625 C 159.304688 195.527344 160.433594 195.472656 161.507812 195.472656 C 165.054688 195.472656 168.277344 195.472656 170.921875 196.085938 C 173.863281 196.386719 176.816406 196.996094 179.457031 197.914062 L 180.347656 195.777344 C 188.871094 175.011719 195.933594 152.410156 198.28125 134.996094 L 184.457031 134.996094 C 177.429688 150.644531 168.648438 162.363281 158.207031 170.1875 L 158.207031 121.9375 L 172.449219 121.9375 C 200.632812 121.9375 215.472656 137.625 215.472656 161.460938 C 215.472656 192.550781 200.367188 206.125 158.207031 205.523438 M 233.292969 285.839844 C 233.292969 285.839844 200.953125 237.816406 186.097656 220.613281 C 186.097656 220.613281 197.007812 219.183594 202.328125 217.90625 C 207.179688 216.761719 210.714844 215.601562 210.714844 215.601562 C 223.394531 220.898438 241.503906 244.410156 251.183594 263.628906 C 261.609375 280.972656 269.074219 285.910156 269.074219 285.910156 Z M 233.292969 285.839844 "/>
<path style=" stroke:none;fill-rule:nonzero;fill:rgb(20%,0%,43.529412%);fill-opacity:1;" d="M 121.28125 285.753906 L 146.375 285.753906 L 146.375 122.570312 L 121.28125 124.011719 Z M 227.289062 163.835938 C 227.273438 194.605469 209.992188 203.257812 209.992188 203.257812 C 209.992188 203.257812 256.78125 195.253906 256.660156 163.480469 C 256.527344 127.417969 210.746094 123.988281 210.746094 123.988281 C 210.746094 123.988281 227.308594 132.777344 227.289062 163.835938 M 251.183594 263.628906 C 241.503906 244.402344 223.390625 220.898438 210.714844 215.601562 C 210.714844 215.601562 207.183594 216.757812 202.328125 217.90625 C 197.007812 219.183594 186.097656 220.613281 186.097656 220.613281 C 200.957031 237.816406 233.292969 285.839844 233.292969 285.839844 L 269.074219 285.910156 C 269.074219 285.910156 261.609375 280.972656 251.183594 263.628906 "/>
</g>
</svg>
