<?xml version="1.0" encoding="UTF-8"?>
<svg xmlns="http://www.w3.org/2000/svg" xmlns:xlink="http://www.w3.org/1999/xlink" width="300px" height="300px" viewBox="0 0 300 300" version="1.1">
<g id="surface1">
<path style=" stroke:none;fill-rule:nonzero;fill:rgb(100%,100%,100%);fill-opacity:1;" d="M 256.804688 165.511719 L 256.804688 196.171875 L 237.21875 196.1875 C 236.316406 193.527344 194.710938 72.925781 194.710938 72.925781 L 132.347656 72.925781 C 132.347656 72.925781 90.824219 193.527344 89.921875 196.191406 L 75.128906 196.191406 L 75.128906 29.027344 L 107.75 29.027344 L 107.75 0 L 1.675781 0.191406 L 1.675781 29.027344 L 32.402344 29.027344 L 32.402344 197.613281 L 0 197.613281 L 0 226.90625 L 79.320312 226.90625 C 78.003906 230.703125 65.734375 266.246094 64.941406 268.640625 L 32.703125 268.640625 L 32.703125 299.453125 L 142.835938 299.296875 L 142.835938 268.640625 L 111.828125 268.640625 C 113.007812 264.859375 124.785156 229.355469 125.550781 226.90625 L 201.535156 226.90625 C 206.164062 240.8125 210.753906 254.722656 215.308594 268.640625 L 184.277344 268.640625 L 184.277344 299.296875 L 294.410156 299.453125 L 294.382812 268.640625 L 262.171875 268.640625 C 261.382812 266.246094 249.105469 230.703125 247.824219 226.90625 L 301.148438 226.90625 L 301.148438 165.511719 Z M 135.664062 196.1875 C 136.972656 192.351562 160.367188 121.59375 163.542969 111.847656 C 166.777344 121.59375 190.136719 192.351562 191.398438 196.191406 L 135.664062 196.191406 Z M 135.664062 196.1875 "/>
</g>
</svg>
