<?xml version="1.0" encoding="UTF-8"?>
<svg xmlns="http://www.w3.org/2000/svg" xmlns:xlink="http://www.w3.org/1999/xlink" width="300px" height="300px" viewBox="0 0 300 300" version="1.1">
<g id="surface1">
<path style=" stroke:none;fill-rule:nonzero;fill:rgb(100%,100%,100%);fill-opacity:1;" d="M 119.707031 145.90625 C 118.46875 147.304688 117.285156 148.757812 116.167969 150.261719 C 114.617188 152.1875 112.3125 156.011719 111.015625 158.648438 C 111.015625 158.648438 110.59375 159.496094 110.539062 159.621094 C 108.695312 163.546875 107.269531 167.667969 106.292969 171.910156 C 106.023438 174.851562 106.0625 177.8125 106.410156 180.746094 C 107.140625 173.796875 109.136719 167.050781 112.300781 160.863281 C 112.449219 160.566406 112.609375 160.28125 112.765625 159.988281 C 113.929688 157.824219 115.25 155.75 116.714844 153.785156 C 117.84375 152.277344 119.046875 150.828125 120.320312 149.445312 L 120.328125 149.433594 C 120.457031 148.847656 120.59375 148.257812 120.734375 147.671875 C 121.066406 146.289062 121.457031 144.917969 121.910156 143.570312 L 121.90625 143.574219 C 121.152344 144.328125 120.421875 145.105469 119.707031 145.90625 Z M 119.707031 145.90625 "/>
<path style=" stroke:none;fill-rule:nonzero;fill:rgb(0%,63.921569%,87.843137%);fill-opacity:1;" d="M 214.195312 61.5625 L 213.984375 61.554688 C 213.074219 61.527344 212.164062 61.511719 211.253906 61.511719 C 206.191406 61.511719 202.007812 61.941406 199.960938 62.195312 L 199.394531 62.265625 L 198.875 62.023438 C 192.167969 58.761719 185.171875 57.671875 185.171875 57.671875 L 184.753906 56.785156 C 178.433594 43.339844 167.308594 23.304688 150.195312 4.207031 C 148.328125 2.277344 147.242188 1.21875 146.070312 0.179688 C 145.550781 1.804688 145.074219 3.445312 144.632812 5.09375 C 143.300781 9.683594 142.359375 15.679688 142.542969 25.867188 C 142.625 30.253906 142.003906 41.894531 136.976562 51.121094 C 133.964844 56.648438 129.203125 61.214844 121.605469 66.496094 L 121.535156 66.539062 C 120.953125 66.910156 118.621094 68.410156 118.035156 68.761719 C 114.441406 70.933594 109.546875 73.945312 105.6875 76.902344 C 93.703125 86.089844 85.308594 96.800781 79.78125 108.074219 C 68.144531 111.257812 56.058594 115.742188 44.152344 121.9375 L 44.195312 121.929688 C 74.386719 111.851562 106.027344 110.640625 129.5625 111.695312 C 135.980469 107.882812 142.714844 104.726562 149.351562 102.222656 C 140.042969 100.875 124.402344 100.328125 105.855469 102.804688 C 103.367188 103.136719 100.832031 103.519531 98.246094 103.96875 C 93.53125 104.777344 88.84375 105.757812 84.195312 106.917969 L 84.023438 106.960938 C 86.855469 101.695312 90.234375 96.761719 94.105469 92.246094 C 99.632812 85.75 106.390625 79.8125 114.5625 74.59375 L 114.570312 74.585938 C 116.78125 73.101562 119.023438 71.667969 121.300781 70.289062 C 124.203125 68.5 129.035156 65.820312 134.878906 59.4375 C 135.839844 58.390625 136.722656 57.265625 137.511719 56.074219 C 140.542969 51.507812 141.042969 49.957031 141.476562 49.140625 C 145.253906 40.15625 145.730469 31.625 145.703125 23.964844 L 145.703125 22.695312 C 145.699219 21.429688 145.699219 20.171875 145.726562 18.917969 C 145.8125 14.734375 146.195312 10.542969 147.734375 5.867188 C 148.722656 6.96875 149.691406 8.078125 150.636719 9.183594 C 154.429688 13.621094 157.910156 18.097656 161.082031 22.515625 C 163.796875 26.292969 166.394531 30.15625 168.867188 34.105469 C 169.207031 34.648438 169.527344 35.179688 169.855469 35.71875 C 170.351562 36.511719 170.804688 37.25 171.058594 37.671875 C 175.46875 44.996094 179.46875 52.566406 183.046875 60.351562 C 184.492188 60.625 185.804688 60.90625 187.023438 61.195312 C 193.773438 62.785156 197.171875 64.523438 198.910156 65.414062 L 198.914062 65.414062 C 198.914062 65.414062 205.835938 64.300781 214.414062 64.621094 L 216.863281 64.167969 L 225.207031 62.628906 L 275.105469 53.386719 L 286.101562 50.5 L 288.734375 47.859375 Z M 75.207031 133.433594 C 75.523438 131.386719 75.910156 129.34375 76.378906 127.316406 C 77.078125 124.289062 77.949219 121.304688 78.984375 118.378906 L 78.953125 118.382812 C 77.78125 118.429688 76.628906 118.480469 75.503906 118.539062 C 66.621094 145.226562 71.988281 173.351562 82.808594 191.035156 C 70.84375 169.304688 73.355469 144.109375 75.207031 133.433594 Z M 75.207031 133.433594 "/>
<path style=" stroke:none;fill-rule:nonzero;fill:rgb(25.490196%,45.490196%,55.294118%);fill-opacity:1;" d="M 275.253906 53.378906 C 275.253906 53.378906 224.996094 72.257812 213.9375 76.546875 C 202.882812 80.835938 203.148438 91.507812 203.148438 91.507812 L 203.988281 91.457031 L 224.742188 90.164062 C 227.4375 89.980469 230.136719 89.957031 232.835938 90.089844 C 232.875 90.09375 232.921875 90.09375 232.960938 90.09375 C 233.492188 90.125 233.976562 90.167969 234.46875 90.210938 C 234.714844 90.230469 234.984375 90.246094 235.222656 90.269531 C 237.234375 90.472656 238.929688 90.769531 240.375 91.105469 C 240.46875 91.128906 240.578125 91.152344 240.671875 91.171875 C 245.179688 92.269531 246.945312 93.738281 246.945312 93.738281 L 207.957031 98.019531 L 195.644531 110.304688 L 195.585938 110.363281 L 195.535156 110.363281 C 168.550781 110.167969 116.707031 127.605469 107.402344 165.519531 C 106.96875 167.222656 106.644531 168.949219 106.429688 170.695312 C 106.421875 170.761719 106.355469 171.195312 106.285156 171.941406 L 106.292969 171.910156 C 107.273438 167.667969 108.695312 163.546875 110.539062 159.621094 C 110.65625 159.375 110.777344 159.132812 110.898438 158.890625 L 110.957031 158.769531 L 110.898438 158.890625 L 110.800781 159.089844 L 111.019531 158.648438 C 112.3125 156.011719 114.621094 152.1875 116.167969 150.261719 C 117.285156 148.753906 118.46875 147.300781 119.710938 145.90625 C 120.425781 145.109375 121.160156 144.328125 121.910156 143.570312 L 121.914062 143.570312 C 130.636719 134.738281 141.699219 128.742188 149.316406 125.117188 C 157.464844 121.242188 166.285156 118.167969 174.734375 116.140625 C 182.035156 114.386719 189.058594 113.410156 195.117188 113.410156 L 195.128906 113.410156 L 196.792969 113.425781 L 210.054688 100.121094 L 253.382812 95.335938 C 249.324219 92.21875 241.636719 87.945312 229.8125 87.703125 C 228.246094 87.675781 226.585938 87.753906 224.578125 87.882812 L 206.902344 88.988281 L 207.863281 86.074219 C 208.976562 82.699219 211.640625 79.910156 214.992188 78.609375 C 225.488281 74.535156 279.027344 54.332031 284.242188 52.363281 L 286.101562 50.5 L 275.105469 53.390625 Z M 275.253906 53.378906 "/>
<path style=" stroke:none;fill-rule:nonzero;fill:rgb(0%,63.921569%,87.843137%);fill-opacity:1;" d="M 153.101562 244.46875 C 152.761719 242.125 152.421875 240.101562 152.089844 238.328125 C 151.597656 238.390625 151.050781 238.53125 150.472656 238.726562 L 150.484375 238.808594 L 150.640625 239.835938 C 150.917969 241.660156 151.539062 245.734375 152.332031 251.242188 L 153.492188 247.257812 C 153.367188 246.328125 153.238281 245.398438 153.101562 244.46875 Z M 153.101562 244.46875 "/>
<path style=" stroke:none;fill-rule:nonzero;fill:rgb(100%,94.509804%,0%);fill-opacity:1;" d="M 110.957031 158.765625 L 110.894531 158.886719 L 110.789062 159.101562 L 110.714844 159.25 L 110.796875 159.089844 L 110.894531 158.886719 Z M 110.957031 158.765625 "/>
<path style=" stroke:none;fill-rule:nonzero;fill:rgb(25.490196%,45.490196%,55.294118%);fill-opacity:1;" d="M 167.117188 268.570312 C 167.167969 270.144531 167.269531 271.714844 167.425781 273.28125 C 167.628906 275.277344 167.914062 277.261719 168.285156 279.230469 C 169.253906 284.355469 170.59375 288.242188 171.503906 290.511719 C 172.03125 291.890625 172.949219 293.640625 172.949219 293.640625 L 172.964844 293.671875 C 175.09375 295.859375 177.445312 297.8125 179.921875 299.6875 L 180.042969 299.722656 L 175.949219 292.148438 L 174.824219 289.984375 C 174.636719 289.609375 170.539062 281.195312 169.898438 268.40625 C 169.046875 268.511719 168.207031 268.582031 167.398438 268.582031 C 167.304688 268.578125 167.210938 268.570312 167.117188 268.570312 Z M 213.632812 178.816406 L 213.632812 178.820312 L 212.808594 179.160156 L 212.761719 179.179688 L 212.363281 179.339844 L 212.285156 179.371094 C 212.191406 179.414062 212.011719 179.488281 211.761719 179.605469 L 211.328125 179.8125 C 209.488281 180.703125 205.390625 182.898438 200.554688 186.839844 C 199.886719 187.390625 199.226562 187.949219 198.578125 188.523438 C 194.902344 191.902344 190.15625 197.34375 189.753906 197.792969 C 181.851562 206.535156 172.417969 218.882812 172.304688 219.039062 C 171.636719 219.988281 171.378906 220.613281 171.207031 221.457031 C 171.164062 221.71875 171.132812 221.980469 171.109375 222.246094 C 171.085938 222.683594 171.042969 223.390625 170.972656 224.199219 L 173.625 224.199219 C 173.730469 223.230469 173.796875 222.273438 173.84375 221.402344 L 173.851562 221.292969 C 173.949219 220.726562 174.089844 220.503906 174.652344 219.761719 C 176.003906 217.96875 179.257812 213.785156 182.066406 210.238281 C 186.691406 204.902344 190.625 200.246094 194.289062 196.070312 C 203.324219 185.773438 212.996094 181.101562 213.082031 181.0625 L 219.859375 178.0625 L 220.914062 177.699219 L 220.902344 177.695312 C 218.757812 177.90625 215.910156 178.191406 213.703125 178.800781 C 213.679688 178.804688 213.65625 178.8125 213.632812 178.816406 Z M 202.625 80.164062 C 190.179688 84.40625 188.222656 92.445312 188.222656 92.445312 L 197.644531 91.851562 C 198.710938 82.476562 202.625 80.164062 202.625 80.164062 Z M 202.625 80.164062 "/>
<path style=" stroke:none;fill-rule:nonzero;fill:rgb(0%,63.921569%,87.843137%);fill-opacity:1;" d="M 152.78125 23.949219 C 152.792969 24.574219 152.792969 25.203125 152.808594 25.441406 C 154.027344 43.382812 147.851562 56.519531 142.460938 63.972656 C 150.664062 60.382812 161.003906 57.429688 172.855469 57.351562 C 169.054688 49.730469 162.183594 37.023438 152.78125 23.949219 Z M 119.566406 176.96875 C 124.472656 204 143.320312 212.953125 144.816406 213.554688 C 151.4375 216.429688 156.214844 214.273438 157.40625 213.382812 C 159.175781 212.253906 161.078125 210.714844 162.851562 209.101562 L 173.542969 199.410156 L 181.613281 192.214844 L 183.117188 190.878906 C 184.242188 189.875 185.394531 188.902344 186.566406 187.960938 C 188.578125 186.335938 190.675781 184.835938 192.855469 183.457031 C 193.183594 183.253906 193.503906 183.054688 193.824219 182.863281 C 199.238281 179.621094 203.53125 178.363281 206.601562 177.972656 C 211.148438 177.351562 213.625 178.8125 213.628906 178.816406 L 213.703125 178.796875 C 215.910156 178.1875 218.757812 177.902344 220.902344 177.691406 L 220.515625 177.546875 C 219.472656 177.152344 218.429688 176.761719 217.382812 176.375 C 214.300781 175.296875 211.277344 174.703125 208.863281 174.703125 C 200.480469 174.703125 191.027344 179.335938 180.761719 188.464844 C 176.699219 192.085938 163.882812 204.339844 163.753906 204.464844 L 163.179688 205.007812 C 160.671875 207.414062 156 211.890625 151.601562 211.917969 C 148.695312 211.917969 143.871094 210.605469 140.136719 207.726562 C 129.542969 199.5625 123.453125 188.050781 120.707031 170.394531 C 120.03125 166.402344 119.183594 161.640625 119.230469 156.339844 C 119.128906 157.25 119.035156 158.210938 118.960938 159.222656 C 118.527344 164.089844 118.449219 170.296875 119.566406 176.96875 Z M 119.566406 176.96875 "/>
<path style=" stroke:none;fill-rule:nonzero;fill:rgb(93.72549%,20%,25.098039%);fill-opacity:1;" d="M 242.199219 160.984375 L 242.230469 160.949219 L 242.242188 160.902344 C 242.578125 159.84375 242.621094 159.113281 242.664062 158.410156 C 242.679688 158.160156 242.929688 155.671875 242.929688 155.671875 L 242.273438 157.539062 C 241.714844 159.117188 241.039062 159.988281 240.199219 160.210938 C 240.066406 160.246094 239.925781 160.269531 239.789062 160.269531 L 239.519531 160.273438 L 239.5625 160.546875 C 239.582031 160.6875 240.046875 164.011719 236.621094 166.25 L 236.523438 166.3125 L 236.515625 166.433594 C 236.480469 166.976562 236.417969 167.566406 236.320312 168.296875 L 236.253906 168.796875 L 236.671875 168.53125 C 237.285156 168.144531 237.855469 167.726562 238.367188 167.28125 C 240.261719 165.644531 241.277344 163.769531 241.3125 161.851562 C 241.480469 161.722656 241.824219 161.4375 242.199219 160.984375 Z M 239.738281 170.566406 L 239.800781 170.519531 L 239.824219 170.445312 C 240.289062 168.949219 240.671875 167.519531 241.046875 166.074219 L 241.660156 163.8125 L 240.734375 165.84375 C 240.070312 167.191406 238.644531 169.535156 237.097656 170.101562 L 236.945312 170.15625 L 236.945312 170.324219 C 236.945312 170.371094 236.929688 171.523438 235.859375 172.414062 C 235.714844 172.53125 235.589844 172.625 235.457031 172.703125 L 235.378906 172.753906 L 235.351562 172.84375 C 235.125 173.660156 234.871094 174.464844 234.597656 175.265625 L 234.390625 175.871094 L 234.933594 175.546875 C 236.242188 174.773438 238.433594 173.199219 238.65625 171.28125 C 238.84375 171.171875 239.246094 170.921875 239.738281 170.566406 Z M 236.777344 178.925781 L 236.8125 178.84375 C 237.320312 177.601562 238.035156 175.441406 238.574219 173.875 C 237.976562 174.960938 236.570312 176.566406 233.78125 177.675781 L 233.6875 177.710938 L 233.652344 177.804688 C 233.28125 178.71875 232.917969 179.550781 232.542969 180.355469 L 232.296875 180.886719 L 232.832031 180.679688 C 233.058594 180.59375 235.082031 179.820312 236.703125 178.964844 Z M 221.492188 199.027344 L 221.554688 199.019531 L 221.605469 198.976562 C 222.960938 197.898438 224.273438 196.761719 225.539062 195.570312 L 226.085938 195.054688 L 225.347656 195.160156 C 224.53125 195.277344 223.753906 195.335938 223.03125 195.34375 L 222.933594 195.34375 L 222.867188 195.417969 C 221.753906 196.59375 220.589844 197.722656 219.382812 198.796875 L 218.867188 199.257812 L 219.546875 199.214844 C 220.148438 199.175781 220.800781 199.109375 221.492188 199.027344 Z M 228.152344 192.933594 L 228.199219 192.882812 C 229.390625 191.589844 230.488281 190.261719 231.464844 188.921875 L 231.9375 188.277344 L 231.199219 188.554688 C 229.972656 189.023438 228.773438 189.375 227.636719 189.609375 L 227.542969 189.628906 L 227.488281 189.707031 C 226.664062 190.910156 225.78125 192.074219 224.84375 193.191406 L 224.445312 193.667969 L 225.050781 193.582031 C 226.074219 193.433594 227.089844 193.222656 228.089844 192.949219 Z M 218.179688 200.867188 C 217.78125 200.867188 217.40625 200.855469 217.066406 200.832031 L 216.980469 200.824219 L 216.910156 200.882812 L 216.820312 200.953125 L 216.742188 201.015625 C 213.300781 203.75 207.503906 207.410156 203.070312 209.757812 C 204.5625 209.140625 212.035156 205.949219 218.53125 201.300781 L 219.148438 200.859375 L 218.394531 200.867188 Z M 233.5625 185.742188 L 233.597656 185.683594 C 234.347656 184.402344 235.007812 183.074219 235.582031 181.703125 L 235.855469 181.035156 L 235.25 181.402344 L 235.246094 181.40625 L 230.628906 184.140625 L 230.484375 184.226562 C 230.484375 184.226562 230.417969 184.40625 230.347656 184.582031 C 229.980469 185.464844 229.558594 186.324219 229.082031 187.152344 L 228.785156 187.679688 L 229.351562 187.5 C 230.777344 187.039062 232.167969 186.460938 233.503906 185.773438 Z M 127.816406 157.167969 C 127.601562 152.914062 127.046875 150.339844 127.042969 150.316406 L 126.980469 150.054688 L 126.734375 150.148438 L 124.078125 151.175781 L 123.886719 151.25 L 123.9375 151.453125 C 123.9375 151.472656 124.433594 154.3125 124.554688 158.113281 L 124.570312 158.554688 L 124.570312 158.632812 L 124.621094 158.695312 L 124.875 159.023438 C 124.902344 159.058594 127.582031 162.496094 128.9375 167.335938 L 129.007812 167.585938 L 132.167969 166.339844 L 132.109375 166.128906 C 130.839844 161.59375 128.554688 158.191406 127.816406 157.167969 Z M 132.671875 157.105469 C 132.699219 157.132812 135.449219 159.570312 136.753906 164.125 L 136.828125 164.375 L 139.9375 163.082031 L 139.875 162.875 C 138.660156 158.632812 136.390625 155.941406 135.402344 154.921875 C 135.34375 152.371094 134.730469 149.355469 134.222656 147.261719 L 134.15625 146.992188 L 133.90625 147.101562 L 131.230469 148.25 L 131.050781 148.328125 L 131.097656 148.527344 C 131.605469 150.640625 132.199219 153.632812 132.152344 155.882812 L 132.136719 156.527344 L 132.136719 156.640625 L 132.222656 156.714844 Z M 144.40625 161.027344 L 144.476562 161.289062 L 147.535156 159.980469 L 147.476562 159.777344 C 146.269531 155.460938 143.886719 152.816406 142.835938 151.8125 C 142.996094 147.84375 141.699219 144.480469 141.4375 143.839844 L 141.34375 143.617188 L 141.128906 143.714844 L 138.324219 145.023438 L 138.414062 145.230469 C 138.429688 145.265625 139.90625 148.691406 139.542969 152.515625 L 139.460938 153.445312 L 139.566406 153.527344 L 140.160156 153.984375 C 140.1875 154.003906 143.148438 156.347656 144.40625 161.027344 Z M 152.394531 157.722656 L 152.464844 157.980469 L 155.304688 156.769531 L 155.5 156.683594 L 155.4375 156.476562 C 154.214844 152.414062 151.949219 149.972656 150.644531 148.839844 C 151.039062 144.402344 149.28125 140.566406 149.207031 140.402344 L 149.105469 140.1875 L 148.898438 140.289062 L 146.367188 141.527344 L 146.15625 141.628906 L 146.253906 141.84375 C 146.273438 141.878906 147.914062 145.527344 147.292969 149.304688 L 147.136719 150.242188 L 147.113281 150.398438 L 147.242188 150.484375 L 148.027344 150.996094 C 148.058594 151.019531 151.082031 153.066406 152.394531 157.722656 Z M 159.949219 154.464844 L 160 154.699219 L 163.085938 153.515625 L 163.035156 153.3125 C 162.015625 149.144531 159.78125 146.710938 158.464844 145.585938 C 159.304688 141.035156 157.570312 136.921875 157.496094 136.746094 L 157.402344 136.527344 L 157.1875 136.625 L 154.621094 137.785156 L 154.410156 137.878906 L 154.503906 138.097656 C 154.519531 138.136719 156.128906 142.015625 155.058594 145.8125 L 154.75 146.890625 L 154.703125 147.070312 L 154.859375 147.164062 L 155.804688 147.730469 C 155.835938 147.75 158.890625 149.648438 159.949219 154.464844 Z M 167.46875 151.417969 L 167.507812 151.652344 L 170.625 150.511719 L 170.585938 150.3125 C 169.742188 146.144531 167.582031 143.765625 166.285156 142.671875 C 167.570312 137.988281 165.851562 133.609375 165.777344 133.421875 L 165.6875 133.203125 L 165.472656 133.292969 L 162.878906 134.386719 L 162.664062 134.476562 L 162.753906 134.699219 C 162.769531 134.738281 164.359375 138.820312 162.832031 142.679688 L 162.347656 143.878906 L 162.265625 144.078125 L 162.453125 144.179688 L 163.570312 144.789062 C 163.695312 144.859375 166.652344 146.578125 167.46875 151.417969 Z M 174.992188 148.46875 L 175.019531 148.703125 L 175.25 148.675781 C 175.25 148.675781 177.234375 148.054688 178.003906 147.785156 L 178.1875 147.71875 L 178.15625 147.523438 C 177.503906 143.285156 175.398438 140.925781 174.109375 139.84375 C 175.835938 135.039062 174.132812 130.390625 174.058594 130.191406 L 173.972656 129.96875 L 173.757812 130.054688 L 171.136719 131.089844 L 170.921875 131.171875 L 171.003906 131.394531 C 171.023438 131.4375 172.589844 135.765625 170.617188 139.671875 L 169.949219 140.992188 L 169.839844 141.207031 L 170.054688 141.3125 L 171.363281 141.953125 C 171.394531 141.972656 174.398438 143.542969 174.992188 148.46875 Z M 182.523438 145.949219 L 182.542969 146.246094 L 182.824219 146.15625 C 183.734375 145.859375 184.644531 145.574219 185.550781 145.296875 L 185.738281 145.238281 L 185.714844 145.039062 C 185.21875 140.796875 183.183594 138.425781 181.921875 137.335938 C 184.015625 132.613281 182.539062 127.847656 182.363281 127.316406 L 182.289062 127.097656 L 179.402344 128.078125 L 179.183594 128.15625 L 179.261719 128.378906 C 179.277344 128.425781 180.804688 133.042969 178.40625 136.976562 L 177.550781 138.347656 L 177.40625 138.578125 L 177.648438 138.691406 L 179.089844 139.378906 C 179.207031 139.441406 182.136719 140.976562 182.523438 145.949219 Z M 190.003906 143.726562 L 190.03125 144.003906 L 190.292969 143.933594 C 191.214844 143.6875 192.136719 143.449219 193.03125 143.230469 L 193.234375 143.179688 L 193.207031 142.96875 C 192.71875 138.949219 190.824219 136.421875 189.648438 135.207031 C 191.914062 131.027344 191.1875 126.734375 190.761719 125.070312 L 190.707031 124.847656 L 190.488281 124.898438 C 189.613281 125.101562 188.691406 125.324219 187.753906 125.566406 L 187.523438 125.625 L 187.585938 125.859375 C 187.886719 127.011719 188.683594 131.046875 186.191406 134.539062 L 185.320312 135.765625 L 185.171875 135.964844 L 185.378906 136.101562 L 186.617188 136.933594 C 186.648438 136.953125 189.558594 138.984375 190.003906 143.726562 Z M 197.394531 142.164062 C 197.394531 142.164062 199.621094 141.84375 200.484375 141.707031 L 200.679688 141.675781 L 200.679688 141.472656 C 200.6875 137.316406 199.097656 134.871094 197.703125 133.527344 C 200.261719 129.347656 199.632812 124.8125 199.378906 123.507812 L 199.335938 123.289062 L 199.121094 123.316406 C 198.230469 123.433594 197.292969 123.574219 196.328125 123.730469 L 196.085938 123.773438 L 196.140625 124.019531 C 196.257812 124.535156 197.183594 129.167969 194.179688 132.792969 L 192.992188 134.230469 L 192.792969 134.46875 L 194.734375 135.398438 C 194.761719 135.414062 197.597656 136.878906 197.40625 141.921875 Z M 205.375 141.230469 L 205.65625 141.210938 C 206.601562 141.136719 207.550781 141.085938 208.472656 141.066406 L 208.683594 141.058594 L 208.699219 140.847656 C 209.019531 136.695312 207.496094 133.949219 206.472656 132.605469 C 209.011719 129.242188 208.875 125.253906 208.5625 123.15625 L 208.535156 122.960938 L 208.339844 122.957031 C 207.386719 122.929688 206.433594 122.929688 205.484375 122.957031 L 205.207031 122.960938 L 205.261719 123.238281 C 205.5 124.445312 206.042969 128.589844 203.125 131.410156 L 201.917969 132.558594 L 201.714844 132.75 L 201.933594 132.921875 L 203.242188 133.953125 C 203.347656 134.039062 205.917969 136.203125 205.410156 140.945312 Z M 216.664062 124.140625 L 216.640625 123.980469 L 216.484375 123.945312 C 215.488281 123.71875 214.484375 123.535156 213.476562 123.390625 L 213.125 123.339844 L 213.21875 123.691406 C 213.527344 124.8125 214.289062 128.675781 211.195312 131.125 L 210.050781 132.03125 L 209.859375 132.179688 L 210.011719 132.371094 L 210.929688 133.515625 C 210.949219 133.546875 213.257812 136.523438 212.757812 140.910156 L 212.730469 141.15625 L 212.96875 141.175781 C 213.90625 141.25 214.839844 141.359375 215.738281 141.503906 L 215.976562 141.542969 L 216.003906 141.296875 C 216.457031 137.371094 215.183594 134.296875 214.316406 132.730469 C 217.132812 129.648438 216.898438 125.707031 216.664062 124.140625 Z M 218.160156 141.988281 L 218.410156 142.050781 C 219.339844 142.289062 220.234375 142.570312 221.074219 142.882812 L 221.292969 142.964844 L 221.375 142.738281 C 222.414062 139.75 222.4375 136.484375 221.4375 133.476562 C 222.480469 132.132812 223.785156 129.992188 223.566406 126.761719 L 223.550781 126.550781 L 223.546875 126.480469 L 223.535156 126.339844 L 223.40625 126.28125 C 222.449219 125.851562 221.445312 125.460938 220.425781 125.121094 L 220.066406 125.003906 L 220.125 125.386719 C 220.214844 125.957031 220.273438 126.515625 220.308594 127.039062 C 220.421875 128.820312 219.667969 130.792969 218.476562 131.832031 L 217.640625 132.570312 L 217.503906 132.691406 L 217.582031 132.859375 L 218.074219 133.867188 C 218.144531 134.011719 219.789062 137.476562 218.246094 141.738281 Z M 223.464844 143.9375 L 223.671875 144.046875 C 224.503906 144.484375 225.304688 144.976562 226.054688 145.511719 L 226.269531 145.664062 L 226.394531 145.425781 C 227.8125 142.648438 228.285156 139.464844 227.738281 136.378906 C 228.917969 135.480469 229.769531 134.207031 230.15625 132.753906 C 230.300781 132.222656 230.386719 131.652344 230.417969 131.050781 L 230.421875 130.933594 L 230.332031 130.855469 C 229.367188 130.011719 228.347656 129.230469 227.285156 128.519531 L 226.792969 128.1875 L 226.933594 128.777344 C 227.21875 129.960938 227.238281 131 227.003906 131.863281 C 226.738281 132.835938 226.117188 133.578125 225.109375 134.132812 L 224.058594 134.710938 L 223.886719 134.808594 L 223.949219 134.996094 L 224.332031 136.152344 C 224.378906 136.300781 225.492188 139.832031 223.570312 143.726562 Z M 234.042969 134.683594 L 233.839844 134.441406 L 233.523438 134.0625 L 233.4375 134.554688 C 233.398438 134.777344 233.34375 134.992188 233.277344 135.203125 C 232.90625 136.308594 232.097656 137.132812 230.808594 137.722656 L 229.808594 138.179688 L 229.628906 138.261719 L 229.679688 138.460938 L 229.957031 139.542969 C 229.96875 139.578125 230.816406 143.160156 228.1875 146.984375 L 228.074219 147.152344 L 228.222656 147.296875 C 228.832031 147.878906 229.433594 148.523438 230.003906 149.21875 L 230.1875 149.449219 L 230.363281 149.210938 C 233.101562 145.515625 233.257812 141.890625 233.085938 139.984375 C 235.199219 138.128906 235.285156 137.210938 235.34375 136.601562 L 235.359375 136.484375 L 235.367188 136.394531 L 235.3125 136.316406 C 234.921875 135.75 234.496094 135.203125 234.042969 134.683594 Z M 237.5625 139.746094 L 237.386719 139.449219 L 237.027344 138.847656 L 236.957031 139.550781 C 236.742188 141.703125 236.523438 142.644531 234.726562 143.433594 L 233.335938 143.902344 L 233.421875 144.136719 C 233.421875 144.136719 233.773438 144.90625 233.851562 145.308594 C 233.925781 145.710938 234.785156 148.117188 231.621094 151.117188 L 231.476562 151.253906 L 231.585938 151.421875 C 232.007812 152.089844 232.40625 152.792969 232.769531 153.515625 L 232.90625 153.78125 L 233.128906 153.585938 C 236.621094 150.519531 236.917969 147.34375 236.746094 145.628906 C 237.90625 144.898438 238.550781 143.679688 238.707031 141.90625 L 238.710938 141.839844 L 238.683594 141.777344 C 238.207031 140.820312 238.003906 140.484375 237.5625 139.746094 Z M 237.5625 139.746094 "/>
<path style=" stroke:none;fill-rule:nonzero;fill:rgb(93.72549%,20%,25.098039%);fill-opacity:1;" d="M 240.292969 145.183594 L 240.042969 144.621094 L 239.675781 143.789062 L 239.601562 144.699219 C 239.480469 146.121094 239.101562 147.867188 237.96875 148.125 L 237.007812 148.34375 L 236.8125 148.386719 L 236.824219 148.585938 L 236.871094 149.597656 C 236.875 149.625 236.941406 152.628906 233.914062 155.707031 L 233.804688 155.816406 L 233.863281 155.964844 C 234.160156 156.722656 234.445312 157.542969 234.707031 158.40625 L 234.8125 158.753906 L 235.078125 158.515625 C 238.496094 155.488281 239.386719 152.269531 239.605469 150.546875 C 240.320312 150.125 241.097656 149.042969 241.097656 147.234375 L 241.097656 147.191406 L 241.085938 147.152344 C 240.851562 146.484375 240.589844 145.824219 240.292969 145.183594 Z M 239.9375 154.140625 L 238.914062 154.128906 L 238.90625 154.316406 L 238.867188 155.339844 C 238.8125 155.757812 238.6875 158.226562 235.445312 160.578125 L 235.316406 160.667969 L 235.351562 160.824219 C 235.535156 161.605469 235.6875 162.34375 235.820312 163.082031 L 235.878906 163.421875 L 236.167969 163.242188 C 239.761719 160.984375 240.910156 158.09375 241.273438 156.496094 C 241.605469 156.328125 242.050781 155.890625 242.367188 155.226562 C 242.789062 154.335938 243.109375 152.785156 242.242188 150.445312 L 241.902344 149.535156 L 241.792969 150.5 C 241.613281 152.058594 241.269531 153.175781 240.800781 153.730469 C 240.597656 153.96875 240.203125 154.136719 239.9375 154.140625 Z M 239.9375 154.140625 "/>
<path style=" stroke:none;fill-rule:nonzero;fill:rgb(0%,0%,0%);fill-opacity:1;" d="M 153.496094 247.257812 L 155.605469 240 C 155.582031 239.464844 155.277344 239 154.742188 238.691406 C 154.152344 238.347656 153.25 238.175781 152.089844 238.328125 C 152.421875 240.101562 152.761719 242.125 153.101562 244.46875 C 153.230469 245.355469 153.359375 246.289062 153.496094 247.257812 Z M 107.402344 165.519531 C 116.703125 127.601562 168.546875 110.164062 195.53125 110.363281 L 195.585938 110.363281 L 195.640625 110.304688 L 207.957031 98.019531 L 246.941406 93.738281 C 246.941406 93.738281 245.171875 92.265625 240.671875 91.171875 C 240.578125 91.148438 240.464844 91.128906 240.371094 91.105469 C 238.671875 90.714844 236.953125 90.433594 235.21875 90.269531 C 234.980469 90.246094 234.714844 90.230469 234.464844 90.210938 C 233.972656 90.167969 233.488281 90.121094 232.960938 90.09375 C 232.917969 90.089844 232.871094 90.089844 232.832031 90.089844 C 230.136719 89.953125 227.433594 89.980469 224.742188 90.160156 L 203.984375 91.453125 L 203.144531 91.507812 C 203.144531 91.507812 202.878906 80.832031 213.9375 76.542969 C 224.992188 72.253906 275.242188 53.378906 275.25 53.378906 L 225.199219 62.625 L 216.855469 64.167969 L 214.40625 64.621094 C 205.832031 64.296875 198.90625 65.414062 198.90625 65.414062 C 197.171875 64.523438 193.773438 62.785156 187.019531 61.191406 C 185.800781 60.90625 184.488281 60.625 183.042969 60.351562 C 179.464844 52.566406 175.464844 44.992188 171.054688 37.671875 C 170.667969 37.027344 170.253906 36.367188 169.851562 35.714844 C 169.523438 35.175781 169.203125 34.648438 168.863281 34.101562 C 166.390625 30.15625 163.796875 26.289062 161.078125 22.511719 C 157.78125 17.921875 154.296875 13.472656 150.632812 9.183594 C 149.6875 8.074219 148.71875 6.96875 147.730469 5.867188 C 146.191406 10.539062 145.808594 14.734375 145.722656 18.917969 C 145.695312 20.171875 145.695312 21.425781 145.699219 22.691406 L 145.699219 23.964844 C 145.726562 31.625 145.25 40.15625 141.472656 49.140625 C 141.039062 49.957031 140.542969 51.507812 137.507812 56.074219 C 136.71875 57.261719 135.835938 58.386719 134.875 59.4375 C 129.03125 65.820312 124.199219 68.496094 121.296875 70.285156 C 119.019531 71.667969 116.777344 73.101562 114.566406 74.585938 L 114.558594 74.589844 L 114.449219 74.664062 L 114.425781 74.679688 C 106.382812 79.835938 99.636719 85.769531 94.101562 92.246094 C 90.230469 96.761719 86.851562 101.695312 84.019531 106.960938 L 84.191406 106.917969 C 89.042969 105.707031 93.625 104.765625 98.242188 103.96875 C 100.382812 101.007812 102.730469 98.214844 105.269531 95.609375 C 107.367188 93.546875 109.578125 91.609375 111.898438 89.816406 C 126.429688 78.558594 146.703125 72.492188 168.589844 71.792969 C 169.085938 71.777344 169.585938 71.773438 170.085938 71.761719 C 144.363281 75.117188 121.203125 85.25 105.851562 102.800781 C 124.398438 100.328125 140.039062 100.875 149.347656 102.222656 C 142.710938 104.726562 135.976562 107.878906 129.558594 111.695312 C 125.617188 114.023438 121.828125 116.613281 118.210938 119.4375 C 110.652344 118.707031 103.066406 118.289062 95.472656 118.179688 C 88.816406 131.324219 85.59375 147.308594 87.015625 166.289062 C 85.691406 161.007812 84.902344 155.605469 84.664062 150.160156 C 84.175781 138.890625 86.058594 128.128906 90.257812 118.144531 C 86.316406 118.152344 82.550781 118.242188 78.980469 118.382812 C 77.945312 121.304688 77.078125 124.289062 76.375 127.316406 C 75.910156 129.339844 75.519531 131.382812 75.203125 133.4375 C 73.351562 144.113281 70.839844 169.304688 82.804688 191.035156 C 84.722656 194.503906 86.957031 197.777344 89.484375 200.808594 C 90.160156 200.359375 90.84375 199.929688 91.550781 199.515625 C 94.09375 198.066406 96.796875 196.9375 99.601562 196.152344 C 102.257812 195.421875 102.855469 195.347656 102.878906 195.34375 L 103.679688 195.25 C 106.53125 194.550781 109.457031 194.191406 112.390625 194.183594 C 117.453125 194.195312 119.640625 194.484375 119.640625 194.484375 C 117.601562 196.191406 116.574219 197.003906 114.613281 198.847656 C 110.660156 202.367188 107.617188 207.300781 105.527344 213.886719 C 107.835938 215.308594 110.210938 216.625 112.636719 217.824219 C 111.75 214.664062 112.921875 211.273438 115.554688 209.390625 C 115.605469 209.34375 115.652344 209.292969 115.703125 209.25 C 116.089844 208.6875 116.542969 208.167969 117.070312 207.714844 C 118.476562 206.507812 120.25 205.847656 122.082031 205.84375 C 126.402344 205.851562 129.898438 209.441406 129.90625 213.871094 C 129.902344 217.023438 128.097656 219.882812 125.296875 221.175781 C 125.167969 221.285156 125.03125 221.386719 124.894531 221.484375 C 124.503906 221.84375 124.074219 222.160156 123.617188 222.429688 C 129.433594 224.441406 135.984375 226.085938 143.320312 227.097656 C 143.402344 227.046875 143.480469 226.988281 143.558594 226.9375 C 144.679688 226.242188 145.820312 225.644531 146.953125 225.15625 C 152.28125 222.863281 157.589844 222.789062 161.910156 224.949219 C 162.433594 225.210938 162.949219 225.515625 163.445312 225.847656 C 164.640625 224.796875 166.117188 224.199219 167.539062 224.195312 L 170.96875 224.195312 C 171.039062 223.390625 171.082031 222.683594 171.105469 222.242188 C 171.125 221.980469 171.160156 221.714844 171.203125 221.453125 C 171.375 220.613281 171.632812 219.988281 172.300781 219.039062 C 172.414062 218.882812 181.847656 206.53125 189.75 197.792969 C 190.152344 197.34375 194.898438 191.902344 198.574219 188.523438 C 199.285156 187.871094 199.957031 187.289062 200.550781 186.839844 C 205.386719 182.898438 209.484375 180.699219 211.324219 179.8125 C 211.484375 179.734375 211.628906 179.664062 211.757812 179.605469 C 212.007812 179.488281 212.1875 179.410156 212.28125 179.371094 L 212.359375 179.339844 L 212.804688 179.15625 L 213.628906 178.820312 L 213.628906 178.816406 C 213.621094 178.8125 211.148438 177.351562 206.597656 177.972656 C 203.527344 178.363281 199.238281 179.621094 193.820312 182.863281 C 193.5 183.054688 193.179688 183.253906 192.851562 183.457031 C 190.675781 184.835938 188.574219 186.335938 186.5625 187.960938 C 185.390625 188.902344 184.238281 189.875 183.113281 190.878906 L 181.609375 192.214844 C 180.152344 193.511719 174.414062 198.628906 173.539062 199.410156 L 162.847656 209.101562 C 161.074219 210.710938 159.171875 212.253906 157.40625 213.382812 C 156.214844 214.269531 151.433594 216.429688 144.8125 213.554688 C 143.316406 212.953125 124.472656 204 119.5625 176.96875 C 118.445312 170.296875 118.527344 164.089844 118.957031 159.226562 C 119.03125 158.210938 119.121094 157.253906 119.222656 156.34375 C 119.554688 153.355469 119.996094 150.972656 120.316406 149.441406 C 119.046875 150.828125 117.84375 152.273438 116.714844 153.78125 C 115.25 155.746094 113.929688 157.824219 112.765625 159.988281 C 112.609375 160.277344 112.449219 160.566406 112.300781 160.859375 C 109.136719 167.046875 107.136719 173.792969 106.410156 180.742188 C 105.96875 176.738281 106.128906 173.585938 106.28125 171.941406 C 106.347656 171.195312 106.417969 170.757812 106.425781 170.691406 C 106.636719 169 106.953125 167.277344 107.402344 165.519531 Z M 202.625 80.164062 C 202.625 80.164062 198.710938 82.476562 197.644531 91.851562 L 188.222656 92.445312 C 188.222656 92.445312 190.179688 84.40625 202.625 80.164062 Z M 142.464844 63.972656 C 147.851562 56.515625 154.03125 43.382812 152.808594 25.441406 C 152.792969 25.203125 152.792969 24.570312 152.785156 23.945312 C 162.1875 37.023438 169.054688 49.730469 172.855469 57.347656 C 161.003906 57.429688 150.664062 60.382812 142.464844 63.972656 Z M 172.949219 293.640625 C 172.949219 293.640625 172.03125 291.890625 171.503906 290.511719 C 170.59375 288.238281 169.253906 284.355469 168.285156 279.230469 C 167.617188 275.714844 167.226562 272.148438 167.117188 268.566406 C 164.390625 268.511719 161.945312 267.644531 159.964844 266.460938 C 158.550781 265.625 157.296875 264.53125 156.265625 263.234375 L 155.9375 263.441406 C 158.527344 277.613281 163.03125 292.082031 172.964844 293.667969 Z M 172.949219 293.640625 "/>
<path style=" stroke:none;fill-rule:nonzero;fill:rgb(93.72549%,20%,25.098039%);fill-opacity:1;" d="M 267.953125 266.496094 C 264.347656 266.472656 261.078125 265.503906 258.496094 263.699219 C 257.824219 263.234375 257.199219 262.707031 256.625 262.125 C 252.222656 265.019531 247.28125 266.550781 242.320312 266.550781 C 237.355469 266.550781 233.242188 264.644531 230.730469 261.1875 C 228.082031 257.542969 227.492188 252.53125 229.074219 247.082031 L 230.960938 240.878906 C 231.558594 239.042969 231.527344 237.640625 230.882812 237.019531 C 230.167969 236.339844 228.59375 236.320312 227.050781 236.976562 C 226.316406 237.285156 225.546875 237.785156 224.816406 238.414062 C 224.761719 238.460938 224.71875 238.519531 224.664062 238.566406 C 224.804688 238.496094 224.921875 238.445312 225 238.410156 C 226.234375 237.875 227.402344 237.886719 227.976562 238.445312 C 228.550781 238.996094 228.628906 240.21875 228.1875 241.71875 L 226.59375 247.089844 C 224.835938 253.152344 225.527344 258.765625 228.546875 262.894531 C 229.398438 264.0625 230.429688 265.320312 232.761719 266.683594 C 234.910156 267.9375 237.457031 268.578125 240.324219 268.578125 C 244.699219 268.578125 249.582031 267.105469 254.839844 264.203125 C 257.78125 267.148438 261.925781 268.851562 266.28125 268.882812 L 275.648438 268.882812 L 278.109375 266.492188 L 267.953125 266.492188 Z M 200.308594 264.769531 L 207.5625 240.285156 C 208.050781 238.675781 207.96875 237.367188 207.34375 236.785156 C 206.707031 236.1875 205.410156 236.175781 204.042969 236.757812 C 203.277344 237.089844 202.558594 237.523438 201.902344 238.046875 C 201.761719 238.160156 201.628906 238.277344 201.496094 238.390625 C 202.707031 237.902344 203.835938 237.898438 204.402344 238.445312 C 204.972656 238.996094 205.050781 240.222656 204.613281 241.722656 L 197.089844 267.234375 L 212.359375 267.234375 L 215.324219 264.753906 Z M 177.582031 264.765625 C 171.25 267.027344 165.667969 266.933594 161.433594 264.492188 C 160.238281 263.804688 159.160156 262.929688 158.230469 261.894531 C 157.890625 262.152344 157.546875 262.402344 157.195312 262.644531 C 156.882812 262.859375 156.574219 263.039062 156.265625 263.234375 C 157.296875 264.535156 158.550781 265.628906 159.964844 266.464844 C 161.945312 267.644531 164.390625 268.511719 167.117188 268.570312 C 167.210938 268.570312 167.304688 268.578125 167.398438 268.578125 C 168.207031 268.578125 169.046875 268.507812 169.898438 268.40625 C 171.664062 268.1875 173.402344 267.792969 175.089844 267.230469 L 188.824219 267.230469 L 192.015625 264.75 Z M 125.300781 221.175781 C 125.25 221.199219 125.203125 221.234375 125.152344 221.253906 C 122.734375 222.304688 119.964844 222.046875 117.777344 220.558594 C 115.585938 219.074219 114.269531 216.5625 114.265625 213.871094 C 114.265625 212.191406 114.78125 210.589844 115.707031 209.25 C 115.65625 209.292969 115.605469 209.34375 115.558594 209.390625 C 113.546875 210.835938 112.347656 213.195312 112.347656 215.714844 C 112.347656 216.449219 112.453125 217.152344 112.640625 217.824219 C 113.558594 221.152344 116.519531 223.449219 119.886719 223.453125 C 121.738281 223.453125 123.519531 222.75 124.898438 221.484375 C 125.035156 221.386719 125.167969 221.285156 125.300781 221.175781 Z M 271.34375 221.890625 C 267.027344 221.886719 263.527344 218.296875 263.519531 213.863281 C 263.519531 212.160156 264.054688 210.527344 265.011719 209.171875 C 264.929688 209.242188 264.851562 209.316406 264.773438 209.390625 C 262.761719 210.835938 261.5625 213.195312 261.5625 215.714844 C 261.5625 219.988281 264.9375 223.449219 269.101562 223.453125 L 269.105469 223.453125 C 270.953125 223.453125 272.738281 222.75 274.113281 221.484375 C 274.230469 221.398438 274.347656 221.3125 274.460938 221.21875 C 274.441406 221.226562 274.421875 221.238281 274.40625 221.246094 C 273.4375 221.671875 272.394531 221.890625 271.34375 221.890625 Z M 271.34375 221.890625 "/>
<path style=" stroke:none;fill-rule:nonzero;fill:rgb(93.72549%,20%,25.098039%);fill-opacity:1;" d="M 254.066406 246.28125 L 259.167969 228.957031 C 259.222656 228.773438 259.285156 228.59375 259.359375 228.414062 L 259.402344 228.308594 C 259.480469 228.128906 259.535156 228.007812 259.597656 227.890625 L 259.667969 227.761719 C 259.75 227.609375 259.8125 227.503906 259.878906 227.398438 L 259.957031 227.277344 C 260.582031 226.332031 261.414062 225.550781 262.390625 225.003906 C 260.425781 225.363281 259.066406 226.261719 258.121094 227.308594 C 256.730469 228.683594 256.238281 230.476562 255.914062 231.570312 L 250.8125 248.898438 C 250.472656 250.042969 249.789062 251.1875 248.84375 252.253906 C 248.882812 252.234375 248.921875 252.21875 248.960938 252.195312 C 251.457031 250.75 253.414062 248.484375 254.066406 246.28125 Z M 182.367188 246.636719 L 187.632812 228.953125 C 187.6875 228.78125 187.746094 228.605469 187.820312 228.417969 L 187.871094 228.308594 C 187.929688 228.167969 187.992188 228.035156 188.058594 227.898438 L 188.132812 227.761719 C 188.21875 227.609375 188.277344 227.503906 188.34375 227.402344 L 188.449219 227.234375 C 188.769531 226.765625 189.140625 226.335938 189.558594 225.953125 C 189.105469 226.144531 188.667969 226.382812 188.257812 226.660156 C 186.1875 227.921875 184.808594 230.128906 184.386719 231.5625 L 179.015625 249.246094 C 178.539062 250.710938 177.65625 252.164062 176.535156 253.417969 C 176.644531 253.363281 176.757812 253.320312 176.867188 253.257812 C 179.378906 251.867188 181.488281 249.328125 182.367188 246.636719 Z M 154.972656 264.019531 C 151.554688 265.921875 147.964844 266.933594 144.566406 266.933594 C 141.664062 266.933594 139.019531 266.222656 136.707031 264.816406 C 135.199219 263.902344 133.871094 262.699219 132.800781 261.269531 C 132.398438 261.542969 131.96875 261.816406 131.527344 262.078125 C 131.148438 262.304688 130.765625 262.519531 130.375 262.726562 C 131.464844 264.273438 132.851562 265.574219 134.449219 266.546875 C 136.746094 267.941406 139.371094 268.652344 142.253906 268.652344 L 142.257812 268.652344 C 146.382812 268.652344 150.394531 267.269531 154.199219 264.578125 C 154.363281 264.464844 154.527344 264.359375 154.6875 264.238281 Z M 119.074219 265.6875 L 119.003906 265.683594 C 113.597656 265.648438 108.960938 263.480469 106.277344 259.734375 C 103.757812 256.21875 103.132812 251.707031 104.527344 247.035156 L 109.910156 228.953125 C 109.960938 228.789062 110.023438 228.609375 110.101562 228.414062 L 110.144531 228.3125 C 110.222656 228.128906 110.28125 228.011719 110.34375 227.890625 L 110.414062 227.761719 C 110.484375 227.632812 110.554688 227.507812 110.628906 227.386719 L 110.710938 227.261719 C 111.019531 226.796875 111.378906 226.375 111.789062 226.003906 C 110.542969 226.582031 109.421875 227.40625 108.492188 228.429688 C 107.492188 229.464844 106.902344 230.597656 106.613281 231.570312 L 102.085938 246.773438 C 100.515625 252.039062 101.257812 257.15625 104.136719 261.171875 C 107.304688 265.59375 113.183594 267.910156 117.355469 267.910156 C 120.5625 267.910156 123.195312 267.3125 125.675781 265.960938 C 127.199219 265.210938 128.65625 264.191406 130.136719 262.855469 C 126.582031 264.707031 122.757812 265.6875 119.074219 265.6875 Z M 127.527344 250.574219 C 128.332031 249.980469 129.0625 249.289062 129.707031 248.515625 C 130.121094 244.414062 131.636719 240.21875 134.089844 236.378906 C 136.265625 232.960938 139.085938 230.015625 142.378906 227.722656 C 140.984375 228.527344 139.660156 229.453125 138.417969 230.492188 C 134.757812 233.359375 132.164062 236.839844 130.25 240.378906 C 128.386719 243.8125 127.195312 247.507812 126.765625 251.101562 C 127.023438 250.933594 127.277344 250.761719 127.527344 250.574219 Z M 152.089844 238.328125 C 153.246094 238.175781 154.152344 238.347656 154.742188 238.691406 C 155.277344 239 155.582031 239.464844 155.605469 240 L 153.492188 247.257812 L 152.332031 251.246094 L 152.242188 251.5625 C 152.492188 251.359375 152.746094 251.15625 152.992188 250.929688 C 154.144531 249.871094 155.144531 248.652344 155.972656 247.3125 L 158.246094 239.644531 C 158.09375 237.882812 157.359375 236.851562 156.003906 236.480469 C 155.660156 236.390625 155.308594 236.347656 154.957031 236.347656 C 153.519531 236.347656 151.816406 237.011719 150.15625 238.210938 C 149.898438 238.398438 149.648438 238.589844 149.40625 238.792969 C 149.140625 239.015625 148.90625 239.21875 148.652344 239.460938 C 148.609375 239.5 148.574219 239.542969 148.53125 239.582031 C 149.222656 239.214844 149.867188 238.929688 150.46875 238.726562 C 150.996094 238.542969 151.539062 238.40625 152.089844 238.328125 Z M 152.089844 238.328125 "/>
<path style=" stroke:none;fill-rule:nonzero;fill:rgb(0%,63.921569%,87.843137%);fill-opacity:1;" d="M 279.164062 213.863281 C 279.160156 209.433594 275.660156 205.84375 271.34375 205.835938 C 269.511719 205.839844 267.738281 206.5 266.332031 207.707031 C 265.835938 208.136719 265.390625 208.628906 265.011719 209.171875 C 264.042969 210.535156 263.523438 212.179688 263.519531 213.863281 C 263.523438 216.558594 264.84375 219.070312 267.03125 220.554688 C 269.222656 222.039062 271.988281 222.300781 274.40625 221.25 C 274.425781 221.242188 274.441406 221.226562 274.460938 221.21875 C 277.316406 219.949219 279.164062 217.058594 279.164062 213.863281 Z M 271.34375 219.421875 C 268.359375 219.421875 265.929688 216.925781 265.929688 213.863281 C 265.929688 210.800781 268.359375 208.308594 271.34375 208.308594 C 274.328125 208.308594 276.757812 210.800781 276.757812 213.863281 C 276.757812 216.925781 274.328125 219.421875 271.34375 219.421875 Z M 160.679688 239.9375 C 160.570312 236.894531 159.089844 234.761719 156.617188 234.09375 C 156.078125 233.949219 155.519531 233.875 154.957031 233.878906 C 150.488281 233.878906 145.09375 238.136719 142.460938 244.058594 C 141.03125 247.269531 140.714844 250.492188 141.597656 252.898438 C 142.117188 254.328125 143.035156 255.382812 144.253906 255.949219 C 147.898438 257.644531 153.648438 254.875 157.34375 249.636719 C 157.632812 249.226562 157.90625 248.804688 158.183594 248.34375 Z M 145.25 253.699219 C 144.617188 253.402344 144.144531 252.84375 143.851562 252.03125 C 143.203125 250.261719 143.503906 247.664062 144.648438 245.085938 C 145.535156 243.085938 146.917969 241.144531 148.535156 239.582031 C 148.574219 239.542969 148.613281 239.496094 148.652344 239.457031 C 148.910156 239.21875 149.140625 239.011719 149.40625 238.792969 C 149.664062 238.582031 149.917969 238.382812 150.15625 238.210938 C 151.816406 237.007812 153.519531 236.347656 154.957031 236.347656 C 155.332031 236.347656 155.683594 236.390625 156.003906 236.480469 C 157.363281 236.847656 158.097656 237.882812 158.25 239.644531 L 155.972656 247.3125 C 155.144531 248.652344 154.144531 249.867188 152.996094 250.929688 C 152.75 251.15625 152.496094 251.359375 152.242188 251.5625 C 149.714844 253.601562 146.933594 254.480469 145.25 253.699219 Z M 145.25 253.699219 "/>
<path style=" stroke:none;fill-rule:nonzero;fill:rgb(0%,63.921569%,87.843137%);fill-opacity:1;" d="M 167.542969 224.199219 C 166.121094 224.199219 164.644531 224.800781 163.449219 225.847656 C 162.957031 225.515625 162.445312 225.21875 161.914062 224.953125 C 157.59375 222.789062 152.285156 222.863281 146.957031 225.15625 C 145.824219 225.644531 144.683594 226.246094 143.5625 226.9375 C 143.484375 226.988281 143.40625 227.046875 143.324219 227.097656 C 143.003906 227.300781 142.6875 227.507812 142.378906 227.722656 C 139.085938 230.019531 136.265625 232.960938 134.089844 236.378906 C 131.636719 240.21875 130.121094 244.414062 129.707031 248.519531 C 128.859375 249.527344 127.867188 250.398438 126.765625 251.101562 C 125.03125 252.207031 123.140625 252.832031 121.472656 252.832031 C 120.316406 252.832031 119.445312 252.507812 119.015625 251.910156 C 118.609375 251.34375 118.550781 250.46875 118.855469 249.445312 L 126.328125 224.199219 L 116.027344 224.203125 C 114.53125 224.203125 112.992188 224.878906 111.789062 226.003906 C 111.378906 226.371094 111.015625 226.796875 110.710938 227.257812 L 110.628906 227.386719 C 110.550781 227.507812 110.480469 227.632812 110.414062 227.757812 L 110.339844 227.890625 C 110.269531 228.027344 110.207031 228.171875 110.144531 228.3125 L 110.101562 228.414062 C 110.019531 228.609375 109.960938 228.785156 109.910156 228.953125 L 104.527344 247.035156 C 103.132812 251.707031 103.753906 256.214844 106.277344 259.734375 C 108.957031 263.480469 113.597656 265.648438 119.003906 265.683594 L 119.074219 265.683594 C 122.757812 265.683594 126.578125 264.703125 130.132812 262.851562 C 130.164062 262.835938 130.195312 262.824219 130.222656 262.808594 C 130.273438 262.78125 130.320312 262.753906 130.371094 262.726562 C 131.207031 262.285156 132.015625 261.800781 132.800781 261.269531 C 133.867188 262.695312 135.195312 263.902344 136.707031 264.816406 C 139.015625 266.222656 141.660156 266.933594 144.5625 266.933594 C 147.964844 266.933594 151.554688 265.921875 154.972656 264.019531 L 154.6875 264.238281 C 154.523438 264.359375 154.355469 264.464844 154.195312 264.578125 C 155.800781 276.207031 158.253906 283.894531 162.125 289.425781 C 165.574219 294.355469 169.328125 296.089844 170.046875 296.386719 C 170.085938 296.40625 170.984375 296.847656 172.222656 297.277344 C 175.214844 298.3125 178.402344 299.25 179.921875 299.6875 C 177.441406 297.8125 175.09375 295.855469 172.960938 293.671875 C 163.027344 292.082031 158.523438 277.613281 155.933594 263.445312 C 156.042969 263.378906 156.152344 263.304688 156.261719 263.234375 C 156.574219 263.039062 156.878906 262.859375 157.195312 262.644531 C 157.5625 262.386719 157.902344 262.144531 158.230469 261.894531 C 159.15625 262.929688 160.238281 263.804688 161.429688 264.492188 C 165.664062 266.933594 171.246094 267.027344 177.578125 264.765625 L 192.011719 264.75 L 198.636719 242.480469 C 198.980469 241.15625 200.0625 239.625 201.496094 238.390625 C 201.628906 238.273438 201.761719 238.15625 201.902344 238.046875 C 202.558594 237.523438 203.277344 237.089844 204.042969 236.757812 C 205.410156 236.175781 206.707031 236.1875 207.34375 236.785156 C 207.964844 237.367188 208.046875 238.675781 207.5625 240.285156 L 200.304688 264.765625 L 215.320312 264.75 L 221.789062 242.953125 L 221.8125 242.878906 C 222.1875 241.433594 223.253906 239.839844 224.664062 238.566406 C 224.714844 238.515625 224.761719 238.460938 224.816406 238.414062 C 225.546875 237.78125 226.316406 237.285156 227.050781 236.972656 C 228.59375 236.320312 230.167969 236.335938 230.882812 237.019531 C 231.527344 237.640625 231.558594 239.042969 230.960938 240.875 L 229.074219 247.082031 C 227.492188 252.53125 228.082031 257.539062 230.730469 261.1875 C 233.242188 264.644531 237.355469 266.546875 242.320312 266.546875 C 247.28125 266.546875 252.222656 265.019531 256.625 262.121094 C 257.199219 262.703125 257.824219 263.230469 258.496094 263.699219 C 261.078125 265.503906 264.347656 266.46875 267.953125 266.496094 L 278.113281 266.496094 L 281.933594 253.640625 L 270.480469 253.640625 C 269.328125 253.640625 268.457031 253.3125 268.027344 252.71875 C 267.617188 252.152344 267.5625 251.277344 267.867188 250.253906 L 275.585938 224.179688 L 265.289062 224.191406 C 264.304688 224.195312 263.304688 224.484375 262.390625 225.003906 C 261.414062 225.554688 260.578125 226.332031 259.953125 227.277344 L 259.878906 227.398438 C 259.8125 227.503906 259.75 227.609375 259.667969 227.761719 L 259.597656 227.890625 C 259.535156 228.007812 259.480469 228.128906 259.402344 228.308594 L 259.355469 228.414062 C 259.28125 228.605469 259.21875 228.78125 259.167969 228.957031 L 254.066406 246.28125 C 253.410156 248.484375 251.453125 250.75 248.960938 252.195312 C 248.921875 252.21875 248.882812 252.234375 248.84375 252.253906 C 247.269531 253.148438 245.601562 253.640625 244.136719 253.640625 C 243.84375 253.640625 243.320312 253.59375 243.09375 253.285156 C 242.757812 252.8125 242.800781 251.632812 243.207031 250.273438 L 245.167969 243.707031 C 247.519531 235.742188 245.960938 229.015625 240.996094 225.714844 C 238.144531 223.820312 234.527344 223.296875 230.539062 224.199219 C 227.457031 224.898438 224.195312 226.484375 221.089844 228.800781 C 219.480469 226.636719 217.085938 225.035156 214.3125 224.277344 C 211.046875 223.382812 207.347656 223.621094 203.824219 224.949219 L 204.042969 224.195312 L 193.753906 224.199219 C 192.273438 224.199219 190.753906 224.855469 189.558594 225.953125 C 189.140625 226.335938 188.769531 226.761719 188.449219 227.234375 L 188.34375 227.402344 C 188.269531 227.519531 188.199219 227.640625 188.132812 227.761719 L 188.058594 227.898438 C 187.992188 228.035156 187.929688 228.167969 187.871094 228.308594 L 187.820312 228.417969 C 187.75 228.59375 187.6875 228.773438 187.632812 228.953125 L 182.367188 246.636719 C 181.488281 249.328125 179.378906 251.867188 176.867188 253.257812 C 176.757812 253.316406 176.644531 253.363281 176.535156 253.417969 C 175.472656 253.949219 174.417969 254.242188 173.457031 254.242188 C 172.328125 254.242188 171.453125 253.84375 170.921875 253.089844 C 170.148438 251.988281 170.066406 250.242188 170.703125 248.292969 L 177.839844 224.195312 L 170.972656 224.195312 Z M 174.589844 226.660156 L 168.429688 247.519531 C 167.542969 250.230469 167.742188 252.785156 168.96875 254.535156 C 169.953125 255.941406 171.546875 256.714844 173.457031 256.714844 C 177.945312 256.714844 182.957031 252.542969 184.628906 247.414062 L 189.9375 229.671875 C 190.421875 228.019531 192.136719 226.667969 193.753906 226.667969 L 200.800781 226.660156 L 199.8125 229.992188 C 204.066406 226.671875 209.410156 225.417969 213.875 226.714844 C 217.019531 227.628906 219.320312 229.683594 220.382812 232.519531 C 227.296875 226.4375 234.855469 224.578125 239.683594 227.789062 C 243.699219 230.453125 244.886719 236.136719 242.863281 242.988281 L 240.90625 249.550781 C 240.234375 251.792969 240.324219 253.589844 241.160156 254.75 C 241.792969 255.628906 242.847656 256.109375 244.136719 256.109375 C 249.207031 256.109375 254.921875 251.855469 256.367188 247.003906 L 261.46875 229.667969 C 261.960938 228.011719 263.671875 226.664062 265.289062 226.660156 L 272.332031 226.660156 L 265.5625 249.535156 C 265.03125 251.320312 265.21875 252.976562 266.09375 254.1875 C 266.988281 255.429688 268.546875 256.109375 270.480469 256.109375 L 278.632812 256.109375 L 276.328125 264.023438 L 267.964844 264.023438 C 263.210938 263.992188 259.246094 262.09375 257.042969 258.8125 C 253.929688 261.238281 248.886719 264.078125 242.320312 264.078125 C 238.136719 264.078125 234.703125 262.527344 232.65625 259.710938 C 230.472656 256.703125 230.019531 252.46875 231.378906 247.785156 L 233.242188 241.652344 C 234.164062 238.824219 233.910156 236.539062 232.523438 235.210938 C 231.101562 233.851562 228.589844 233.644531 226.128906 234.691406 C 223.128906 235.960938 220.269531 239.207031 219.484375 242.238281 L 213.535156 262.28125 L 203.554688 262.292969 L 209.867188 241.003906 C 210.65625 238.386719 210.335938 236.238281 208.964844 234.957031 C 207.601562 233.679688 205.417969 233.496094 203.121094 234.472656 C 199.988281 235.800781 197.0625 238.96875 196.316406 241.839844 L 196.179688 242.359375 L 196.160156 242.300781 L 190.230469 262.28125 L 180.25 262.292969 L 180.707031 260.753906 C 175.574219 263.300781 170.808594 264.34375 166.898438 263.78125 C 163.261719 263.257812 160.417969 261.386719 158.664062 258.367188 C 154.292969 262.355469 149.214844 264.476562 144.613281 264.476562 C 142.199219 264.476562 139.914062 263.894531 137.933594 262.6875 C 135.996094 261.511719 134.496094 259.832031 133.472656 257.703125 C 129.277344 261.210938 124.046875 263.214844 119.074219 263.214844 L 118.953125 263.214844 C 114.359375 263.183594 110.445312 261.382812 108.21875 258.273438 C 106.15625 255.398438 105.664062 251.664062 106.828125 247.757812 L 112.210938 229.675781 C 112.699219 228.023438 114.414062 226.671875 116.03125 226.671875 L 123.074219 226.671875 L 116.550781 248.726562 C 116.019531 250.515625 116.207031 252.167969 117.082031 253.378906 C 117.976562 254.617188 119.535156 255.300781 121.46875 255.300781 C 125.203125 255.300781 129.546875 252.902344 132.050781 249.460938 C 132.320312 245.515625 133.71875 241.460938 136.101562 237.734375 C 139.066406 233.089844 143.253906 229.433594 147.890625 227.433594 C 152.566406 225.417969 157.171875 225.324219 160.855469 227.171875 C 161.960938 227.722656 162.96875 228.449219 163.847656 229.324219 C 164.460938 227.820312 166.035156 226.671875 167.542969 226.667969 Z M 114.265625 213.871094 C 114.269531 216.566406 115.585938 219.078125 117.777344 220.5625 C 119.964844 222.046875 122.734375 222.308594 125.152344 221.257812 C 125.203125 221.234375 125.25 221.203125 125.300781 221.179688 C 128.105469 219.886719 129.910156 217.027344 129.910156 213.871094 C 129.90625 209.441406 126.40625 205.851562 122.089844 205.847656 C 120.257812 205.847656 118.484375 206.511719 117.078125 207.714844 C 116.558594 208.164062 116.097656 208.679688 115.707031 209.25 C 114.773438 210.601562 114.269531 212.214844 114.265625 213.871094 Z M 122.085938 208.316406 C 125.074219 208.320312 127.496094 210.804688 127.5 213.871094 C 127.5 216.933594 125.070312 219.429688 122.085938 219.429688 C 119.101562 219.429688 116.671875 216.933594 116.671875 213.871094 C 116.675781 210.804688 119.097656 208.320312 122.085938 208.316406 Z M 122.085938 208.316406 "/>
<path style=" stroke:none;fill-rule:nonzero;fill:rgb(0%,0%,0%);fill-opacity:1;" d="M 276.757812 213.863281 C 276.753906 210.796875 274.332031 208.3125 271.34375 208.308594 C 268.359375 208.308594 265.929688 210.800781 265.929688 213.863281 C 265.929688 216.929688 268.359375 219.421875 271.34375 219.421875 C 274.332031 219.417969 276.753906 216.929688 276.757812 213.863281 Z M 122.085938 219.429688 C 125.074219 219.421875 127.496094 216.9375 127.5 213.871094 C 127.5 210.808594 125.070312 208.316406 122.085938 208.316406 C 119.101562 208.316406 116.671875 210.808594 116.671875 213.871094 C 116.675781 216.9375 119.097656 219.425781 122.085938 219.429688 Z M 167.542969 226.667969 C 166.035156 226.667969 164.464844 227.816406 163.851562 229.324219 C 162.972656 228.449219 161.960938 227.722656 160.859375 227.171875 C 157.171875 225.324219 152.566406 225.417969 147.890625 227.433594 C 143.257812 229.429688 139.070312 233.089844 136.101562 237.734375 C 133.722656 241.460938 132.320312 245.511719 132.050781 249.457031 C 129.550781 252.898438 125.207031 255.300781 121.472656 255.300781 C 119.535156 255.300781 117.976562 254.617188 117.082031 253.378906 C 116.207031 252.164062 116.019531 250.511719 116.554688 248.722656 L 123.078125 226.667969 L 116.03125 226.667969 C 114.414062 226.671875 112.703125 228.019531 112.214844 229.675781 L 106.832031 247.757812 C 105.667969 251.664062 106.160156 255.398438 108.21875 258.269531 C 110.449219 261.382812 114.359375 263.183594 118.957031 263.214844 L 119.078125 263.214844 C 124.050781 263.214844 129.277344 261.210938 133.472656 257.703125 C 134.496094 259.832031 135.996094 261.507812 137.9375 262.6875 C 139.917969 263.890625 142.199219 264.476562 144.617188 264.476562 C 149.214844 264.476562 154.296875 262.355469 158.664062 258.363281 C 160.421875 261.386719 163.265625 263.253906 166.898438 263.78125 C 170.8125 264.34375 175.578125 263.296875 180.707031 260.753906 L 180.25 262.292969 L 190.234375 262.28125 L 196.160156 242.300781 L 196.183594 242.359375 L 196.316406 241.835938 C 197.0625 238.96875 199.992188 235.796875 203.125 234.46875 C 205.417969 233.496094 207.601562 233.679688 208.96875 234.953125 C 210.335938 236.234375 210.65625 238.382812 209.867188 241 L 203.558594 262.289062 L 213.539062 262.28125 L 219.484375 242.238281 C 220.273438 239.207031 223.132812 235.960938 226.128906 234.6875 C 228.59375 233.644531 231.101562 233.847656 232.523438 235.210938 C 233.910156 236.539062 234.167969 238.824219 233.242188 241.648438 L 231.378906 247.785156 C 230.019531 252.46875 230.476562 256.703125 232.660156 259.707031 C 234.707031 262.523438 238.136719 264.074219 242.320312 264.074219 C 248.890625 264.074219 253.933594 261.238281 257.046875 258.808594 C 259.246094 262.09375 263.214844 263.992188 267.96875 264.023438 L 276.332031 264.023438 L 278.636719 256.109375 L 270.484375 256.109375 C 268.546875 256.109375 266.988281 255.425781 266.09375 254.1875 C 265.21875 252.972656 265.03125 251.320312 265.566406 249.53125 L 272.335938 226.660156 L 265.292969 226.660156 C 263.675781 226.660156 261.960938 228.011719 261.472656 229.667969 L 256.371094 247 C 254.925781 251.855469 249.207031 256.109375 244.136719 256.109375 C 242.851562 256.109375 241.792969 255.625 241.160156 254.75 C 240.324219 253.585938 240.238281 251.789062 240.90625 249.550781 L 242.863281 242.988281 C 244.886719 236.136719 243.699219 230.453125 239.6875 227.785156 C 234.859375 224.574219 227.300781 226.433594 220.386719 232.515625 C 219.324219 229.683594 217.023438 227.628906 213.878906 226.710938 C 209.414062 225.414062 204.070312 226.671875 199.8125 229.992188 L 200.804688 226.65625 L 193.757812 226.664062 C 192.140625 226.667969 190.425781 228.015625 189.9375 229.671875 L 184.632812 247.414062 C 182.960938 252.542969 177.949219 256.710938 173.460938 256.710938 C 171.550781 256.710938 169.957031 255.9375 168.96875 254.53125 C 167.742188 252.785156 167.546875 250.230469 168.429688 247.519531 L 174.59375 226.660156 Z M 158.183594 248.34375 C 157.90625 248.804688 157.632812 249.226562 157.34375 249.636719 C 153.648438 254.871094 147.898438 257.644531 144.253906 255.945312 C 143.035156 255.378906 142.117188 254.324219 141.597656 252.898438 C 140.71875 250.488281 141.03125 247.269531 142.460938 244.058594 C 145.09375 238.136719 150.492188 233.878906 154.957031 233.878906 C 155.53125 233.878906 156.085938 233.945312 156.617188 234.089844 C 159.089844 234.761719 160.570312 236.890625 160.679688 239.9375 Z M 158.183594 248.34375 "/>
<path style=" stroke:none;fill-rule:nonzero;fill:rgb(93.72549%,20%,25.098039%);fill-opacity:1;" d="M 68.144531 228.480469 L 68.460938 228.039062 C 71.28125 224.128906 75.140625 218.777344 78.796875 213.898438 L 78.863281 213.816406 C 85.441406 205.785156 89.632812 201.84375 94.917969 198.742188 C 97.667969 197.164062 100.617188 195.992188 103.683594 195.25 L 102.882812 195.34375 C 102.859375 195.34375 102.261719 195.421875 99.605469 196.148438 C 96.800781 196.933594 94.097656 198.066406 91.558594 199.515625 L 91.554688 199.515625 C 90.851562 199.929688 90.164062 200.355469 89.492188 200.804688 C 84.859375 203.882812 80.769531 207.933594 74.816406 215.195312 C 74.78125 215.238281 74.746094 215.285156 74.710938 215.328125 L 67.472656 225.203125 Z M 38.167969 267.734375 C 35.300781 270.195312 30.683594 272 24.835938 272.851562 C 21.960938 273.273438 18.871094 273.582031 16.738281 273.589844 C 18.566406 272.117188 20.828125 270.09375 22.804688 267.707031 C 24.246094 266.089844 26.027344 263.511719 27.300781 259.71875 C 28.234375 256.953125 41.261719 213.644531 42.746094 208.714844 L 42.800781 208.523438 C 42.992188 207.878906 43.148438 207.285156 43.285156 206.714844 C 43.378906 206.3125 43.457031 205.949219 43.523438 205.609375 C 43.957031 203.375 43.90625 202.332031 43.90625 202.261719 C 43.933594 200.65625 43.707031 199.246094 43.3125 198.113281 C 43.222656 197.855469 43.109375 197.550781 42.964844 197.316406 L 42.894531 197.203125 L 42.890625 197.195312 L 40.578125 199.578125 L 40.640625 199.695312 C 40.777344 199.9375 40.871094 200.246094 40.949219 200.515625 C 41.4375 202.261719 41.328125 204.550781 40.582031 207.417969 L 24.84375 259.339844 C 22.144531 267.96875 11.207031 274.902344 11.097656 274.972656 L 10.25 275.503906 L 11.238281 275.597656 C 11.269531 275.601562 12.894531 275.757812 15.375 275.757812 C 17.53125 275.757812 20.328125 275.640625 23.285156 275.207031 C 31.757812 273.972656 37.492188 270.824219 40.433594 265.792969 C 40.828125 265.144531 41.589844 263.824219 42.113281 262.867188 C 41.457031 263.945312 40.714844 264.964844 39.890625 265.910156 C 39.542969 266.308594 38.996094 266.964844 38.167969 267.734375 Z M 72.515625 267.402344 L 82.78125 233.417969 L 78.523438 239.28125 L 77.867188 241.457031 L 77.867188 241.460938 L 69.363281 269.574219 L 69.234375 270 L 90.039062 270 L 92.46875 267.515625 L 92.367188 267.449219 L 92.332031 267.496094 L 91.914062 267.445312 L 91.957031 267.402344 Z M 52.839844 230.769531 L 51.382812 235.640625 L 57.773438 266.617188 L 59.878906 264.972656 Z M 52.839844 230.769531 "/>
<path style=" stroke:none;fill-rule:nonzero;fill:rgb(0%,63.921569%,87.843137%);fill-opacity:1;" d="M 114.617188 198.847656 C 116.578125 197.003906 117.605469 196.191406 119.644531 194.484375 C 119.644531 194.484375 117.457031 194.195312 112.394531 194.183594 C 110.1875 194.183594 107.117188 194.40625 103.683594 195.25 C 100.617188 195.992188 97.664062 197.167969 94.914062 198.742188 C 89.632812 201.84375 85.441406 205.789062 78.863281 213.816406 L 78.796875 213.902344 C 75.140625 218.777344 71.277344 224.132812 68.460938 228.039062 L 68.144531 228.480469 L 67.472656 225.203125 L 61.726562 197.191406 L 42.890625 197.199219 L 42.890625 197.207031 L 42.894531 197.203125 L 42.960938 197.320312 C 43.105469 197.554688 43.21875 197.855469 43.3125 198.117188 C 43.707031 199.246094 43.929688 200.65625 43.902344 202.261719 C 43.902344 202.335938 43.957031 203.375 43.519531 205.609375 C 43.449219 205.980469 43.367188 206.347656 43.28125 206.714844 C 43.144531 207.285156 42.988281 207.878906 42.800781 208.527344 L 42.742188 208.714844 C 41.261719 213.644531 28.230469 256.953125 27.300781 259.71875 C 26.023438 263.511719 24.242188 266.09375 22.800781 267.710938 C 20.824219 270.09375 18.566406 272.121094 16.734375 273.589844 C 18.867188 273.582031 21.957031 273.273438 24.835938 272.855469 C 30.679688 272 35.296875 270.199219 38.164062 267.734375 C 38.992188 266.964844 39.542969 266.308594 39.886719 265.914062 C 40.710938 264.964844 41.453125 263.945312 42.109375 262.871094 C 44.496094 259 45.679688 254.84375 46.132812 253.25 L 51.382812 235.640625 L 52.835938 230.769531 L 59.878906 264.972656 L 78.523438 239.28125 L 82.777344 233.417969 L 72.511719 267.402344 L 92.464844 267.402344 C 92.082031 266.074219 91.832031 265.144531 91.621094 264.125 C 91.367188 262.628906 91.386719 262.042969 91.570312 260.636719 C 91.683594 259.746094 91.933594 258.773438 92.292969 257.5 L 105.347656 214.433594 C 105.40625 214.246094 105.472656 214.074219 105.53125 213.886719 C 107.621094 207.300781 110.664062 202.367188 114.617188 198.847656 Z M 103.042969 213.695312 L 89.988281 256.765625 C 89.589844 258.179688 89.3125 259.265625 89.175781 260.308594 C 88.949219 262.0625 88.988281 263.460938 89.300781 264.714844 L 89.355469 264.925781 L 75.792969 264.925781 L 75.859375 264.703125 L 89.253906 220.347656 L 61.136719 259.089844 L 53.265625 220.859375 L 43.816406 252.542969 C 43.28125 254.4375 41.644531 260.21875 38.09375 264.253906 C 36.988281 265.515625 33.613281 269.359375 24.050781 270.382812 L 23.582031 270.433594 L 23.917969 270.09375 C 25.617188 268.367188 27.980469 265.304688 29.585938 260.519531 C 30.5625 257.613281 44.964844 209.730469 45.109375 209.25 C 45.660156 207.359375 45.96875 205.921875 46.183594 204.285156 C 46.40625 202.554688 46.367188 201.113281 46.054688 199.878906 L 46.003906 199.667969 L 59.765625 199.664062 L 66.867188 234.351562 C 66.867188 234.351562 77.085938 220.226562 80.699219 215.40625 C 87.078125 207.625 91.109375 203.828125 96.121094 200.886719 C 102.210938 197.390625 108.335938 196.660156 112.398438 196.660156 C 112.582031 196.660156 112.769531 196.660156 112.953125 196.664062 L 113.382812 196.675781 L 113.054688 196.964844 C 108.550781 200.898438 105.277344 206.367188 103.042969 213.695312 Z M 103.042969 213.695312 "/>
<path style=" stroke:none;fill-rule:nonzero;fill:rgb(0%,0%,0%);fill-opacity:1;" d="M 112.949219 196.667969 C 112.765625 196.660156 112.582031 196.660156 112.394531 196.660156 C 108.332031 196.660156 102.210938 197.394531 96.117188 200.886719 C 91.105469 203.828125 87.074219 207.628906 80.699219 215.40625 C 77.082031 220.226562 66.863281 234.351562 66.863281 234.351562 L 59.761719 199.664062 L 46 199.667969 L 46.054688 199.878906 C 46.363281 201.113281 46.402344 202.554688 46.179688 204.285156 C 45.964844 205.921875 45.65625 207.359375 45.109375 209.25 C 44.964844 209.734375 30.5625 257.613281 29.582031 260.519531 C 27.976562 265.304688 25.613281 268.367188 23.914062 270.09375 L 23.578125 270.433594 L 24.046875 270.386719 C 33.613281 269.359375 36.984375 265.519531 38.09375 264.253906 C 41.640625 260.21875 43.277344 254.441406 43.816406 252.542969 L 53.265625 220.859375 L 61.136719 259.089844 L 89.253906 220.347656 L 75.855469 264.707031 L 75.789062 264.925781 L 89.351562 264.925781 L 89.296875 264.714844 C 88.984375 263.460938 88.945312 262.0625 89.171875 260.308594 C 89.308594 259.265625 89.585938 258.179688 89.984375 256.765625 L 103.042969 213.695312 C 105.273438 206.367188 108.546875 200.898438 113.050781 196.96875 L 113.378906 196.679688 Z M 112.949219 196.667969 "/>
<path style=" stroke:none;fill-rule:nonzero;fill:rgb(93.72549%,20%,25.098039%);fill-opacity:1;" d="M 84.667969 150.15625 C 84.90625 155.601562 85.695312 161.007812 87.019531 166.285156 C 85.601562 147.308594 88.824219 131.324219 95.476562 118.175781 C 93.710938 118.148438 91.96875 118.136719 90.261719 118.140625 C 86.0625 128.128906 84.179688 138.890625 84.667969 150.15625 Z M 170.089844 71.761719 C 169.589844 71.773438 169.089844 71.78125 168.59375 71.796875 C 146.707031 72.496094 126.433594 78.558594 111.902344 89.816406 C 109.582031 91.613281 107.371094 93.546875 105.273438 95.609375 C 102.734375 98.214844 100.386719 101.007812 98.246094 103.96875 C 100.832031 103.523438 103.367188 103.136719 105.855469 102.804688 C 121.207031 85.25 144.367188 75.121094 170.089844 71.761719 Z M 170.089844 71.761719 "/>
<path style=" stroke:none;fill-rule:nonzero;fill:rgb(25.490196%,45.490196%,55.294118%);fill-opacity:1;" d="M 78.988281 118.378906 C 84.480469 118.160156 89.980469 118.09375 95.476562 118.179688 C 102.644531 118.289062 110.277344 118.664062 118.214844 119.4375 C 121.832031 116.613281 125.625 114.023438 129.5625 111.695312 C 106.027344 110.640625 74.386719 111.847656 44.199219 121.929688 C 44.972656 121.773438 57.160156 119.476562 75.503906 118.539062 C 76.664062 118.480469 77.824219 118.425781 78.988281 118.378906 Z M 78.988281 118.378906 "/>
<path style=" stroke:none;fill-rule:nonzero;fill:rgb(0%,0%,0%);fill-opacity:1;" d="M 284.613281 267.507812 L 284.601562 267.507812 L 284.042969 265.710938 L 283.191406 265.710938 L 283.191406 268.457031 L 283.679688 268.457031 L 283.679688 266.269531 L 283.695312 266.269531 L 284.371094 268.457031 L 284.839844 268.457031 L 285.539062 266.269531 L 285.550781 266.269531 L 285.550781 268.457031 L 286.042969 268.457031 L 286.042969 265.710938 L 285.195312 265.710938 Z M 280.804688 266.203125 L 281.53125 266.203125 L 281.53125 268.457031 L 282.019531 268.457031 L 282.019531 266.203125 L 282.75 266.203125 L 282.75 265.710938 L 280.804688 265.710938 Z M 280.804688 266.203125 "/>
</g>
</svg>
