<?xml version="1.0" encoding="UTF-8"?>
<svg xmlns="http://www.w3.org/2000/svg" xmlns:xlink="http://www.w3.org/1999/xlink" width="300px" height="300px" viewBox="0 0 300 300" version="1.1">
<g id="surface1">
<path style=" stroke:none;fill-rule:nonzero;fill:rgb(100%,77.254902%,18.431373%);fill-opacity:1;" d="M 300.519531 87.238281 L 300.519531 125.003906 C 300.519531 156.523438 294.871094 175.621094 267.753906 227.960938 C 239.203125 283.0625 204 299.425781 161.867188 299.425781 C 134.167969 299.425781 108.121094 291.097656 87.082031 275.714844 L 86.890625 275.78125 L 82.199219 271.941406 L 81.328125 271.242188 C 75.355469 266.375 70.269531 261.132812 65.882812 255.746094 C 65.515625 255.304688 65.152344 254.859375 64.800781 254.40625 C 64.738281 254.332031 64.667969 254.253906 64.628906 254.175781 C 64.355469 253.851562 64.105469 253.519531 63.84375 253.195312 C 61.332031 249.964844 59.019531 246.605469 56.914062 243.140625 C 56.671875 242.777344 56.445312 242.402344 56.226562 242.023438 C 49.300781 230.628906 44.726562 219.292969 40.886719 209.804688 C 39.789062 207.089844 38.753906 204.53125 37.734375 202.152344 C 29.785156 183.507812 14.394531 147.082031 6.945312 128.722656 C -0.796875 109.664062 -1.984375 96.136719 2.972656 83.480469 C 8.28125 69.9375 20.15625 59.097656 36.351562 47.003906 C 52.578125 34.882812 66.496094 24.824219 85.734375 12.148438 C 97.785156 4.203125 110.714844 0 123.113281 0 C 128.371094 0 133.328125 0.769531 137.878906 2.285156 C 138.695312 2.558594 139.59375 2.855469 140.773438 3.261719 C 144.953125 4.703125 148.664062 6.664062 151.863281 9.078125 C 152.199219 8.90625 152.515625 8.730469 152.820312 8.566406 C 161.660156 3.847656 171.585938 1.363281 181.515625 1.363281 C 189.367188 1.363281 197.0625 2.914062 203.777344 5.839844 C 205.234375 6.472656 206.078125 6.863281 207.042969 7.339844 L 208.734375 8.140625 C 214.011719 10.605469 218.554688 13.765625 222.21875 17.4375 C 228.097656 15.640625 233.800781 14.730469 239.246094 14.730469 C 247.53125 14.730469 255.28125 16.800781 262.28125 20.871094 L 263.949219 21.835938 C 267.148438 23.695312 268.761719 24.625 271.25 26.214844 C 290.230469 38.207031 300.519531 51.484375 300.519531 87.238281 "/>
<path style=" stroke:none;fill-rule:nonzero;fill:rgb(7.058824%,15.686275%,29.411765%);fill-opacity:1;" d="M 264.238281 35.460938 C 261.566406 33.773438 260.011719 32.890625 255.660156 30.355469 C 247.199219 25.429688 235.980469 23.804688 220.675781 30.050781 C 219.664062 30.460938 218.714844 30.84375 217.785156 31.226562 C 214.378906 24.859375 208.34375 20.589844 203.121094 18.152344 C 200.980469 17.148438 200.386719 16.824219 198.457031 15.988281 C 188.070312 11.449219 173.050781 10.792969 159.027344 18.273438 C 156.207031 19.773438 152.519531 21.769531 149.34375 23.480469 C 146.105469 18.433594 141.109375 15.394531 136.425781 13.78125 C 135.304688 13.398438 134.441406 13.109375 133.65625 12.847656 C 123.304688 9.402344 108.167969 11.234375 92.949219 21.25 C 74.835938 33.199219 61.539062 42.714844 44.15625 55.699219 C 12.363281 79.449219 5.609375 93.09375 18.496094 124.816406 C 25.574219 142.261719 40.601562 177.863281 49.214844 198.070312 C 54.152344 209.652344 59.308594 224.675781 68.628906 239.175781 L 68.632812 239.175781 C 69.492188 240.515625 70.378906 241.839844 71.296875 243.144531 C 71.542969 243.488281 71.800781 243.828125 72.046875 244.167969 C 76.28125 250.027344 81.308594 255.703125 87.359375 260.96875 C 87.839844 261.386719 88.328125 261.820312 88.820312 262.230469 C 89.074219 262.441406 89.292969 262.65625 89.546875 262.859375 L 89.570312 262.835938 C 108.539062 278.601562 133.664062 288.183594 161.867188 288.183594 C 213.609375 288.183594 255.550781 249.890625 255.550781 202.679688 L 255.550781 202.585938 C 255.550781 157.507812 215.519531 120.964844 166.132812 120.964844 C 139.304688 120.964844 112.347656 135.121094 96.449219 157.449219 C 85.769531 133.570312 75.066406 109.703125 64.335938 85.839844 C 58.476562 72.816406 59.820312 66.21875 68.777344 58.640625 C 73.351562 54.765625 78.914062 50.894531 85.089844 47.070312 C 91.402344 43.171875 98.523438 45.472656 98.523438 53.085938 L 98.523438 133.746094 C 112.933594 120.46875 130.605469 111.820312 153.242188 108.007812 L 152.894531 41.425781 C 154.503906 40.515625 156.011719 39.671875 157.144531 39.074219 C 162.917969 36.015625 167.050781 39.40625 167.050781 44.316406 L 167.050781 106.304688 C 167.40625 106.304688 167.769531 106.292969 168.125 106.292969 C 186.527344 106.28125 204.597656 110.753906 220.476562 119.246094 L 220.476562 49.753906 C 221.917969 49.21875 223.28125 48.722656 224.332031 48.339844 C 230.117188 46.242188 234.023438 49.515625 234.023438 54.289062 C 234.023438 59.0625 233.625 127.960938 233.625 127.960938 C 254.875 143.960938 268.667969 167.515625 270.839844 194.070312 C 280.976562 174.375 288.199219 156.027344 288.199219 125.003906 L 288.199219 87.238281 C 288.195312 55.789062 280.382812 45.65625 264.242188 35.460938 M 165.320312 154.46875 C 195.144531 154.46875 219.320312 176.542969 219.320312 203.761719 C 219.320312 230.976562 195.140625 253.050781 165.320312 253.050781 C 135.503906 253.050781 111.328125 230.976562 111.328125 203.761719 C 111.328125 176.542969 135.5 154.46875 165.320312 154.46875 "/>
<path style=" stroke:none;fill-rule:nonzero;fill:rgb(100%,100%,100%);fill-opacity:1;" d="M 124.371094 203.761719 C 124.371094 194.820312 127.824219 186.605469 133.574219 180.160156 C 145.023438 194.09375 145.023438 213.425781 133.574219 227.359375 C 127.613281 220.699219 124.363281 212.363281 124.371094 203.761719 M 140.734375 233.65625 C 155.800781 216.175781 155.800781 191.347656 140.738281 173.867188 C 147.816406 168.984375 156.445312 166.347656 165.316406 166.351562 C 174.191406 166.347656 182.824219 168.984375 189.902344 173.867188 C 174.835938 191.347656 174.835938 216.175781 189.902344 233.65625 C 182.824219 238.535156 174.191406 241.175781 165.316406 241.167969 C 156.445312 241.175781 147.8125 238.535156 140.734375 233.65625 M 197.0625 227.359375 C 185.617188 213.425781 185.617188 194.089844 197.0625 180.160156 C 203.027344 186.820312 206.28125 195.160156 206.277344 203.761719 C 206.277344 212.703125 202.816406 220.910156 197.066406 227.359375 "/>
</g>
</svg>
