<?xml version="1.0" encoding="UTF-8"?>
<svg xmlns="http://www.w3.org/2000/svg" xmlns:xlink="http://www.w3.org/1999/xlink" width="300px" height="300px" viewBox="0 0 300 300" version="1.1">
<g id="surface1">
<path style=" stroke:none;fill-rule:nonzero;fill:rgb(100%,100%,100%);fill-opacity:1;" d="M 282.191406 175.121094 C 282.191406 175.121094 277.851562 185.996094 268.953125 186.507812 C 265.320312 186.710938 262.261719 185.074219 261.429688 184.3125 L 261.429688 148.722656 C 275.070312 147.710938 300.652344 139.976562 300.652344 117.796875 C 300.652344 99.074219 281.429688 86.925781 261.429688 82.457031 L 261.429688 37.449219 C 262.261719 36.6875 265.320312 35.257812 268.953125 35.253906 C 277.648438 35.253906 282.191406 46.640625 282.191406 46.640625 L 290.253906 39.332031 C 300.191406 30.320312 299.003906 16.863281 287.492188 8.019531 C 277.554688 0.402344 258.574219 -3.980469 234.269531 5.046875 C 209.988281 -3.980469 191.007812 0.402344 181.089844 8.019531 C 169.558594 16.863281 168.375 30.320312 178.308594 39.332031 L 186.371094 46.640625 C 186.371094 46.640625 190.636719 35.253906 199.605469 35.253906 C 203.257812 35.257812 206.296875 36.6875 207.113281 37.449219 L 207.113281 89.789062 C 196.4375 94.066406 186.613281 99.421875 177.75 105.820312 C 167.425781 97.113281 102.621094 42.507812 95 36.082031 C 96.335938 35.625 97.988281 35.257812 99.804688 35.253906 C 109.441406 35.25 113.058594 46.640625 113.058594 46.640625 L 121.101562 39.332031 C 131.039062 30.320312 129.835938 16.863281 118.324219 8.019531 C 108.386719 0.402344 89.40625 -3.980469 65.121094 5.046875 C 40.835938 -3.980469 21.855469 0.402344 11.9375 8.019531 C 0.390625 16.863281 -0.796875 30.320312 9.136719 39.332031 L 17.203125 46.640625 C 17.203125 46.640625 21.242188 35.253906 30.4375 35.253906 C 34.089844 35.253906 37.167969 36.6875 37.960938 37.449219 L 37.960938 82.734375 C 18.148438 87.453125 0 99.441406 0 117.796875 C 0 139.320312 24.078125 147.226562 37.964844 148.597656 L 37.964844 184.3125 C 37.167969 185.074219 34.089844 186.542969 30.4375 186.511719 C 22.226562 186.414062 17.203125 175.125 17.203125 175.125 L 9.140625 182.433594 C -0.796875 191.453125 0.390625 204.90625 11.941406 213.742188 C 21.855469 221.363281 40.839844 225.742188 65.121094 216.726562 C 89.40625 225.742188 108.386719 221.363281 118.324219 213.742188 C 120.214844 212.289062 121.753906 210.671875 123.085938 208.996094 L 123.085938 254.992188 C 123.085938 260.730469 117.492188 265.394531 113.449219 265.59375 C 105.832031 265.964844 102.347656 255.386719 102.347656 255.386719 L 94.28125 262.699219 C 84.625 271.453125 85.421875 283.800781 96.152344 292.039062 C 105.960938 299.566406 125.144531 303.714844 150.246094 294.28125 C 175.34375 303.714844 194.546875 299.566406 204.355469 292.039062 C 215.105469 283.800781 215.882812 271.453125 206.226562 262.699219 L 198.164062 255.382812 C 198.164062 255.382812 195.867188 265.40625 187.5625 265.371094 C 182.722656 265.339844 177.421875 259.839844 177.421875 254.988281 L 177.421875 210.324219 C 178.515625 211.523438 179.703125 212.679688 181.09375 213.742188 C 191.011719 221.363281 209.992188 225.742188 234.273438 216.726562 C 258.578125 225.742188 277.558594 221.363281 287.496094 213.742188 C 299.007812 204.90625 300.195312 191.4375 290.257812 182.433594 Z M 234.84375 209.332031 L 234.269531 209.085938 L 233.714844 209.332031 C 215.492188 217.175781 198.492188 217.148438 188.207031 209.257812 C 183.695312 205.792969 181.1875 201.289062 181.160156 196.617188 C 181.160156 193.335938 182.644531 190.175781 185.238281 187.4375 C 191.078125 193.691406 199.808594 193.433594 203.460938 192.925781 C 210.414062 191.964844 216.234375 188.644531 216.695312 185.359375 C 216.457031 184.816406 178.453125 152.355469 178.453125 152.355469 L 177.378906 151.445312 L 176.65625 152.507812 C 171.464844 160.089844 168.316406 167.375 167.777344 173.03125 L 167.777344 254.988281 C 167.777344 263.253906 176.785156 270.382812 185.199219 271.859375 C 190.875 272.84375 195.785156 271.152344 199.214844 267.582031 C 201.847656 270.304688 203.347656 273.398438 203.347656 276.542969 C 203.347656 280.484375 201.289062 284.433594 197.214844 287.550781 C 187.109375 295.304688 169.761719 295.050781 150.816406 286.890625 L 150.242188 286.648438 L 149.683594 286.890625 C 130.738281 295.050781 113.371094 295.304688 103.289062 287.546875 C 99.339844 284.539062 97.152344 280.613281 97.152344 276.542969 C 97.152344 273.398438 98.632812 270.304688 101.269531 267.589844 C 104.828125 271.324219 109.941406 273.101562 115.800781 272.078125 C 124.105469 270.621094 132.707031 263.832031 132.707031 254.992188 L 132.707031 171.882812 C 130.296875 156.054688 110.277344 130.9375 84.34375 118.648438 L 82.65625 117.855469 L 82.65625 185.003906 C 82.730469 188.21875 88.199219 191.632812 95.078125 192.789062 C 102.898438 194.117188 109.738281 191.925781 114.078125 187.316406 C 116.765625 190.074219 118.246094 193.28125 118.246094 196.617188 C 118.246094 201.09375 115.855469 205.679688 111.183594 209.253906 C 100.914062 217.152344 83.898438 217.175781 65.675781 209.332031 L 65.121094 209.085938 L 64.5625 209.332031 C 46.34375 217.175781 29.34375 217.152344 19.054688 209.253906 C 14.402344 205.679688 11.992188 201.09375 11.992188 196.617188 C 11.992188 193.285156 13.496094 190.074219 16.183594 187.316406 C 20.5 191.929688 27.34375 194.117188 35.164062 192.789062 C 42.042969 191.632812 47.507812 188.21875 47.585938 185.015625 L 47.585938 112.5 L 46.066406 113.019531 C 38.628906 115.527344 33.382812 120.816406 32.03125 127.160156 C 31.8125 128.183594 31.699219 129.214844 31.699219 130.25 C 31.699219 134.699219 34.125 138.667969 37.925781 141.789062 C 30.789062 140.800781 9.621094 136.324219 9.621094 117.796875 C 9.621094 101.09375 28.269531 90.757812 46.75 87.929688 L 47.585938 87.800781 L 47.585938 36.765625 C 47.511719 33.550781 42.042969 30.128906 35.164062 28.964844 C 27.34375 27.648438 20.5 29.832031 16.183594 34.453125 C 13.496094 31.695312 11.992188 28.476562 11.992188 25.152344 C 11.992188 20.667969 14.402344 16.089844 19.054688 12.507812 C 29.34375 4.617188 46.34375 4.585938 64.5625 12.429688 L 65.121094 12.675781 L 65.675781 12.429688 C 83.878906 4.589844 100.914062 4.617188 111.183594 12.507812 C 115.707031 15.96875 118.222656 20.476562 118.246094 25.152344 C 118.246094 28.476562 116.765625 31.691406 114.078125 34.449219 C 110.128906 30.238281 104.160156 28.003906 97.078125 28.695312 C 90.125 29.378906 83.863281 32.535156 82.804688 35.886719 C 83.046875 36.515625 176.601562 115.351562 176.601562 115.351562 L 177.4375 116.046875 L 178.253906 115.355469 C 189.191406 106.234375 201.921875 98.992188 216.160156 93.835938 L 216.753906 93.628906 L 216.753906 36.765625 C 216.679688 33.550781 211.210938 30.128906 204.332031 28.964844 C 196.511719 27.648438 189.667969 29.832031 185.351562 34.453125 C 182.664062 31.691406 181.160156 28.476562 181.160156 25.144531 C 181.160156 20.667969 183.550781 16.085938 188.207031 12.507812 C 198.492188 4.617188 215.492188 4.589844 233.714844 12.433594 L 234.269531 12.675781 L 234.84375 12.433594 C 253.046875 4.589844 270.066406 4.617188 280.335938 12.503906 C 285.003906 16.085938 287.398438 20.667969 287.398438 25.148438 C 287.398438 28.480469 285.917969 31.691406 283.226562 34.453125 C 278.910156 29.839844 272.070312 27.652344 264.265625 28.964844 C 257.367188 30.125 251.902344 33.542969 251.828125 36.75 L 251.828125 87.640625 L 252.679688 87.761719 C 271.144531 90.242188 291.015625 100.695312 291.015625 117.792969 C 291.015625 136.316406 269.902344 140.792969 262.746094 141.785156 C 266.566406 138.65625 268.972656 134.71875 268.972656 130.292969 C 268.972656 129.042969 268.808594 127.769531 268.472656 126.488281 C 266.789062 120.023438 261.117188 114.832031 253.292969 112.605469 L 251.828125 112.1875 L 251.828125 185.011719 C 251.902344 188.214844 257.371094 191.640625 264.265625 192.800781 C 272.070312 194.113281 278.910156 191.921875 283.226562 187.3125 C 285.917969 190.066406 287.398438 193.28125 287.398438 196.613281 C 287.398438 201.09375 285.007812 205.679688 280.335938 209.253906 C 270.066406 217.148438 253.050781 217.175781 234.84375 209.332031 Z M 121.101562 182.433594 L 113.058594 175.125 C 113.058594 175.125 107.441406 186.128906 99.804688 186.507812 C 96.171875 186.683594 93.089844 185.074219 92.296875 184.3125 L 92.296875 132.0625 C 110.089844 144.792969 121.453125 162.433594 123.085938 172.292969 L 123.085938 184.59375 C 122.472656 183.863281 121.863281 183.117188 121.101562 182.433594 Z M 177.417969 183.410156 L 177.417969 173.378906 C 177.660156 170.832031 178.640625 167.761719 180.179688 164.4375 C 189.242188 172.164062 200.105469 181.453125 204.890625 185.527344 C 203.480469 186.050781 201.644531 186.53125 199.585938 186.507812 C 191.839844 186.414062 186.371094 175.121094 186.371094 175.121094 L 178.308594 182.433594 C 177.957031 182.75 177.714844 183.089844 177.417969 183.410156 Z M 177.417969 183.410156 "/>
<path style=" stroke:none;fill-rule:nonzero;fill:rgb(100%,34.901961%,6.27451%);fill-opacity:1;" d="M 287.398438 196.617188 C 287.398438 193.285156 285.917969 190.070312 283.226562 187.316406 C 278.910156 191.925781 272.070312 194.117188 264.265625 192.804688 C 257.367188 191.644531 251.902344 188.21875 251.828125 185.015625 L 251.828125 112.191406 L 253.292969 112.609375 C 261.117188 114.835938 266.789062 120.023438 268.472656 126.492188 C 268.808594 127.773438 268.972656 129.046875 268.972656 130.296875 C 268.972656 134.722656 266.566406 138.660156 262.746094 141.789062 C 269.902344 140.796875 291.015625 136.320312 291.015625 117.796875 C 291.015625 100.699219 271.144531 90.242188 252.679688 87.765625 L 251.828125 87.644531 L 251.828125 36.753906 C 251.902344 33.546875 257.371094 30.125 264.265625 28.96875 C 272.070312 27.652344 278.910156 29.839844 283.226562 34.457031 C 285.917969 31.695312 287.398438 28.480469 287.398438 25.152344 C 287.398438 20.667969 285.007812 16.089844 280.335938 12.507812 C 270.066406 4.621094 253.046875 4.59375 234.84375 12.433594 L 234.269531 12.679688 L 233.714844 12.433594 C 215.492188 4.59375 198.492188 4.621094 188.207031 12.511719 C 183.554688 16.085938 181.160156 20.671875 181.160156 25.148438 C 181.160156 28.480469 182.664062 31.691406 185.351562 34.457031 C 189.667969 29.835938 196.511719 27.652344 204.332031 28.96875 C 211.210938 30.132812 216.679688 33.550781 216.753906 36.769531 L 216.753906 93.632812 L 216.160156 93.839844 C 201.921875 98.996094 189.191406 106.234375 178.253906 115.359375 L 177.4375 116.046875 L 176.601562 115.355469 C 176.601562 115.355469 83.046875 36.519531 82.804688 35.886719 C 83.859375 32.539062 90.125 29.378906 97.078125 28.699219 C 104.160156 28.007812 110.128906 30.238281 114.078125 34.453125 C 116.765625 31.695312 118.246094 28.480469 118.246094 25.152344 C 118.246094 20.675781 115.855469 16.089844 111.183594 12.507812 C 100.914062 4.617188 83.878906 4.59375 65.675781 12.433594 L 65.121094 12.675781 L 64.5625 12.433594 C 46.34375 4.589844 29.34375 4.617188 19.054688 12.507812 C 14.402344 16.089844 11.992188 20.671875 11.992188 25.152344 C 11.992188 28.480469 13.496094 31.691406 16.183594 34.453125 C 20.5 29.832031 27.34375 27.648438 35.164062 28.964844 C 42.042969 30.128906 47.507812 33.550781 47.585938 36.765625 L 47.585938 87.796875 L 46.75 87.925781 C 28.269531 90.757812 9.621094 101.089844 9.621094 117.796875 C 9.621094 136.324219 30.789062 140.800781 37.925781 141.789062 C 34.125 138.664062 31.699219 134.695312 31.699219 130.25 C 31.699219 129.234375 31.808594 128.199219 32.03125 127.15625 C 33.382812 120.816406 38.628906 115.527344 46.066406 113.015625 L 47.585938 112.5 L 47.585938 185.015625 C 47.511719 188.21875 42.042969 191.628906 35.164062 192.789062 C 27.34375 194.117188 20.5 191.925781 16.183594 187.316406 C 13.496094 190.074219 11.992188 193.289062 11.992188 196.617188 C 11.992188 201.09375 14.402344 205.679688 19.054688 209.253906 C 29.34375 217.152344 46.34375 217.175781 64.5625 209.332031 L 65.121094 209.085938 L 65.675781 209.332031 C 83.898438 217.175781 100.914062 217.152344 111.183594 209.253906 C 115.707031 205.792969 118.222656 201.292969 118.246094 196.617188 C 118.246094 193.28125 116.765625 190.074219 114.078125 187.316406 C 109.738281 191.929688 102.898438 194.117188 95.078125 192.789062 C 88.199219 191.632812 82.730469 188.21875 82.65625 185.003906 L 82.65625 117.855469 L 84.34375 118.644531 C 110.277344 130.9375 130.296875 156.050781 132.707031 171.882812 L 132.707031 254.988281 C 132.707031 263.832031 124.105469 270.621094 115.800781 272.078125 C 109.941406 273.101562 104.828125 271.324219 101.269531 267.585938 C 98.636719 270.308594 97.152344 273.398438 97.152344 276.539062 C 97.152344 280.480469 99.210938 284.429688 103.289062 287.546875 C 113.371094 295.304688 130.738281 295.050781 149.683594 286.890625 L 150.242188 286.644531 L 150.816406 286.890625 C 169.761719 295.050781 187.109375 295.300781 197.214844 287.546875 C 201.160156 284.539062 203.347656 280.613281 203.347656 276.539062 C 203.347656 273.398438 201.847656 270.304688 199.214844 267.582031 C 195.785156 271.148438 190.875 272.84375 185.199219 271.855469 C 176.785156 270.382812 167.777344 263.253906 167.777344 254.988281 L 167.777344 173.027344 C 168.316406 167.375 171.464844 160.089844 176.65625 152.503906 L 177.378906 151.441406 L 178.453125 152.355469 C 178.453125 152.355469 216.457031 184.816406 216.695312 185.355469 C 216.234375 188.640625 210.414062 191.964844 203.460938 192.925781 C 199.8125 193.433594 191.078125 193.691406 185.238281 187.4375 C 182.644531 190.171875 181.160156 193.335938 181.160156 196.613281 C 181.160156 201.097656 183.550781 205.683594 188.207031 209.257812 C 198.492188 217.148438 215.492188 217.171875 233.714844 209.328125 L 234.269531 209.085938 L 234.84375 209.328125 C 253.046875 217.175781 270.066406 217.148438 280.335938 209.257812 C 284.859375 205.796875 287.375 201.292969 287.398438 196.617188 Z M 150.28125 149.933594 L 149.335938 148.226562 C 131.722656 115.953125 103.660156 100.59375 83.25 93.386719 L 82.65625 93.183594 L 82.65625 70.578125 L 158.679688 135.476562 L 159.066406 135.863281 Z M 216.753906 149.183594 L 195.9375 131.65625 L 196.511719 131.183594 C 202.351562 126.46875 208.597656 122.457031 215.046875 119.273438 L 216.753906 118.4375 Z M 216.753906 149.183594 "/>
<path style=" stroke:none;fill-rule:nonzero;fill:rgb(100%,100%,100%);fill-opacity:1;" d="M 82.65625 70.578125 L 82.65625 93.183594 L 83.25 93.386719 C 103.65625 100.589844 131.722656 115.953125 149.332031 148.226562 L 150.277344 149.933594 L 159.0625 135.863281 L 158.675781 135.476562 Z M 196.511719 131.183594 L 195.9375 131.65625 L 216.753906 149.1875 L 216.753906 118.4375 L 215.046875 119.269531 C 208.597656 122.460938 202.351562 126.46875 196.511719 131.183594 Z M 196.511719 131.183594 "/>
</g>
</svg>
