<?xml version="1.0" encoding="UTF-8"?>
<svg xmlns="http://www.w3.org/2000/svg" xmlns:xlink="http://www.w3.org/1999/xlink" width="300px" height="300px" viewBox="0 0 300 300" version="1.1">
<g id="surface1">
<path style=" stroke:none;fill-rule:nonzero;fill:rgb(100%,100%,100%);fill-opacity:1;" d="M 240.230469 11.144531 C 177.425781 -9.964844 85.578125 -0.144531 39.648438 32.625 C 10.339844 53.664062 -4.097656 78.710938 1.011719 99.621094 C 3.851562 111.1875 12.464844 119.851562 25.28125 124.042969 C 40.386719 129.007812 53.757812 129.246094 64.964844 124.832031 C 87.722656 115.855469 93.476562 91.085938 93.699219 90.039062 L 94.078125 88.363281 L 91.742188 88.382812 C 86.164062 88.492188 79.214844 87.644531 77.921875 83.121094 C 77.761719 82.546875 77.683594 81.960938 77.679688 81.375 C 77.679688 73.320312 91.414062 60.523438 110.0625 54.03125 L 110.0625 231.621094 C 89.996094 247.234375 78.933594 263.214844 78.933594 276.179688 C 78.933594 279.160156 79.527344 281.953125 80.695312 284.546875 C 84.214844 292.382812 93.164062 297.605469 105.90625 299.222656 C 122.945312 301.394531 142.609375 297.144531 157.214844 288.152344 C 171.238281 279.507812 178.941406 267.886719 178.941406 255.398438 L 178.941406 166.007812 C 239.898438 149.804688 294.703125 130.769531 299.050781 78.820312 C 299.203125 77.144531 299.265625 75.507812 299.265625 73.871094 C 299.269531 46.179688 278.523438 24.039062 240.230469 11.148438 Z M 189.464844 120.367188 C 189.464844 120.367188 183.53125 121.15625 180.601562 121.5625 L 180.601562 45.109375 C 182.917969 44.984375 187.589844 44.761719 187.589844 44.761719 C 220.226562 43.160156 238.609375 53.71875 242.179688 76.226562 C 242.40625 77.699219 242.519531 79.167969 242.519531 80.621094 C 242.519531 100.484375 222.296875 115.855469 189.464844 120.363281 Z M 189.464844 120.367188 "/>
</g>
</svg>
