<?xml version="1.0" encoding="UTF-8"?>
<svg xmlns="http://www.w3.org/2000/svg" xmlns:xlink="http://www.w3.org/1999/xlink" width="300px" height="300px" viewBox="0 0 300 300" version="1.1">
<g id="surface1">
<path style=" stroke:none;fill-rule:nonzero;fill:rgb(99.215686%,72.156863%,15.294118%);fill-opacity:1;" d="M 225.023438 1.546875 C 210.464844 11.714844 196.199219 14.074219 173.625 14.074219 L 22.816406 13.925781 L 2.292969 50.621094 C 14.695312 54.445312 22.816406 62.855469 22.816406 72.949219 L 22.816406 241.054688 C 22.816406 251.148438 14.695312 259.554688 2.292969 263.375 L 22.816406 298.945312 L 80.40625 298.945312 L 100.945312 263.375 C 88.542969 259.703125 80.40625 250.988281 80.40625 241.054688 L 80.40625 174.78125 L 173.625 174.8125 C 196.203125 174.8125 210.460938 178.792969 225.023438 188.957031 C 234.527344 168.050781 263.082031 152.464844 298.171875 146.246094 C 284.867188 129.902344 279.648438 115.394531 279.648438 100.25 C 279.648438 85.105469 282.613281 68.652344 295.917969 52.3125 C 260.828125 46.085938 233.78125 22.445312 225.023438 1.542969 Z M 80.695312 49.359375 L 200.050781 49.359375 C 218.960938 49.359375 230.800781 57.878906 230.800781 69.167969 L 230.800781 119.984375 C 230.800781 131.839844 221.433594 138.304688 200.050781 138.304688 L 80.695312 138.304688 Z M 80.695312 49.359375 "/>
</g>
</svg>
