<?xml version="1.0" encoding="UTF-8"?>
<svg xmlns="http://www.w3.org/2000/svg" xmlns:xlink="http://www.w3.org/1999/xlink" width="300px" height="300px" viewBox="0 0 300 300" version="1.1">
<g id="surface1">
<path style=" stroke:none;fill-rule:nonzero;fill:rgb(99.215686%,35.294118%,11.764706%);fill-opacity:1;" d="M 125.78125 133.578125 L 125.78125 163.75 C 125.78125 163.75 179.300781 166.222656 195.683594 159.113281 C 192.753906 165.777344 193.675781 187.570312 195.683594 191.203125 C 174.976562 183.589844 125.78125 186.625 125.78125 186.625 L 125.78125 216.984375 L 205.070312 216.984375 L 221.957031 202.910156 L 221.957031 150.882812 L 202.386719 134.609375 C 190.753906 133.683594 149.167969 133.578125 125.789062 133.578125 Z M 3.113281 25.652344 C 19.574219 20.03125 37.097656 8.140625 43.3125 0.144531 C 59.179688 5.515625 205.074219 4.722656 221.941406 0.144531 C 232.113281 10.800781 243.046875 16.757812 258.457031 20.367188 C 257.015625 30.589844 257.457031 34.210938 262.109375 42.410156 L 221.941406 42.410156 L 205.074219 28.914062 L 62.015625 28.914062 L 43.277344 40.730469 L 43.277344 95.097656 L 61.957031 108.054688 L 85.609375 108.761719 C 85.609375 88.578125 85.902344 84.714844 65.175781 80.769531 C 72.074219 70.871094 73.460938 69.707031 75.277344 57.359375 C 93.019531 61.628906 276.34375 59.300781 284.316406 56.027344 C 283.039062 68.894531 293.179688 93.335938 299.996094 102.457031 L 259.824219 102.457031 C 257.78125 92.449219 248.964844 84.714844 234.9375 82.835938 L 125.78125 82.835938 L 125.78125 108.761719 C 125.78125 108.761719 210.714844 110.417969 221.941406 107.660156 C 227.519531 118.050781 247.605469 133.289062 262.109375 137.507812 C 257.238281 158.714844 258.144531 194.976562 262.109375 216.972656 C 246.308594 222.59375 230.171875 234.140625 221.945312 245.78125 C 201.96875 241.835938 125.78125 243.777344 125.78125 243.777344 L 125.78125 260.070312 C 129.714844 271.179688 138.046875 273.855469 152.667969 274.765625 C 152.667969 274.765625 140.925781 290.589844 140.445312 299.859375 L 71.808594 299.859375 C 71.507812 290.820312 59.574219 274.765625 59.574219 274.765625 C 72.769531 274.324219 83.601562 268.738281 85.609375 260.070312 L 85.609375 243.777344 C 85.609375 243.777344 61.519531 243.132812 43.308594 245.78125 C 37.800781 236.921875 17.707031 221.050781 3.113281 216.972656 C 6.484375 210.609375 4.917969 170.859375 0 162.480469 L 43.3125 162.480469 L 43.277344 202.914062 L 60.160156 216.988281 L 85.613281 216.988281 L 85.613281 133.585938 C 85.613281 133.585938 63.332031 132.796875 43.316406 133.890625 C 37.5625 125.867188 20.378906 112.945312 3.113281 106.847656 C 8.507812 92.160156 8.980469 39.515625 3.113281 25.652344 Z M 3.113281 25.652344 "/>
</g>
</svg>
