<?xml version="1.0" encoding="UTF-8"?>
<svg xmlns="http://www.w3.org/2000/svg" xmlns:xlink="http://www.w3.org/1999/xlink" width="300px" height="300px" viewBox="0 0 300 300" version="1.1">
<g id="surface1">
<path style=" stroke:none;fill-rule:nonzero;fill:rgb(100%,76.862745%,15.294118%);fill-opacity:1;" d="M 242.558594 63.847656 L 81.199219 63.855469 C 81.199219 63.855469 90.847656 74.289062 90.847656 94.113281 L 90.847656 109.457031 L 56.691406 109.457031 C 48.496094 109.457031 41.851562 104.460938 41.851562 98.296875 L 41.851562 35.898438 C 41.851562 29.761719 48.53125 24.738281 56.691406 24.738281 L 167.433594 24.738281 C 175.953125 24.824219 181.554688 31.1875 180.390625 37.535156 C 179.261719 43.679688 174.996094 47.363281 174.996094 47.363281 L 218.9375 47.363281 L 218.9375 33.054688 C 218.9375 14.796875 199.261719 0 174.988281 0 L 43.949219 0 C 19.675781 0 0 14.796875 0 33.054688 L 0 101.75 C 0 120.003906 19.675781 134.800781 43.949219 134.800781 L 164.855469 134.800781 C 173.050781 134.800781 179.695312 139.800781 179.695312 145.964844 L 179.695312 205.480469 C 179.695312 211.617188 173.023438 216.636719 164.867188 216.636719 L 132.691406 216.636719 L 132.691406 146.695312 L 90.847656 146.695312 L 90.847656 216.632812 L 54.316406 216.632812 C 46.125 216.632812 39.484375 211.640625 39.484375 205.480469 L 39.484375 199.539062 C 39.484375 179.769531 46.550781 175.199219 46.550781 175.199219 L 2.609375 175.199219 L 2.609375 208.925781 C 2.609375 227.179688 22.285156 241.976562 46.554688 241.976562 L 90.84375 241.976562 L 90.84375 269.742188 C 90.84375 289.566406 81.199219 300 81.199219 300 L 242.578125 300 C 274.230469 300 299.894531 280.703125 299.894531 256.894531 L 299.894531 106.964844 C 299.894531 83.148438 274.222656 63.84375 242.558594 63.847656 Z M 258.046875 257.496094 C 258.046875 266.898438 247.914062 274.519531 235.414062 274.519531 L 132.691406 274.519531 L 132.691406 241.972656 L 177.605469 241.972656 C 201.875 241.972656 221.546875 227.179688 221.546875 208.925781 L 221.546875 142.511719 C 221.546875 124.257812 201.871094 109.457031 177.597656 109.457031 L 132.691406 109.457031 L 132.691406 89.328125 L 235.417969 89.328125 C 247.917969 89.328125 258.046875 96.949219 258.046875 106.347656 Z M 258.046875 257.496094 "/>
</g>
</svg>
