<?xml version="1.0" encoding="UTF-8"?>
<svg xmlns="http://www.w3.org/2000/svg" xmlns:xlink="http://www.w3.org/1999/xlink" width="300px" height="300px" viewBox="0 0 300 300" version="1.1">
<g id="surface1">
<path style=" stroke:none;fill-rule:nonzero;fill:rgb(76.862745%,11.764706%,22.745098%);fill-opacity:1;" d="M 198.859375 222.089844 C 198.878906 222.113281 198.878906 222.121094 198.898438 222.144531 L 198.945312 222.140625 L 198.945312 222.132812 C 198.9375 222.109375 198.921875 222.109375 198.910156 222.089844 Z M 200.855469 222.089844 L 201.292969 222.09375 L 202.023438 222.09375 L 201.289062 222.09375 Z M 204.523438 222.824219 L 204.523438 222.886719 L 204.554688 222.898438 L 204.53125 222.828125 Z M 209.875 223.648438 L 209.871094 223.65625 L 209.875 223.660156 C 209.875 223.65625 209.875 223.652344 209.875 223.648438 Z M 210.589844 224.105469 C 210.578125 224.128906 210.578125 224.125 210.5625 224.15625 C 210.554688 224.171875 210.582031 224.136719 210.589844 224.125 Z M 200.382812 225.222656 L 200.382812 225.332031 L 200.398438 225.332031 C 200.394531 225.300781 200.390625 225.265625 200.386719 225.230469 Z M 198.441406 226.398438 C 198.605469 226.519531 198.617188 226.550781 198.644531 226.566406 C 198.484375 226.449219 198.289062 226.285156 198.441406 226.398438 Z M 198.441406 226.398438 "/>
<path style="fill-rule:nonzero;fill:rgb(13.333333%,12.54902%,37.254902%);fill-opacity:1;stroke-width:10.3354;stroke-linecap:butt;stroke-linejoin:miter;stroke:rgb(13.333333%,12.54902%,37.254902%);stroke-opacity:1;stroke-miterlimit:4;" d="M 30.366875 5.16888 C 29.323437 5.16888 28.409062 6.107917 28.409062 7.180703 L 28.409062 15.509427 C 28.409062 16.585 29.323437 17.526823 30.366875 17.526823 L 32.195625 17.526823 C 36.502812 17.526823 40.029062 21.152005 40.029062 25.58526 L 40.029062 32.841198 C 40.029062 33.108698 39.764375 33.378984 39.504062 33.378984 C 20.184062 36.46638 5.304687 53.661615 5.304687 74.214531 C 5.304687 94.901198 20.18625 111.020859 39.375 113.840755 C 39.6375 113.840755 39.897812 114.111042 39.897812 114.381328 L 39.897812 146.617865 C 34.805312 144.472292 29.844062 142.184609 25.014062 139.632214 C 23.31875 138.693177 21.619062 137.620391 19.925937 136.678568 C 19.53 136.408281 19.140625 136.408281 18.749062 136.408281 C 18.095 136.408281 17.574375 136.542031 17.182812 137.079818 C 15.485312 139.094427 13.39625 141.379323 10.784375 144.466719 C 9.218125 146.213828 7.654062 148.094688 5.694062 150.245833 C 5.357187 150.608073 5.17125 151.09013 5.173437 151.588906 C 5.042187 152.664479 6.085625 153.606302 7.654062 153.469766 C 10.26375 153.202266 12.484062 153.202266 14.312812 153.065729 C 19.400937 153.336016 21.229687 154.812839 27.757187 158.036771 C 30.627187 159.51638 34.805312 161.394453 39.635312 163.545599 L 39.635312 185.842839 C 39.635312 192.290703 31.935312 191.08138 28.931875 191.351667 C 28.28 191.485417 28.019687 192.156953 28.019687 192.69474 L 28.019687 206.395755 C 28.019687 207.471328 28.931875 208.413151 29.9775 208.413151 L 130.755625 208.413151 C 143.548125 208.413151 153.601875 204.113646 161.955937 195.651172 C 162.607812 195.113385 162.739062 193.904063 161.955937 193.098776 L 152.6875 182.752656 C 151.89125 181.94737 150.609375 181.94737 149.813125 182.752656 C 143.287812 189.470807 135.716875 191.485417 130.755625 191.485417 L 65.2225 191.485417 C 60.784062 191.485417 56.868437 191.084167 56.868437 186.380625 L 56.868437 169.319141 C 66.78875 172.139036 75.011562 173.888932 84.41125 174.827969 C 121.224687 178.859974 155.297187 167.170781 155.297187 134.126172 C 155.297187 116.526901 135.583437 98.12513 106.603437 97.59013 C 106.340937 97.59013 106.080625 97.319844 106.080625 97.049557 L 106.080625 84.424115 C 106.080625 84.153828 106.343125 83.883542 106.603437 83.883542 C 113.914062 83.883542 120.179062 85.900938 120.179062 85.900938 C 122.790937 86.973724 122.399375 83.749792 122.399375 82.674219 L 122.268125 72.737708 C 122.268125 72.066172 121.485 71.662135 121.093437 71.662135 L 75.145 71.662135 C 74.622187 71.662135 73.970312 72.066172 73.970312 72.868672 L 73.970312 82.810755 C 73.970312 84.020078 73.839062 86.703438 76.18625 86.031901 C 76.18625 86.031901 81.1475 83.883542 89.764062 84.020078 C 90.024375 84.020078 90.289062 84.290365 90.289062 84.557865 L 90.289062 97.186094 C 90.289062 97.453594 90.024375 97.721094 89.764062 97.721094 L 57.389062 97.721094 C 57.130937 97.721094 56.868437 97.450807 56.868437 97.183307 L 56.868437 49.498646 C 56.868437 49.228359 57.130937 48.960859 57.389062 48.960859 C 74.622187 48.690573 105.951562 51.112005 130.755625 59.975729 C 131.67 60.246016 132.584375 59.975729 133.107187 59.167656 C 135.19625 55.542474 137.935 50.978255 141.981875 43.858854 C 142.89625 42.111745 141.459062 40.768672 139.372187 41.303672 C 128.535312 44.260104 128.14375 43.184531 118.615 40.765885 C 107.778125 37.94599 82.453437 32.439948 57.26 32.841198 C 56.995312 32.841198 56.605937 32.570911 56.605937 32.300625 L 56.605937 25.588047 C 56.605937 21.154792 60.13 17.526823 64.439375 17.526823 L 66.265937 17.526823 C 67.309375 17.526823 68.22375 16.585 68.22375 15.512214 L 68.22375 7.180703 C 68.22375 6.107917 67.309375 5.16888 66.265937 5.16888 Z M 39.5325 49.467995 C 39.816875 49.504219 40.03125 49.746641 40.029062 50.033646 L 40.029062 96.918594 C 39.897812 97.319844 39.6375 97.59013 39.245937 97.59013 C 27.757187 95.709271 20.577812 85.630651 20.577812 73.272708 C 20.577812 61.853802 28.540312 52.184792 39.245937 49.498646 C 39.337812 49.465208 39.438437 49.454063 39.534687 49.467995 Z M 57.389062 113.709792 L 89.895312 113.709792 C 90.155625 113.709792 90.418125 113.977292 90.418125 114.244792 L 90.418125 127.410807 C 90.418125 128.082344 90.289062 128.62013 90.02875 129.291667 L 88.197812 133.858672 C 87.808437 134.666745 88.460312 135.736745 89.374687 135.736745 L 107.2575 135.736745 C 107.699375 135.739531 108.110625 135.511042 108.349062 135.129297 C 108.5875 134.747552 108.618125 134.268281 108.432187 133.858672 L 106.474375 129.425417 C 106.218437 128.784531 106.085 128.101849 106.080625 127.410807 L 106.080625 114.381328 C 106.080625 114.111042 106.343125 113.707005 106.605625 113.840755 C 118.354687 113.977292 139.37 118.678047 139.37 135.605781 C 139.37 158.173307 101.515312 166.097995 56.739375 152.931979 C 56.739375 152.931979 56.605937 152.931979 56.605937 152.801016 L 56.605937 114.247578 L 56.868437 114.247578 C 56.868437 113.977292 57.130937 113.709792 57.389062 113.709792 Z M 57.389062 113.709792 " transform="matrix(1.785714,0,0,1.401869,0,0)"/>
<path style=" stroke:none;fill-rule:nonzero;fill:rgb(100%,100%,100%);fill-opacity:1;" d="M 53.363281 6.871094 C 51.488281 6.871094 49.84375 8.191406 49.84375 9.699219 L 49.84375 21.40625 C 49.84375 22.914062 51.488281 24.238281 53.363281 24.238281 L 56.648438 24.238281 C 64.390625 24.238281 70.722656 29.335938 70.722656 35.5625 L 70.722656 45.757812 C 70.722656 46.136719 70.253906 46.511719 69.785156 46.511719 C 35.0625 50.855469 8.320312 75.019531 8.320312 103.902344 C 8.320312 132.972656 35.0625 155.628906 69.550781 159.59375 C 70.019531 159.59375 70.488281 159.972656 70.488281 160.347656 L 70.488281 205.652344 C 61.339844 202.632812 52.425781 199.425781 43.746094 195.835938 C 40.695312 194.515625 37.644531 193.003906 34.597656 191.683594 C 33.894531 191.304688 33.1875 191.304688 32.480469 191.304688 C 31.308594 191.304688 30.371094 191.496094 29.667969 192.25 C 26.617188 195.082031 22.863281 198.292969 18.171875 202.632812 C 15.355469 205.085938 12.542969 207.730469 9.023438 210.75 C 8.320312 211.316406 8.085938 212.070312 8.085938 212.636719 C 7.851562 214.148438 9.726562 215.46875 12.542969 215.28125 C 17.234375 214.902344 21.222656 214.902344 24.507812 214.714844 C 33.65625 215.09375 36.941406 217.167969 48.671875 221.699219 C 53.832031 223.777344 61.335938 226.421875 70.019531 229.441406 L 70.019531 260.777344 C 70.019531 269.839844 56.175781 268.140625 50.78125 268.519531 C 49.605469 268.707031 49.140625 269.652344 49.140625 270.40625 L 49.140625 289.660156 C 49.140625 291.171875 50.785156 292.492188 52.660156 292.492188 L 233.765625 292.492188 C 256.757812 292.492188 274.820312 286.453125 289.835938 274.558594 C 291.007812 273.804688 291.242188 272.105469 289.835938 270.972656 L 273.179688 256.433594 C 272.5 255.890625 271.570312 255.585938 270.597656 255.585938 C 269.628906 255.585938 268.699219 255.890625 268.019531 256.433594 C 256.289062 265.875 242.683594 268.707031 233.769531 268.707031 L 116 268.707031 C 108.023438 268.707031 100.984375 268.140625 100.984375 261.53125 L 100.984375 237.5625 C 118.816406 241.523438 133.59375 243.980469 150.484375 245.300781 C 216.640625 250.964844 277.871094 234.539062 277.871094 188.101562 C 277.871094 163.371094 242.445312 137.507812 190.367188 136.753906 C 189.898438 136.753906 189.429688 136.375 189.429688 135.996094 L 189.429688 118.25 C 189.429688 117.875 189.898438 117.496094 190.367188 117.496094 C 203.503906 117.496094 214.765625 120.328125 214.765625 120.328125 C 219.457031 121.835938 218.753906 117.308594 218.753906 115.796875 L 218.519531 101.828125 C 218.519531 100.882812 217.109375 100.316406 216.40625 100.316406 L 133.828125 100.316406 C 132.890625 100.316406 131.71875 100.882812 131.71875 102.015625 L 131.71875 115.988281 C 131.71875 117.683594 131.480469 121.460938 135.703125 120.515625 C 135.703125 120.515625 144.617188 117.496094 160.101562 117.683594 C 160.570312 117.683594 161.039062 118.0625 161.039062 118.441406 L 161.039062 136.1875 C 161.039062 136.5625 160.570312 136.941406 160.101562 136.941406 L 101.921875 136.941406 C 101.457031 136.941406 100.984375 136.5625 100.984375 136.1875 L 100.984375 69.167969 C 100.984375 68.789062 101.457031 68.410156 101.925781 68.410156 C 132.890625 68.03125 189.191406 71.433594 233.765625 83.890625 C 235.410156 84.269531 237.050781 83.890625 237.988281 82.757812 C 241.742188 77.664062 246.667969 71.242188 253.941406 61.238281 C 255.582031 58.785156 253.003906 56.894531 249.25 57.652344 C 229.777344 61.804688 229.070312 60.292969 211.945312 56.894531 C 192.476562 52.933594 146.964844 45.191406 101.6875 45.757812 C 101.21875 45.757812 100.515625 45.378906 100.515625 45 L 100.515625 35.566406 C 100.515625 29.335938 106.847656 24.238281 114.589844 24.238281 L 117.875 24.238281 C 119.75 24.238281 121.394531 22.917969 121.394531 21.40625 L 121.394531 9.699219 C 121.394531 8.191406 119.75 6.871094 117.875 6.871094 Z M 69.832031 69.125 C 70.328125 69.179688 70.726562 69.496094 70.726562 69.921875 L 70.726562 135.804688 C 70.488281 136.371094 70.019531 136.75 69.3125 136.75 C 48.671875 134.105469 35.769531 119.949219 35.769531 102.582031 C 35.769531 86.535156 50.078125 72.941406 69.316406 69.167969 C 69.480469 69.121094 69.660156 69.109375 69.832031 69.128906 Z M 101.925781 159.402344 L 160.339844 159.402344 C 160.808594 159.402344 161.277344 159.777344 161.277344 160.15625 L 161.277344 178.660156 C 161.277344 179.601562 161.042969 180.359375 160.574219 181.300781 L 157.292969 187.722656 C 156.585938 188.855469 157.761719 190.363281 159.402344 190.363281 L 191.542969 190.363281 C 193.1875 190.363281 194.355469 189.042969 193.652344 187.722656 L 190.136719 181.492188 C 189.675781 180.589844 189.4375 179.628906 189.429688 178.660156 L 189.429688 160.347656 C 189.429688 159.96875 189.898438 159.402344 190.371094 159.589844 C 211.480469 159.78125 249.25 166.390625 249.25 190.175781 C 249.25 221.890625 181.21875 233.03125 100.753906 214.527344 C 100.753906 214.527344 100.519531 214.527344 100.519531 214.339844 L 100.519531 160.160156 L 100.988281 160.160156 C 100.988281 159.78125 101.457031 159.402344 101.925781 159.402344 Z M 101.925781 159.402344 "/>
</g>
</svg>
