<?xml version="1.0" encoding="UTF-8"?>
<svg xmlns="http://www.w3.org/2000/svg" xmlns:xlink="http://www.w3.org/1999/xlink" width="300px" height="300px" viewBox="0 0 300 300" version="1.1">
<g id="surface1">
<path style=" stroke:none;fill-rule:nonzero;fill:rgb(6.666667%,13.333333%,35.686275%);fill-opacity:1;" d="M 273.261719 8.324219 C 245.375 -14.003906 220.089844 13.90625 220.089844 29.878906 C 247.945312 35.820312 272.871094 63.730469 261.734375 136.191406 C 252.617188 195.46875 217.660156 232.363281 195.6875 233.109375 C 213.898438 208.125 226.167969 179.964844 232.804688 152.441406 C 252.808594 70.144531 220.808594 43.613281 195.496094 42.398438 C 164.738281 40.824219 133.894531 82.746094 125.300781 132.210938 C 118.503906 171.398438 119.386719 211.441406 143.210938 240.792969 C 122.09375 267.375 71.46875 275.609375 80.339844 211.46875 C 87.800781 157.828125 114.441406 98.632812 129.226562 69.5625 L 129.667969 68.789062 C 137.570312 52.539062 143.871094 41.042969 146.550781 36.457031 L 140.582031 36.375 C 83.019531 37.371094 37.117188 50.6875 15.8125 79.871094 C -4.222656 107.203125 -4.804688 135.996094 11.722656 152.992188 L 14.152344 155.453125 C 19.015625 160.289062 25.34375 162.804688 31.671875 162.804688 L 31.699219 162.804688 C 37.421875 162.804688 43.171875 160.703125 47.535156 156.335938 C 51.929688 152 54.085938 146.167969 54.085938 140.421875 C 54.085938 134.089844 51.542969 127.761719 46.707031 122.925781 C 44.082031 120.386719 41.152344 118.449219 38.03125 117.207031 L 38.085938 117.039062 L 39.578125 113.972656 C 43.472656 107.203125 50.246094 101.011719 59.03125 96.617188 C 65.96875 93.164062 74.066406 90.761719 82.882812 89.875 L 81.527344 92.777344 C 69.3125 115.464844 51.460938 158.605469 45.796875 181.042969 C 28.246094 251.375 56.65625 292.523438 87.386719 298.296875 C 124.390625 305.207031 152.746094 287.273438 167.75 264.113281 C 185.628906 275.472656 232.886719 281.996094 268.425781 218.710938 C 309.292969 145.863281 310.789062 38.417969 273.261719 8.324219 M 168.660156 216.582031 C 161.667969 199.503906 158.464844 179.410156 158.464844 160.316406 C 158.464844 137.269531 163.078125 115.851562 171.039062 103.25 C 176.234375 94.957031 182.507812 90.953125 189.5 91.421875 C 192.011719 91.558594 194.832031 92.417969 196.875 97.253906 C 198.507812 101.148438 199.226562 106.34375 199.226562 112.34375 C 199.226562 142.382812 181.261719 193.640625 168.660156 216.582031 "/>
<path style=" stroke:none;fill-rule:nonzero;fill:rgb(100%,100%,100%);fill-opacity:1;" d="M 269.085938 13.546875 C 260.160156 6.417969 250.957031 4.785156 242.421875 8.933594 C 235.234375 12.386719 229.816406 19.242188 227.71875 25.097656 C 244.933594 30.902344 271.105469 48.726562 271.105469 103.554688 C 271.105469 113.558594 270.21875 124.695312 268.257812 137.242188 C 259.71875 193.148438 228.601562 231.148438 203.675781 238.46875 C 196.324219 240.625 189.664062 240.015625 184.21875 237.03125 C 208.898438 206.660156 220.726562 174.023438 226.335938 150.835938 C 230.703125 132.820312 232.46875 118.035156 232.46875 105.929688 C 232.46875 84.320312 226.96875 71.191406 221.140625 63.371094 C 212.265625 51.574219 201.078125 49.308594 195.132812 49.003906 C 168.992188 47.730469 140.03125 86.390625 131.90625 133.34375 C 129.558594 146.914062 128.3125 159.460938 128.3125 170.929688 C 128.3125 200.386719 136.105469 223.269531 151.664062 240.265625 C 140.140625 258.335938 116.675781 270.691406 98.078125 266.464844 C 89.871094 264.609375 72.683594 256.957031 72.683594 225.398438 C 72.683594 220.917969 73.015625 216.027344 73.761719 210.585938 C 80.53125 162.195312 102.722656 108.609375 118.390625 76.25 L 118.777344 75.558594 C 125.574219 61.328125 131.433594 50.078125 135.332031 43.226562 L 134.28125 43.253906 C 78.320312 45.132812 39.273438 59.089844 21.171875 83.796875 C 21.171875 83.796875 6.054688 103.113281 6.578125 122.734375 C 6.882812 134.117188 10.890625 144.175781 19.59375 151.222656 L 20.726562 152.109375 C 27.527344 157.414062 36.949219 157.304688 42.699219 151.5 C 49 145.171875 48.582031 134.558594 41.839844 127.789062 C 38.332031 124.28125 33.855469 122.457031 29.433594 122.402344 L 29.292969 122.402344 C 33.273438 99.960938 59.113281 82.605469 90.367188 82.605469 L 94.484375 82.714844 L 93.90625 83.847656 L 87.410156 95.980469 C 75.832031 117.453125 57.953125 159.984375 52.285156 182.644531 C 43.414062 218.15625 45.984375 249.328125 59.5 270.386719 C 66.988281 282.078125 77.351562 289.621094 88.570312 291.75 C 113.332031 296.390625 131.40625 288.515625 142.210938 281.109375 C 151.21875 274.917969 160.035156 265.273438 166.226562 255.050781 C 173.605469 259.828125 186.011719 264.941406 196.429688 264.804688 C 214.117188 264.554688 239.984375 255.765625 262.585938 215.476562 C 281.4375 181.871094 292.765625 138.816406 293.539062 97.390625 C 294.371094 57.792969 285.199219 26.480469 269.085938 13.546875 M 189.914062 84.789062 C 229.402344 87.25 184.882812 210.472656 167.695312 230.175781 C 139.453125 179.136719 150.007812 82.277344 189.914062 84.789062 "/>
</g>
</svg>
